<svg xmlns="http://www.w3.org/2000/svg" version="1.1" xmlns:xlink="http://www.w3.org/1999/xlink" xmlns:svgjs="http://svgjs.dev/svgjs" width="1500" height="1500" viewBox="0 0 1500 1500"><rect width="1500" height="1500" fill="#ffffff"></rect><g transform="matrix(0.6666666666666666,0,0,0.6666666666666666,249.39393939393932,607.0441028649639)"><svg viewBox="0 0 396 113" data-background-color="#74d43f" preserveAspectRatio="xMidYMid meet" height="428" width="1500" xmlns="http://www.w3.org/2000/svg" xmlns:xlink="http://www.w3.org/1999/xlink"><g id="tight-bounds" transform="matrix(1,0,0,1,0.24000000000003752,0.11454337473981013)"><svg viewBox="0 0 395.5199999999999 112.77041267680409" height="112.77041267680409" width="395.5199999999999"><g><svg viewBox="0 0 574.2876833463862 163.74054168228602" height="112.77041267680409" width="395.5199999999999"><g><rect width="7.641439387877686" height="152.87852264813594" x="151.12247592741508" y="5.43100951707504" fill="#000000" opacity="1" stroke-width="0" stroke="transparent" fill-opacity="1" class="rect-qz-0" data-fill-palette-color="primary" rx="1%" id="qz-0" data-palette-color="#ffffff"></rect></g><g transform="matrix(1,0,0,1,178.76768334638618,18.170886404419697)"><svg viewBox="0 0 395.52 127.39876887344663" height="127.39876887344663" width="395.52"><g id="textblocktransform"><svg viewBox="0 0 395.52 127.39876887344663" height="127.39876887344663" width="395.52" id="textblock"><g><svg viewBox="0 0 395.52 84.73444158276749" height="84.73444158276749" width="395.52"><g transform="matrix(1,0,0,1,0,0)"><svg width="395.52" viewBox="3.85 -35.9 213.53 45.75" height="84.73444158276749" data-palette-color="#ffffff"><path d="M14.05 0L14.05 0 3.85 0 3.85-33.7 13.85-33.7Q21.3-33.7 26.08-29.08 30.85-24.45 30.85-17.1L30.85-17.1Q30.85-9.8 26.43-4.9 22 0 14.05 0ZM13.8-30.1L13.8-30.1 7.95-30.1 7.95-3.55 14-3.55Q20.25-3.55 23.45-7.43 26.65-11.3 26.65-17.1L26.65-17.1Q26.65-22.6 23.08-26.35 19.5-30.1 13.8-30.1ZM59-12.6L59-12.6Q59-6.95 55.8-3.25 52.6 0.45 47 0.45L47 0.45Q41.55 0.45 38.37-3.23 35.2-6.9 35.2-12.5L35.2-12.5Q35.2-18.15 38.47-21.93 41.75-25.7 47-25.7L47-25.7Q52.75-25.7 55.87-22 59-18.3 59-12.6ZM39.3-12.55L39.3-12.55Q39.3-8.6 41.4-5.83 43.5-3.05 47-3.05L47-3.05Q50.8-3.05 52.85-5.78 54.9-8.5 54.9-12.55L54.9-12.55Q54.9-16.75 52.95-19.48 51-22.2 47-22.2L47-22.2Q43.4-22.2 41.35-19.4 39.3-16.6 39.3-12.55ZM68.7-3.85L68.7 9.85 64.8 9.85 64.8-25.35 68.7-25.35 68.7-21.5Q71.35-25.75 76.55-25.75L76.55-25.75Q81.6-25.75 84.47-22.08 87.35-18.4 87.35-12.9L87.35-12.9Q87.35-7.05 84.32-3.33 81.3 0.4 76.45 0.4L76.45 0.4Q71.45 0.4 68.7-3.85L68.7-3.85ZM68.7-12.65L68.7-12.65Q68.7-7.8 70.95-5.5 73.2-3.2 75.95-3.2L75.95-3.2Q79.15-3.2 81.2-5.73 83.25-8.25 83.25-12.9L83.25-12.9Q83.25-17.05 81.25-19.6 79.25-22.15 76.2-22.15 73.15-22.15 70.92-19.93 68.7-17.7 68.7-12.65ZM100.89-3.05L100.89-3.05Q103.59-3.05 105.19-4.58 106.79-6.1 106.79-8.45L106.79-8.45 106.79-11.7 102.39-11.7Q99.19-11.7 97.59-10.45 95.99-9.2 95.99-7.3 95.99-5.4 97.24-4.23 98.49-3.05 100.89-3.05ZM106.84 0L106.84-3Q104.89 0.25 99.74 0.25L99.74 0.25Q96.19 0.25 94.02-1.85 91.84-3.95 91.84-7.15L91.84-7.15Q91.84-10.8 94.62-12.83 97.39-14.85 102.19-14.85L102.19-14.85 106.79-14.85 106.79-16.15Q106.79-19.15 105.44-20.68 104.09-22.2 100.89-22.2L100.89-22.2Q96.84-22.2 93.69-20.05L93.69-20.05 93.69-24Q96.54-25.75 101.19-25.75L101.19-25.75Q110.74-25.75 110.74-16.05L110.74-16.05 110.74 0 106.84 0ZM151.64-17.4L151.64 0 147.69 0 147.69-16.4Q147.69-22.15 142.84-22.15L142.84-22.15Q140.44-22.15 138.54-19.98 136.64-17.8 136.64-13.85L136.64-13.85 136.64 0 132.69 0 132.69-16.4Q132.69-22.15 127.84-22.15L127.84-22.15Q125.44-22.15 123.54-19.98 121.64-17.8 121.64-13.85L121.64-13.85 121.64 0 117.74 0 117.74-25.35 121.64-25.35 121.64-21.25Q123.74-25.7 128.79-25.7L128.79-25.7Q134.64-25.7 136.19-20.75L136.19-20.75Q137.29-23.15 139.27-24.43 141.24-25.7 143.69-25.7L143.69-25.7Q147.64-25.7 149.64-23.45 151.64-21.2 151.64-17.4L151.64-17.4ZM162.79-25.35L162.79 0 158.84 0 158.84-25.35 162.79-25.35ZM162.64-35.15Q163.39-34.4 163.39-33.3 163.39-32.2 162.64-31.48 161.89-30.75 160.79-30.75 159.69-30.75 158.96-31.48 158.24-32.2 158.24-33.3 158.24-34.4 158.96-35.15 159.69-35.9 160.79-35.9 161.89-35.9 162.64-35.15ZM190.29-17.45L190.29 0 186.34 0 186.34-16.4Q186.34-19.2 184.91-20.68 183.49-22.15 181.19-22.15L181.19-22.15Q178.34-22.15 176.26-19.95 174.19-17.75 174.19-13.85L174.19-13.85 174.19 0 170.29 0 170.29-25.35 174.19-25.35 174.19-20.95Q176.44-25.7 182.19-25.7L182.19-25.7Q185.89-25.7 188.09-23.45 190.29-21.2 190.29-17.45L190.29-17.45ZM215.78-5L215.78-1.3Q212.83 0.25 208.58 0.25L208.58 0.25Q202.83 0.25 199.31-3.28 195.78-6.8 195.78-12.6L195.78-12.6Q195.78-18.65 198.93-22.15 202.08-25.65 207.03-25.65L207.03-25.65Q211.78-25.65 214.58-22.6 217.38-19.55 217.38-13.95L217.38-13.95Q217.38-12.35 217.13-11L217.13-11 199.83-11Q200.28-7.25 202.68-5.25 205.08-3.25 208.98-3.25L208.98-3.25Q213.23-3.25 215.78-5L215.78-5ZM207.03-22.2L207.03-22.2Q204.18-22.2 202.18-20.15 200.18-18.1 199.83-14.3L199.83-14.3 213.43-14.3 213.43-15.3Q213.43-18.45 211.73-20.33 210.03-22.2 207.03-22.2Z" opacity="1" transform="matrix(1,0,0,1,0,0)" fill="#000000" class="wordmark-text-0" data-fill-palette-color="primary" id="text-0"></path></svg></g></svg></g><g transform="matrix(1,0,0,1,0,104.7382096138609)"><svg viewBox="0 0 330.65472 22.66055925958572" height="22.66055925958572" width="330.65472"><g transform="matrix(1,0,0,1,0,0)"><svg width="330.65472" viewBox="3.45 -36.5 680.63 46.65" height="22.66055925958572" data-palette-color="#ffffff"><path d="M20.6 0L14.65 0 14.65-9.9Q11.2-10.5 8.68-12.38 6.15-14.25 4.8-17.2 3.45-20.15 3.45-23.9L3.45-23.9 3.45-35 9.4-35 9.4-23.5Q9.4-21.15 10.4-19.2 11.4-17.25 13.25-16.07 15.1-14.9 17.65-14.9L17.65-14.9Q20.25-14.9 22.1-16.07 23.95-17.25 24.93-19.2 25.9-21.15 25.9-23.5L25.9-23.5 25.9-35 31.9-35 31.9-23.9Q31.9-20.15 30.53-17.2 29.15-14.25 26.63-12.35 24.1-10.45 20.6-9.9L20.6-9.9 20.6 0ZM48.95 0.6L48.95 0.6Q45 0.6 41.95-1.18 38.9-2.95 37.12-5.98 35.35-9 35.35-12.75L35.35-12.75Q35.35-16.5 37.12-19.53 38.9-22.55 41.95-24.33 45-26.1 48.95-26.1L48.95-26.1Q52.85-26.1 55.9-24.33 58.95-22.55 60.72-19.53 62.5-16.5 62.5-12.75L62.5-12.75Q62.5-9 60.72-5.98 58.95-2.95 55.9-1.18 52.85 0.6 48.95 0.6ZM48.95-4.3L48.95-4.3Q51.3-4.3 53.05-5.43 54.8-6.55 55.75-8.47 56.7-10.4 56.7-12.75L56.7-12.75Q56.7-15.1 55.75-17.03 54.8-18.95 53.05-20.08 51.3-21.2 48.95-21.2L48.95-21.2Q46.55-21.2 44.82-20.08 43.1-18.95 42.12-17.03 41.15-15.1 41.15-12.75L41.15-12.75Q41.15-10.4 42.12-8.47 43.1-6.55 44.82-5.43 46.55-4.3 48.95-4.3ZM80.15 0.6L80.15 0.6Q76.45 0.6 73.7-0.88 70.95-2.35 69.45-4.95 67.95-7.55 67.95-10.8L67.95-10.8 67.95-25.5 73.7-25.5 73.7-10.85Q73.7-8.9 74.57-7.43 75.45-5.95 76.92-5.13 78.4-4.3 80.15-4.3L80.15-4.3Q81.9-4.3 83.37-5.13 84.84-5.95 85.72-7.43 86.59-8.9 86.59-10.85L86.59-10.85 86.59-25.5 92.34-25.5 92.34-10.8Q92.34-7.55 90.82-4.95 89.3-2.35 86.57-0.88 83.84 0.6 80.15 0.6ZM118.24 0L112.49 0 112.49-25.5 118.24-25.5 118.24 0ZM115.34-29.05L115.34-29.05Q113.84-29.05 112.74-30.15 111.64-31.25 111.64-32.75L111.64-32.75Q111.64-34.25 112.74-35.35 113.84-36.45 115.34-36.45L115.34-36.45Q116.89-36.45 117.97-35.35 119.04-34.25 119.04-32.75L119.04-32.75Q119.04-31.25 117.97-30.15 116.89-29.05 115.34-29.05ZM130.84 0L125.14 0 125.14-15.25Q125.14-18.2 126.54-20.68 127.94-23.15 130.59-24.63 133.24-26.1 136.94-26.1L136.94-26.1Q138.74-26.1 140.39-25.65 142.04-25.2 143.46-24.23 144.89-23.25 145.89-21.8L145.89-21.8 145.94-21.8Q146.94-23.25 148.36-24.23 149.79-25.2 151.46-25.65 153.14-26.1 154.94-26.1L154.94-26.1Q158.69-26.1 161.31-24.63 163.94-23.15 165.34-20.68 166.74-18.2 166.74-15.25L166.74-15.25 166.74 0 161.04 0 161.04-15.25Q161.04-16.9 160.21-18.25 159.39-19.6 158.04-20.4 156.69-21.2 154.94-21.2L154.94-21.2Q153.24-21.2 151.84-20.4 150.44-19.6 149.61-18.25 148.79-16.9 148.79-15.25L148.79-15.25 148.79 0 143.09 0 143.09-15.25Q143.09-16.9 142.24-18.25 141.39-19.6 140.01-20.4 138.64-21.2 136.94-21.2L136.94-21.2Q135.24-21.2 133.86-20.4 132.49-19.6 131.66-18.25 130.84-16.9 130.84-15.25L130.84-15.25 130.84 0ZM183.99 0.6L183.99 0.6Q180.34 0.6 177.69-1.2 175.03-3 173.61-6.03 172.19-9.05 172.19-12.7L172.19-12.7Q172.19-16.5 173.81-19.53 175.44-22.55 178.46-24.33 181.49-26.1 185.69-26.1L185.69-26.1Q189.84-26.1 192.76-24.33 195.69-22.55 197.26-19.53 198.84-16.5 198.84-12.8L198.84-12.8 198.84 0 193.09 0 193.09-4.75 192.99-4.75Q192.24-3.35 191.03-2.13 189.84-0.9 188.09-0.15 186.34 0.6 183.99 0.6ZM185.53-4.3L185.53-4.3Q187.78-4.3 189.46-5.43 191.13-6.55 192.09-8.47 193.03-10.4 192.99-12.8L192.99-12.8Q192.99-15.2 192.09-17.07 191.19-18.95 189.53-20.08 187.88-21.2 185.59-21.2L185.59-21.2Q183.19-21.2 181.49-20.08 179.78-18.95 178.88-17.05 177.99-15.15 177.99-12.75L177.99-12.75Q177.99-10.4 178.88-8.47 179.78-6.55 181.46-5.43 183.13-4.3 185.53-4.3ZM223.43 10.15L209.58 10.15 209.58 5.25 222.38 5.25Q223.68 5.25 224.41 4.45 225.13 3.65 225.13 2.45L225.13 2.45 225.13-4.15 225.08-4.15Q223.98-2.8 222.73-1.83 221.48-0.85 219.91-0.33 218.33 0.2 216.43 0.2L216.43 0.2Q212.93 0.2 210.18-1.45 207.43-3.1 205.86-6.08 204.28-9.05 204.28-12.9L204.28-12.9Q204.28-16.65 205.86-19.63 207.43-22.6 210.38-24.35 213.33-26.1 217.58-26.1L217.58-26.1Q221.63-26.1 224.61-24.4 227.58-22.7 229.23-19.63 230.88-16.55 230.88-12.45L230.88-12.45 230.88 2.7Q230.88 6.15 228.88 8.15 226.88 10.15 223.43 10.15L223.43 10.15ZM217.53-4.7L217.53-4.7Q219.83-4.7 221.51-5.78 223.18-6.85 224.11-8.68 225.03-10.5 225.03-12.75L225.03-12.75Q225.03-15.15 224.13-17.05 223.23-18.95 221.56-20.08 219.88-21.2 217.53-21.2L217.53-21.2Q215.23-21.2 213.56-20.08 211.88-18.95 210.98-17.07 210.08-15.2 210.08-12.85L210.08-12.85Q210.08-10.6 210.98-8.75 211.88-6.9 213.56-5.8 215.23-4.7 217.53-4.7ZM243.33 0L237.58 0 237.58-25.5 243.33-25.5 243.33 0ZM240.43-29.05L240.43-29.05Q238.93-29.05 237.83-30.15 236.73-31.25 236.73-32.75L236.73-32.75Q236.73-34.25 237.83-35.35 238.93-36.45 240.43-36.45L240.43-36.45Q241.98-36.45 243.06-35.35 244.13-34.25 244.13-32.75L244.13-32.75Q244.13-31.25 243.06-30.15 241.98-29.05 240.43-29.05ZM255.98 0L250.23 0 250.23-14.7Q250.23-18 251.73-20.58 253.23-23.15 255.98-24.63 258.73-26.1 262.43-26.1L262.43-26.1Q266.13-26.1 268.85-24.63 271.58-23.15 273.08-20.58 274.58-18 274.58-14.7L274.58-14.7 274.58 0 268.88 0 268.88-14.65Q268.88-16.6 267.98-18.07 267.08-19.55 265.6-20.38 264.13-21.2 262.38-21.2L262.38-21.2Q260.68-21.2 259.2-20.38 257.73-19.55 256.85-18.07 255.98-16.6 255.98-14.65L255.98-14.65 255.98 0ZM301.23 0L294.38 0Q290.08 0 286.85-1.63 283.63-3.25 281.83-6.13 280.03-9 280.03-12.75L280.03-12.75Q280.03-16.7 281.63-19.7 283.23-22.7 286.03-24.4 288.83-26.1 292.48-26.1L292.48-26.1Q296.58-26.1 299.23-24.35 301.88-22.6 303.15-19.65 304.43-16.7 304.43-13.05L304.43-13.05Q304.43-12.55 304.38-11.9 304.33-11.25 304.23-10.9L304.23-10.9 286.13-10.9Q286.43-8.9 287.58-7.58 288.73-6.25 290.48-5.58 292.23-4.9 294.38-4.9L294.38-4.9 301.23-4.9 301.23 0ZM286.08-14.8L286.08-14.8 298.68-14.8Q298.63-15.75 298.4-16.7 298.18-17.65 297.7-18.5 297.23-19.35 296.5-19.98 295.78-20.6 294.78-20.98 293.78-21.35 292.48-21.35L292.48-21.35Q290.98-21.35 289.83-20.78 288.68-20.2 287.88-19.28 287.08-18.35 286.65-17.18 286.23-16 286.08-14.8ZM312.27 0.55L312.27 0.55Q310.62 0.55 309.45-0.63 308.27-1.8 308.27-3.45L308.27-3.45Q308.27-5.05 309.45-6.23 310.62-7.4 312.27-7.4L312.27-7.4Q313.87-7.4 315.05-6.23 316.22-5.05 316.22-3.45L316.22-3.45Q316.22-2.35 315.7-1.43 315.17-0.5 314.27 0.03 313.37 0.55 312.27 0.55ZM348.22 0.6L348.22 0.6Q344.27 0.6 341.22-1.05 338.17-2.7 336.42-5.78 334.67-8.85 334.67-13.1L334.67-13.1 334.67-35 340.62-35 340.62-12.7Q340.62-10.5 341.54-8.68 342.47-6.85 344.19-5.75 345.92-4.65 348.22-4.65L348.22-4.65Q350.57-4.65 352.29-5.75 354.02-6.85 354.92-8.68 355.82-10.5 355.82-12.7L355.82-12.7 355.82-35 361.82-35 361.82-12.7Q361.82-10.5 362.74-8.68 363.67-6.85 365.37-5.75 367.07-4.65 369.42-4.65L369.42-4.65Q371.77-4.65 373.47-5.75 375.17-6.85 376.09-8.68 377.02-10.5 377.02-12.7L377.02-12.7 377.02-35 382.97-35 382.97-13.1Q382.97-8.85 381.22-5.78 379.47-2.7 376.42-1.05 373.37 0.6 369.42 0.6L369.42 0.6Q367.22 0.6 365.19 0 363.17-0.6 361.57-1.85 359.97-3.1 358.82-4.85L358.82-4.85Q357.72-3.1 356.07-1.88 354.42-0.65 352.44-0.03 350.47 0.6 348.22 0.6ZM409.42 0L402.57 0Q398.27 0 395.04-1.63 391.82-3.25 390.02-6.13 388.22-9 388.22-12.75L388.22-12.75Q388.22-16.7 389.82-19.7 391.42-22.7 394.22-24.4 397.02-26.1 400.67-26.1L400.67-26.1Q404.77-26.1 407.42-24.35 410.07-22.6 411.34-19.65 412.62-16.7 412.62-13.05L412.62-13.05Q412.62-12.55 412.57-11.9 412.52-11.25 412.42-10.9L412.42-10.9 394.32-10.9Q394.62-8.9 395.77-7.58 396.92-6.25 398.67-5.58 400.42-4.9 402.57-4.9L402.57-4.9 409.42-4.9 409.42 0ZM394.27-14.8L394.27-14.8 406.87-14.8Q406.82-15.75 406.59-16.7 406.37-17.65 405.89-18.5 405.42-19.35 404.69-19.98 403.97-20.6 402.97-20.98 401.97-21.35 400.67-21.35L400.67-21.35Q399.17-21.35 398.02-20.78 396.87-20.2 396.07-19.28 395.27-18.35 394.84-17.18 394.42-16 394.27-14.8ZM440.21 0.6L440.21 0.6Q437.71 0.6 435.66-0.38 433.61-1.35 432.41-3.38 431.21-5.4 431.21-8.55L431.21-8.55 431.21-25.5 436.96-25.5 436.96-7.65Q436.96-6.65 437.41-5.88 437.86-5.1 438.59-4.7 439.31-4.3 440.21-4.3L440.21-4.3Q441.06-4.3 441.81-4.7 442.56-5.1 443.01-5.88 443.46-6.65 443.46-7.65L443.46-7.65 443.46-17.05Q443.46-20 444.59-22.03 445.71-24.05 447.74-25.08 449.76-26.1 452.36-26.1L452.36-26.1Q455.01-26.1 457.01-25.08 459.01-24.05 460.16-22.03 461.31-20 461.31-17.05L461.31-17.05 461.31-7.65Q461.31-6.65 461.76-5.88 462.21-5.1 462.96-4.7 463.71-4.3 464.61-4.3L464.61-4.3Q465.46-4.3 466.19-4.7 466.91-5.1 467.36-5.88 467.81-6.65 467.81-7.65L467.81-7.65 467.81-25.5 473.56-25.5 473.56-8.55Q473.56-5.4 472.36-3.38 471.16-1.35 469.11-0.38 467.06 0.6 464.61 0.6L464.61 0.6Q462.16 0.6 460.11-0.38 458.06-1.35 456.81-3.38 455.56-5.4 455.56-8.55L455.56-8.55 455.56-17.85Q455.56-18.95 455.14-19.68 454.71-20.4 453.99-20.8 453.26-21.2 452.36-21.2L452.36-21.2Q451.56-21.2 450.81-20.8 450.06-20.4 449.61-19.68 449.16-18.95 449.16-17.85L449.16-17.85 449.16-8.55Q449.16-5.4 447.94-3.38 446.71-1.35 444.69-0.38 442.66 0.6 440.21 0.6ZM486.21 0L480.46 0 480.46-25.5 486.21-25.5 486.21 0ZM483.31-29.05L483.31-29.05Q481.81-29.05 480.71-30.15 479.61-31.25 479.61-32.75L479.61-32.75Q479.61-34.25 480.71-35.35 481.81-36.45 483.31-36.45L483.31-36.45Q484.86-36.45 485.93-35.35 487.01-34.25 487.01-32.75L487.01-32.75Q487.01-31.25 485.93-30.15 484.86-29.05 483.31-29.05ZM498.86 0L493.11 0 493.11-36.5 498.86-36.5 498.86 0ZM511.5 0L505.75 0 505.75-36.5 511.5-36.5 511.5 0ZM547.05 0L543.95 0Q540 0 536.9-1.7 533.8-3.4 532-6.28 530.2-9.15 530.2-12.75L530.2-12.75Q530.2-16.35 532-19.23 533.8-22.1 536.9-23.8 540-25.5 543.95-25.5L543.95-25.5 547.05-25.5 547.05-20.6 543.85-20.6Q541.55-20.6 539.77-19.58 538-18.55 537-16.75 536-14.95 536-12.75L536-12.75Q536-10.55 537-8.75 538-6.95 539.77-5.93 541.55-4.9 543.85-4.9L543.85-4.9 547.05-4.9 547.05 0ZM557.59 0L551.84 0 551.84-18.25Q551.84-21.65 553.77-23.58 555.69-25.5 559.09-25.5L559.09-25.5 565.24-25.5 565.24-20.6 560.14-20.6Q558.94-20.6 558.27-19.9 557.59-19.2 557.59-18L557.59-18 557.59 0ZM588.99 0L582.14 0Q577.84 0 574.62-1.63 571.39-3.25 569.59-6.13 567.79-9 567.79-12.75L567.79-12.75Q567.79-16.7 569.39-19.7 570.99-22.7 573.79-24.4 576.59-26.1 580.24-26.1L580.24-26.1Q584.34-26.1 586.99-24.35 589.64-22.6 590.92-19.65 592.19-16.7 592.19-13.05L592.19-13.05Q592.19-12.55 592.14-11.9 592.09-11.25 591.99-10.9L591.99-10.9 573.89-10.9Q574.19-8.9 575.34-7.58 576.49-6.25 578.24-5.58 579.99-4.9 582.14-4.9L582.14-4.9 588.99-4.9 588.99 0ZM573.84-14.8L573.84-14.8 586.44-14.8Q586.39-15.75 586.17-16.7 585.94-17.65 585.47-18.5 584.99-19.35 584.27-19.98 583.54-20.6 582.54-20.98 581.54-21.35 580.24-21.35L580.24-21.35Q578.74-21.35 577.59-20.78 576.44-20.2 575.64-19.28 574.84-18.35 574.42-17.18 573.99-16 573.84-14.8ZM607.89 0.6L607.89 0.6Q604.24 0.6 601.59-1.2 598.94-3 597.51-6.03 596.09-9.05 596.09-12.7L596.09-12.7Q596.09-16.5 597.71-19.53 599.34-22.55 602.36-24.33 605.39-26.1 609.59-26.1L609.59-26.1Q613.74-26.1 616.66-24.33 619.59-22.55 621.16-19.53 622.74-16.5 622.74-12.8L622.74-12.8 622.74 0 616.99 0 616.99-4.75 616.89-4.75Q616.14-3.35 614.94-2.13 613.74-0.9 611.99-0.15 610.24 0.6 607.89 0.6ZM609.44-4.3L609.44-4.3Q611.69-4.3 613.36-5.43 615.04-6.55 615.99-8.47 616.94-10.4 616.89-12.8L616.89-12.8Q616.89-15.2 615.99-17.07 615.09-18.95 613.44-20.08 611.79-21.2 609.49-21.2L609.49-21.2Q607.09-21.2 605.39-20.08 603.69-18.95 602.79-17.05 601.89-15.15 601.89-12.75L601.89-12.75Q601.89-10.4 602.79-8.47 603.69-6.55 605.36-5.43 607.04-4.3 609.44-4.3ZM644.79 0L638.44 0Q635.04 0 633.11-1.95 631.19-3.9 631.19-7.25L631.19-7.25 631.19-31.9 636.89-31.9 636.89-7.5Q636.89-6.35 637.59-5.63 638.29-4.9 639.44-4.9L639.44-4.9 644.79-4.9 644.79 0ZM644.84-20.6L626.79-20.6 626.79-25.5 644.84-25.5 644.84-20.6ZM669.08 0L662.23 0Q657.93 0 654.71-1.63 651.48-3.25 649.68-6.13 647.88-9 647.88-12.75L647.88-12.75Q647.88-16.7 649.48-19.7 651.08-22.7 653.88-24.4 656.68-26.1 660.33-26.1L660.33-26.1Q664.43-26.1 667.08-24.35 669.73-22.6 671.01-19.65 672.28-16.7 672.28-13.05L672.28-13.05Q672.28-12.55 672.23-11.9 672.18-11.25 672.08-10.9L672.08-10.9 653.98-10.9Q654.28-8.9 655.43-7.58 656.58-6.25 658.33-5.58 660.08-4.9 662.23-4.9L662.23-4.9 669.08-4.9 669.08 0ZM653.93-14.8L653.93-14.8 666.53-14.8Q666.48-15.75 666.26-16.7 666.03-17.65 665.56-18.5 665.08-19.35 664.36-19.98 663.63-20.6 662.63-20.98 661.63-21.35 660.33-21.35L660.33-21.35Q658.83-21.35 657.68-20.78 656.53-20.2 655.73-19.28 654.93-18.35 654.51-17.18 654.08-16 653.93-14.8ZM680.13 0.55L680.13 0.55Q678.48 0.55 677.31-0.63 676.13-1.8 676.13-3.45L676.13-3.45Q676.13-5.05 677.31-6.23 678.48-7.4 680.13-7.4L680.13-7.4Q681.73-7.4 682.91-6.23 684.08-5.05 684.08-3.45L684.08-3.45Q684.08-2.35 683.56-1.43 683.03-0.5 682.13 0.03 681.23 0.55 680.13 0.55Z" opacity="1" transform="matrix(1,0,0,1,0,0)" fill="#000000" class="slogan-text-1" data-fill-palette-color="secondary" id="text-1"></path></svg></g></svg></g></svg></g></svg></g><g><svg viewBox="0 0 131.11870789632167 163.74054168228602" height="163.74054168228602" width="131.11870789632167"><g><svg xmlns="http://www.w3.org/2000/svg" xmlns:xlink="http://www.w3.org/1999/xlink" version="1.0" x="0" y="0" viewBox="15.3186149770807 5.506876686966101 71.70884022026621 89.54972581303389" enable-background="new 0 0 100 100" xml:space="preserve" height="163.74054168228602" width="131.11870789632167" class="icon-icon-0" data-fill-palette-color="accent" id="icon-0"><path d="M76.14 54.436c6.345-4.808 10.495-11.811 10.861-19.651C87.733 19.211 73.455 6.04 55.151 5.518 37.701 5.1 22.935 16.807 22.081 31.754c-0.122 2.195 0 4.39 0.488 6.48 0.244 0.941 0 1.986-0.61 2.822-1.586 2.509-5.003 7.839-6.467 12.23-0.976 3.031 2.196 3.136 9.03 3.345l0.732 9.616c0.122 6.899 4.149 9.93 12.691 8.989l2.44-0.104c1.342-0.105 2.441 0.836 2.319 1.986l5.394 17.939 31.639-11.444c0 0-5.794-13.394-6.282-18.411C71.885 58.235 76.14 54.436 76.14 54.436zM71.357 48.799c-10.063 8.798-16.869-0.4-16.87-0.4-1.487 0.972-3.488 0.743-5.203 0.514-1.944-0.229-3.888-0.972-5.089-2.573-0.629-0.858-0.972-1.83-1.087-2.859-5.09 2.001-12.409 0.572-14.753-4.746-1.773-3.946-1.029-11.437 3.259-13.724 0.343-2.516 1.029-4.746 3.145-6.405 2.116-1.601 4.689-2.516 7.377-2.344 3.66-4.232 10.808-4.746 15.782-2.631 2.745-1.315 5.604-1.144 8.464 0.115 3.202 1.372 5.318 3.088 6.404 5.889 5.204 2.173 7.606 7.319 6.977 12.981-0.229 2.173-0.686 4.289-1.945 5.947C78.218 43.252 75.531 47.255 71.357 48.799z" fill="#000000" data-fill-palette-color="accent"></path><path d="M62.485 36.056c-0.951-0.633-2.232-0.375-2.863 0.574-0.187 0.277-0.288 0.582-0.325 0.893l-0.004-0.004-0.514 4.096 3.576-2.055c0.273-0.153 0.517-0.364 0.701-0.641C63.688 37.969 63.432 36.688 62.485 36.056z" fill="#000000" data-fill-palette-color="accent"></path><path d="M64.095 33.679c1.004 0.676 2.365 0.409 3.041-0.595 0.677-1.005 5.104-9.336 4.101-10.012-1.005-0.675-7.059 6.56-7.735 7.565C62.826 31.641 63.092 33.002 64.095 33.679z" fill="#000000" data-fill-palette-color="accent"></path><path d="M58.249 32.148c3.363-0.826 6-3.817 4.353-8.12-1.645-4.304-11.326-10.461-17.067-2.576-5.744 7.881-2.034 19.297 2.31 20.321 4.35 1.03 5.893-2.419 5.703-4.994C53.548 36.779 53.322 33.352 58.249 32.148zM48.731 27.376c-0.649-0.659-0.706-1.646-0.135-2.208 0.571-0.562 1.555-0.49 2.205 0.17 0.649 0.659 0.712 1.649 0.14 2.212C50.371 28.112 49.381 28.035 48.731 27.376zM55.241 26.836c-0.974-0.989-1.031-2.506-0.13-3.393 0.899-0.885 2.416-0.806 3.389 0.182 0.973 0.988 1.03 2.505 0.131 3.391C57.73 27.903 56.214 27.824 55.241 26.836z" fill="#000000" data-fill-palette-color="accent"></path></svg></g></svg></g></svg></g><defs></defs></svg><rect width="395.5199999999999" height="112.77041267680409" fill="none" stroke="none" visibility="hidden"></rect></g></svg></g></svg>