<?xml version="1.0" standalone="no"?>
<!DOCTYPE svg PUBLIC "-//W3C//DTD SVG 20010904//EN"
 "http://www.w3.org/TR/2001/REC-SVG-20010904/DTD/svg10.dtd">
<svg version="1.0" xmlns="http://www.w3.org/2000/svg"
 width="564.000000pt" height="736.000000pt" viewBox="0 0 564.000000 736.000000"
 preserveAspectRatio="xMidYMid meet">

<g transform="translate(0.000000,736.000000) scale(0.100000,-0.100000)"
fill="#000000" stroke="none">
<path d="M2515 6953 c-4 -13 -12 -23 -19 -24 -6 0 -19 -2 -28 -4 -13 -2 -18 3
-18 17 0 17 -3 18 -15 8 -8 -7 -15 -9 -15 -4 0 5 -6 -2 -13 -15 -16 -32 -37
-39 -37 -12 0 30 -18 26 -26 -6 -6 -23 -8 -24 -19 -10 -18 25 -25 21 -12 -7 7
-13 16 -22 21 -19 5 3 7 0 4 -7 -7 -23 -28 -23 -28 -1 0 19 -2 19 -27 8 -28
-11 -35 -18 -52 -47 -8 -12 -12 -12 -25 -1 -10 9 -16 10 -16 2 0 -6 -18 -19
-39 -29 l-39 -19 -11 23 c-6 13 -17 24 -26 24 -18 0 -20 -17 -3 -22 9 -3 8 -9
-4 -21 -22 -23 -31 -21 -25 3 5 21 -7 28 -18 10 -3 -5 -15 -10 -26 -10 -16 0
-25 -19 -16 -35 8 -14 -42 -31 -89 -30 -33 1 -50 -2 -42 -6 10 -6 10 -9 1 -9
-7 0 -17 -15 -22 -32 -5 -18 -10 -25 -10 -15 -1 10 -9 17 -21 17 -21 0 -27
-14 -11 -25 12 -7 -35 -55 -53 -55 -16 0 -29 -27 -20 -41 3 -5 0 -9 -5 -9 -6
0 -11 5 -11 10 0 6 -4 10 -10 10 -5 0 -9 -3 -9 -7 3 -20 -2 -26 -11 -13 -8 12
-11 11 -16 -8 -5 -17 -12 -22 -25 -19 -21 6 -27 -9 -7 -15 13 -5 -25 -48 -42
-48 -5 0 -10 -7 -10 -15 0 -8 -7 -15 -15 -15 -13 0 -14 -4 -5 -20 7 -14 7 -20
0 -20 -5 0 -10 5 -10 12 0 6 -9 3 -20 -7 -11 -10 -20 -28 -20 -39 0 -22 -16
-54 -23 -46 -2 3 -9 13 -14 24 -9 16 -11 14 -17 -19 -5 -22 -18 -46 -32 -57
-26 -21 -32 -48 -11 -49 6 0 1 -4 -11 -10 -13 -5 -27 -7 -32 -4 -4 2 -10 -14
-13 -38 -4 -23 -15 -60 -27 -82 -11 -21 -20 -47 -20 -56 0 -10 -6 -20 -12 -22
-10 -4 -10 -6 0 -6 6 -1 12 -6 12 -12 0 -5 -4 -8 -9 -4 -5 3 -12 -4 -16 -15
-8 -26 -29 -26 -22 0 3 11 1 20 -5 20 -12 0 -1 -70 13 -84 12 -13 12 -59 0
-52 -5 3 -7 16 -3 28 5 21 5 21 -21 2 -30 -21 -34 -34 -12 -34 8 0 15 -4 15
-10 0 -5 -4 -10 -10 -10 -5 0 -10 -13 -10 -29 0 -16 -7 -37 -16 -45 -12 -12
-12 -16 -2 -16 10 0 9 -3 -2 -10 -8 -5 -11 -12 -7 -16 3 -4 -5 -20 -18 -36
-26 -30 -36 -63 -13 -40 16 16 25 15 31 -2 4 -11 1 -13 -11 -9 -15 6 -16 5 -2
-12 14 -17 13 -18 -2 -12 -12 4 -18 2 -18 -7 0 -8 5 -16 12 -18 7 -3 8 -10 4
-17 -7 -11 -10 -11 -17 0 -14 23 -24 -1 -12 -31 6 -16 8 -30 3 -32 -4 -2 -10
-16 -14 -31 -6 -26 -5 -27 14 -17 21 11 21 11 5 -20 -9 -17 -15 -36 -14 -43 3
-27 -2 -46 -17 -62 -9 -8 -13 -23 -10 -32 4 -8 2 -21 -4 -28 -5 -7 -13 -46
-16 -88 -5 -58 -10 -74 -20 -70 -10 4 -14 -3 -14 -21 0 -18 7 -29 22 -35 14
-5 17 -10 10 -15 -7 -4 -9 -20 -6 -39 l5 -32 -15 30 c-15 29 -15 27 -11 -47 3
-66 1 -78 -12 -78 -11 0 -14 7 -11 25 3 14 1 25 -3 25 -5 0 -9 -9 -9 -20 0
-11 -4 -20 -9 -20 -5 0 -11 -9 -14 -21 -5 -17 -3 -18 9 -8 11 9 18 9 26 1 9
-9 9 -12 0 -12 -7 0 -12 -7 -12 -15 0 -8 6 -12 13 -9 11 4 13 -7 9 -48 -2 -29
-8 -58 -14 -65 -5 -6 -8 -19 -6 -29 2 -9 -3 -19 -9 -21 -8 -3 -13 5 -13 20 0
14 6 27 13 30 8 3 1 15 -19 36 l-31 31 12 -55 c7 -29 10 -56 7 -59 -3 -3 0 -6
6 -6 15 0 15 -55 0 -83 -6 -12 -11 -39 -9 -59 3 -48 -6 -78 -25 -78 -8 0 -12
-5 -9 -10 9 -15 -5 -90 -16 -90 -5 0 -9 8 -9 18 0 13 -2 14 -9 3 -13 -21 -6
-46 13 -43 11 2 16 -5 16 -23 0 -17 4 -24 12 -19 7 4 8 3 4 -5 -6 -9 -11 -9
-22 0 -8 6 -18 8 -22 4 -4 -4 -1 -10 6 -12 14 -5 17 -33 3 -33 -13 0 -20 -49
-7 -53 8 -3 7 -8 -2 -19 -9 -12 -10 -27 -3 -59 6 -28 6 -48 0 -53 -5 -6 -9 -1
-10 15 -1 20 -2 21 -6 4 -3 -11 -10 -23 -16 -26 -6 -4 -7 -15 -2 -25 5 -11 7
-22 7 -26 -1 -5 4 -8 12 -8 25 0 26 -15 5 -54 -11 -21 -17 -41 -13 -45 4 -3 9
0 11 7 8 22 25 13 17 -10 -4 -13 -7 -35 -6 -50 1 -15 -2 -29 -8 -33 -5 -3 -10
0 -11 7 0 7 -4 4 -8 -7 -5 -12 -4 -26 3 -34 8 -11 8 -13 -1 -7 -19 11 -16 -22
3 -41 8 -9 13 -21 10 -29 -3 -7 0 -14 6 -16 7 -3 7 -18 0 -48 -7 -32 -10 -38
-12 -20 l-2 25 -7 -25 c-5 -14 -5 -31 -1 -38 4 -7 1 -34 -6 -60 -8 -32 -8 -53
-2 -66 6 -10 6 -21 2 -25 -14 -10 -16 -74 -2 -82 9 -6 9 -11 -2 -23 -11 -14
-10 -16 4 -10 13 5 16 0 15 -22 0 -25 -1 -26 -9 -9 -10 23 -10 23 -16 -24 -2
-19 -9 -40 -15 -47 -6 -7 -12 -38 -13 -67 -2 -30 -6 -59 -9 -64 -4 -6 -9 -30
-11 -53 -2 -23 -8 -45 -13 -49 -6 -3 -9 -21 -8 -39 1 -21 -3 -36 -12 -39 -7
-3 -13 -17 -13 -32 0 -14 -6 -37 -13 -51 -13 -24 -22 -62 -32 -132 -3 -15 0
-30 6 -33 6 -5 6 -12 -2 -21 -7 -9 -12 -37 -11 -65 1 -34 -3 -47 -10 -43 -8 5
-9 1 -3 -12 14 -34 13 -107 -1 -122 -16 -16 -19 -88 -4 -97 15 -9 0 -27 -17
-21 -12 5 -13 0 -8 -26 6 -26 5 -30 -9 -25 -10 4 -16 1 -16 -8 0 -8 -6 -15
-12 -15 -8 -1 -6 -6 5 -14 18 -14 17 -14 -2 -21 -12 -3 -21 -11 -21 -16 0 -6
4 -8 9 -4 5 3 12 1 16 -5 3 -5 -3 -10 -14 -10 -12 0 -21 -6 -21 -14 0 -7 -11
-25 -25 -40 -13 -14 -27 -43 -31 -64 -9 -46 -42 -124 -56 -133 -18 -11 -39
-82 -28 -93 7 -7 10 -5 11 4 0 8 4 5 10 -8 7 -18 4 -30 -9 -47 -9 -14 -20 -25
-25 -25 -4 0 -4 -18 -1 -40 4 -24 2 -45 -5 -54 -6 -7 -9 -20 -5 -29 3 -8 1
-18 -5 -22 -14 -8 -14 -52 -1 -60 13 -8 13 -25 0 -25 -5 0 -10 7 -10 16 0 8
-4 12 -10 9 -6 -3 -10 -17 -10 -30 0 -13 -6 -28 -12 -32 -20 -13 -18 -43 2
-43 11 0 20 10 24 26 6 21 12 25 38 22 24 -2 32 2 39 20 8 20 7 21 -12 12 -18
-10 -19 -10 -7 9 7 11 21 21 33 23 18 3 20 9 17 60 -3 37 0 58 7 58 6 0 11 8
11 18 0 9 9 28 20 42 11 14 20 33 20 42 0 9 5 20 10 23 6 4 8 10 5 15 -3 5 3
15 13 22 11 7 28 27 38 44 17 27 52 71 121 151 13 15 23 19 30 12 11 -11 46
-1 38 10 -2 4 2 19 9 33 7 14 12 39 11 56 -2 18 1 29 6 27 8 -5 18 4 44 40 12
17 14 17 15 3 0 -9 -11 -30 -25 -46 -15 -19 -21 -33 -15 -37 12 -7 59 44 60
65 0 21 86 116 91 101 3 -7 18 2 39 23 19 20 40 36 47 36 7 0 17 9 23 20 12
22 45 16 36 -6 -6 -16 29 -20 39 -4 3 5 12 7 20 3 8 -3 15 0 15 6 0 6 -4 11
-9 11 -20 0 -19 41 2 61 22 21 68 22 137 4 22 -6 21 -4 -7 15 -31 21 -36 40
-10 40 7 0 18 14 25 30 8 17 20 30 27 30 8 0 22 14 32 30 21 36 37 39 29 5 -9
-34 8 -32 45 6 21 21 35 29 47 24 30 -13 73 -11 85 4 10 11 4 13 -30 10 -40
-4 -40 -4 -22 16 79 86 81 87 105 81 14 -4 24 -2 24 4 0 7 8 9 20 5 17 -5 20
-2 20 24 0 16 5 33 10 36 6 3 10 -3 10 -15 0 -12 4 -19 9 -16 5 4 11 2 13 -2
1 -5 30 -15 63 -24 33 -9 70 -19 83 -23 18 -6 21 -4 16 9 -3 9 -1 23 6 31 6 8
9 18 6 23 -3 6 0 15 8 21 11 9 15 7 19 -10 6 -21 27 -18 27 4 1 18 50 52 50
35 0 -17 40 -21 40 -5 0 7 7 21 15 31 15 20 15 20 29 0 16 -22 30 -13 31 19 0
18 5 21 27 19 14 -2 29 2 33 8 6 9 10 9 16 -1 8 -12 10 -12 18 -1 6 10 10 8
14 -8 8 -31 33 -20 29 13 -2 15 1 27 6 27 5 0 9 -7 8 -16 0 -9 5 -19 12 -21 6
-3 12 3 13 14 0 17 1 17 8 -1 7 -18 8 -18 14 -3 9 25 36 22 30 -3 -4 -14 0
-20 10 -20 9 0 18 -8 20 -17 4 -14 5 -12 6 5 0 12 6 22 11 22 6 0 10 5 10 11
0 6 -6 9 -14 6 -17 -7 -25 10 -18 36 3 10 14 17 29 17 14 0 21 4 18 10 -3 6
-17 7 -29 4 -18 -4 -25 -1 -29 16 -4 18 -3 19 9 9 12 -10 17 -8 28 7 8 10 12
23 9 27 -3 5 0 20 8 33 7 13 10 26 7 29 -11 11 -37 -7 -41 -28 -3 -18 -5 -17
-6 6 -1 21 5 30 23 37 13 5 27 13 31 19 3 7 0 8 -9 5 -19 -7 -21 9 -4 36 9 15
9 24 -1 43 -7 14 -11 31 -8 39 4 9 6 7 6 -4 1 -10 7 -18 15 -18 8 0 16 -6 19
-12 2 -7 7 3 12 22 4 19 13 38 19 42 8 6 7 8 -1 8 -7 0 -13 5 -13 10 0 6 7 10
15 10 8 0 15 -6 15 -14 0 -7 9 -16 20 -19 11 -3 20 -10 20 -17 0 -6 -4 -8 -10
-5 -5 3 -10 -1 -10 -9 0 -20 24 -21 40 -1 7 9 21 13 31 10 14 -5 19 -1 20 12
0 16 1 16 8 -2 5 -11 7 -35 6 -52 -2 -41 2 -41 20 0 l14 32 1 -29 c0 -23 3
-26 13 -17 17 13 28 5 20 -15 -3 -8 -2 -14 3 -13 19 4 74 -24 74 -38 0 -8 4
-11 10 -8 5 3 20 0 32 -7 28 -15 50 -19 43 -8 -3 5 -1 11 5 15 5 3 10 -3 10
-14 0 -10 6 -21 13 -24 10 -4 10 -7 0 -18 -7 -7 -13 -22 -13 -32 0 -17 2 -18
16 -6 24 20 63 11 97 -22 16 -16 33 -26 39 -23 6 4 6 -2 -1 -14 -14 -26 -14
-32 -1 -32 6 0 15 10 20 23 l9 22 7 -23 c5 -17 12 -22 25 -19 24 6 24 -2 2
-19 -10 -7 -14 -16 -9 -21 5 -4 11 -3 13 4 5 14 27 7 68 -21 16 -12 35 -20 42
-18 6 1 14 -11 18 -28 7 -34 32 -51 45 -30 5 8 9 9 14 1 4 -6 2 -11 -4 -11 -6
0 -9 -4 -6 -9 3 -4 -7 -6 -22 -4 l-27 5 25 -21 c14 -11 27 -18 29 -15 9 8 30
-18 24 -32 -3 -8 1 -14 11 -14 10 0 16 -8 15 -22 -1 -17 -2 -19 -6 -5 -2 9 -9
17 -14 17 -13 0 -11 -13 7 -38 9 -13 14 -25 11 -28 -8 -9 -36 8 -40 24 -4 15
-5 14 -6 -1 0 -10 4 -27 9 -38 9 -16 7 -19 -11 -19 -20 0 -21 -3 -15 -54 6
-51 5 -54 -14 -49 -15 4 -20 0 -20 -15 0 -12 5 -24 11 -27 7 -5 3 -14 -11 -27
-11 -11 -23 -33 -27 -49 -4 -19 -10 -28 -19 -25 -20 8 -37 -19 -20 -33 10 -9
16 -8 26 4 7 8 19 15 27 15 11 0 10 -7 -7 -30 -14 -19 -26 -27 -37 -23 -11 4
-14 2 -11 -8 3 -8 16 -13 31 -11 32 3 41 -11 26 -39 -6 -12 -7 -24 -3 -28 15
-11 34 -50 34 -71 0 -11 4 -20 10 -20 5 0 9 3 9 8 -4 26 2 41 17 35 13 -5 15
0 12 23 -2 23 1 28 14 26 9 -1 22 7 29 20 7 13 15 25 18 28 11 10 31 50 31 64
0 12 20 26 36 26 2 0 4 -22 4 -50 0 -30 -4 -50 -11 -50 -8 0 -8 -4 0 -14 7 -8
11 -30 9 -50 -1 -19 1 -38 5 -42 4 -4 7 5 7 19 0 15 5 27 10 27 6 0 10 -13 10
-29 0 -17 5 -33 12 -37 7 -5 4 -10 -10 -15 -27 -10 -31 -54 -4 -56 9 -1 24 -3
32 -5 11 -2 14 4 12 25 -2 15 1 27 7 27 6 0 11 -7 11 -15 0 -9 16 -31 35 -49
19 -19 35 -40 35 -48 0 -7 14 -19 30 -25 18 -7 30 -18 30 -30 0 -10 9 -24 20
-31 23 -14 23 -13 9 48 -12 54 -67 170 -80 170 -5 0 -9 7 -9 15 0 7 -6 18 -12
22 -7 4 -21 25 -30 45 -10 21 -22 38 -27 38 -5 0 -12 16 -16 36 -3 21 -13 47
-21 60 -17 26 -21 137 -5 142 5 2 8 9 6 15 -3 7 2 20 10 31 13 18 15 18 52 -5
21 -13 55 -32 76 -41 20 -9 40 -24 43 -33 3 -8 13 -15 22 -15 9 0 25 -8 36
-19 28 -25 66 -36 66 -19 1 7 7 2 14 -11 13 -23 14 -22 31 35 9 32 28 85 41
117 16 38 21 67 17 87 -3 19 -1 30 6 31 6 1 16 2 21 3 6 0 10 6 9 11 -1 6 -5
9 -10 8 -5 -2 -9 4 -9 12 0 8 5 15 10 15 6 0 10 14 10 30 0 17 5 30 11 30 7 0
9 10 7 25 -3 14 -2 25 2 25 5 0 6 9 3 21 -3 12 -1 24 5 28 6 4 13 16 15 26 1
11 6 25 9 31 4 6 5 36 2 68 -3 45 -1 58 11 63 9 3 14 12 11 19 -3 8 0 14 7 14
7 0 23 9 36 19 23 18 23 18 3 23 -14 4 -19 2 -16 -7 3 -7 -2 -15 -11 -19 -19
-7 -35 0 -35 15 0 6 4 8 9 5 5 -3 8 0 7 7 0 6 2 12 6 12 3 0 16 13 28 28 15
19 19 32 12 39 -6 6 -12 6 -16 -1 -4 -6 -13 -11 -19 -11 -7 1 6 17 28 36 24
21 35 38 28 40 -7 3 -9 12 -6 21 4 11 2 14 -8 11 -8 -3 -14 -11 -15 -19 -2
-23 -15 -49 -26 -49 -21 0 -63 66 -48 75 5 3 14 -3 20 -12 11 -17 11 -17 6 0
-3 10 -6 23 -6 29 0 6 -7 8 -15 4 -30 -11 -15 26 26 66 33 32 43 37 55 27 16
-13 19 -33 3 -24 -5 4 -19 -4 -30 -16 -25 -29 -9 -38 26 -15 13 9 31 16 39 16
18 0 35 29 29 48 -7 19 -20 14 -27 -10 -4 -16 -8 -20 -16 -12 -20 20 1 43 46
50 24 3 44 11 44 16 0 6 13 7 31 3 22 -5 29 -4 25 4 -9 14 -73 15 -81 1 -3 -5
-14 -10 -23 -10 -24 1 45 36 85 43 26 5 31 3 26 -8 -7 -19 2 -19 22 1 13 13
18 14 32 3 14 -12 15 -11 9 8 -5 17 -1 24 24 36 16 9 30 11 30 6 0 -5 7 -9 15
-9 8 0 15 5 15 10 0 6 -5 10 -11 10 -5 0 -8 4 -4 10 3 5 13 6 23 3 9 -3 14 -3
11 1 -4 4 6 20 22 36 31 31 39 70 14 70 -8 0 -15 -5 -15 -11 0 -6 -8 -8 -19
-4 -11 3 -22 1 -26 -5 -4 -6 -15 -8 -26 -5 -11 4 -19 2 -19 -4 0 -6 -13 -11
-30 -11 -16 0 -30 -4 -30 -10 0 -5 -7 -10 -15 -10 -8 0 -15 4 -15 9 0 5 -18 8
-40 6 -29 -3 -43 1 -51 13 -10 16 -10 16 -5 0 6 -19 -9 -25 -19 -8 -3 6 -17 7
-31 4 -16 -4 -26 -1 -30 9 -4 12 -19 15 -60 13 -29 -1 -57 -5 -60 -9 -12 -11
-21 -8 -28 9 -3 8 -2 12 3 9 5 -3 13 0 17 6 5 9 -2 10 -26 6 -30 -7 -32 -5
-28 18 3 13 1 22 -3 19 -5 -3 -9 -11 -9 -18 0 -8 -10 -16 -22 -20 -36 -9 -41
-7 -24 10 20 20 21 35 1 28 -10 -4 -15 0 -15 15 0 16 -6 21 -26 21 -22 0 -25
-2 -14 -15 11 -13 8 -15 -14 -15 -18 0 -26 5 -26 18 0 10 -13 23 -31 31 -28
12 -29 15 -14 24 12 7 20 5 26 -4 12 -19 22 -4 14 21 -5 15 -12 19 -23 14 -10
-4 -25 -7 -34 -8 -10 0 -18 -8 -18 -18 0 -10 -4 -18 -9 -18 -4 0 -7 14 -5 32
l4 31 -19 -22 c-14 -16 -21 -18 -24 -9 -4 10 -8 10 -16 -2 -6 -8 -11 -13 -12
-10 -6 32 -4 58 5 69 9 12 7 13 -9 7 -52 -21 -56 -20 -49 9 5 20 4 26 -5 21
-6 -4 -11 -2 -11 3 0 6 5 11 10 11 6 0 10 5 10 10 0 15 -17 12 -35 -7 -14 -14
-18 -14 -26 -2 -8 12 -10 12 -19 -1 -8 -13 -10 -13 -10 1 0 19 27 34 32 18 2
-5 13 -1 25 10 11 11 23 18 26 15 2 -2 10 3 17 11 12 14 10 15 -13 10 -22 -6
-26 -4 -21 9 3 9 1 23 -6 31 -7 8 -9 22 -6 31 4 10 1 14 -6 12 -7 -3 -15 -13
-17 -24 -4 -22 -21 -35 -34 -27 -4 3 -2 12 6 21 23 25 27 82 6 82 -6 0 -9 -6
-6 -14 3 -8 -2 -16 -14 -19 -16 -4 -17 -2 -7 16 6 11 12 46 13 77 2 32 8 67
15 79 6 12 9 27 7 34 -6 15 -41 -62 -39 -86 1 -15 -2 -16 -14 -6 -8 6 -18 9
-22 5 -4 -4 1 -13 11 -21 16 -11 16 -13 1 -19 -23 -9 -24 -8 -24 24 0 22 5 30
18 31 10 0 12 3 5 6 -7 2 -13 14 -13 25 0 14 -5 18 -16 14 -12 -5 -15 -2 -10
10 3 8 6 18 6 20 0 2 7 4 15 4 8 0 15 -4 15 -10 0 -5 5 -10 10 -10 6 0 10 7
10 15 0 9 -9 15 -25 15 -22 0 -24 4 -21 31 2 17 -3 36 -11 45 -9 8 -12 22 -8
35 11 33 -18 18 -30 -15 -7 -21 -6 -29 5 -36 9 -6 17 -5 22 3 5 8 8 6 8 -5 0
-11 -8 -18 -20 -18 -11 0 -20 5 -20 12 0 6 -10 3 -22 -8 -20 -17 -21 -17 -9
-1 8 10 15 30 16 45 1 15 5 38 10 51 6 19 4 23 -8 18 -9 -3 -18 -1 -21 6 -3 7
-3 2 0 -10 3 -13 2 -23 -2 -23 -13 0 -44 43 -44 61 0 10 -4 21 -10 24 -5 3
-11 16 -11 28 -1 20 -2 20 -6 3 -3 -11 -11 -26 -19 -34 -12 -11 -14 -11 -14 2
0 9 5 16 10 16 6 0 10 5 10 10 0 6 -9 10 -21 10 -11 0 -18 -4 -15 -9 9 -14
-26 -23 -38 -11 -8 8 -6 9 7 5 10 -4 17 -2 17 4 0 6 -12 11 -26 11 -31 0 -22
20 9 21 21 0 21 1 2 8 -11 4 -20 17 -20 27 0 27 -41 31 -57 5 -16 -26 -32 -28
-18 -2 21 41 0 58 -44 36 -29 -16 -35 -9 -8 11 13 10 14 15 5 25 -8 8 -9 18
-2 31 6 12 6 18 0 18 -12 0 -33 -35 -25 -42 3 -3 -2 -8 -10 -11 -11 -4 -13 -1
-9 10 5 12 2 15 -10 10 -11 -4 -17 -1 -17 8 0 8 9 15 20 15 16 0 20 7 20 31 0
29 -2 30 -31 24 -24 -6 -30 -4 -27 9 2 8 -6 22 -17 31 -11 8 -15 15 -10 14 36
-5 43 2 50 51 4 28 9 50 12 50 8 0 29 -24 36 -40 5 -13 6 -13 6 1 1 8 -5 21
-11 28 -11 11 -10 13 5 8 19 -7 24 9 5 16 -7 3 16 2 52 0 36 -3 75 -12 88 -20
14 -8 28 -11 35 -6 15 11 75 9 101 -2 13 -6 21 -4 24 3 5 16 35 15 51 0 11
-10 14 -10 18 0 6 15 34 16 31 1 -2 -6 3 -14 10 -16 7 -3 12 4 12 16 0 12 5
21 10 21 6 0 10 -10 10 -22 l0 -23 18 21 c19 24 70 45 57 24 -5 -8 -3 -11 6
-8 8 3 14 11 14 19 0 10 -15 14 -60 15 -54 1 -99 7 -148 20 -19 6 -13 26 6 23
41 -5 50 1 44 31 -4 19 -2 30 5 30 6 0 24 -13 40 -30 40 -42 94 -42 137 1 17
17 31 40 31 52 1 65 26 86 50 42 7 -14 19 -25 27 -25 7 0 13 -7 13 -15 0 -8
-5 -15 -12 -15 -6 0 -9 -2 -6 -5 2 -3 19 0 36 6 33 11 42 35 21 56 -9 9 -9 20
1 43 8 19 9 35 4 38 -5 4 -18 18 -29 31 -19 23 -19 24 -1 17 15 -5 17 -4 7 8
-13 16 -61 28 -61 15 0 -5 -4 -9 -9 -9 -5 0 -7 10 -5 23 2 12 2 16 -2 10 -3
-7 -10 -13 -16 -13 -5 0 -21 -9 -35 -20 -14 -11 -32 -20 -39 -20 -7 0 -25 -5
-41 -12 -15 -6 -32 -10 -37 -9 -4 1 -19 -5 -32 -14 -15 -9 -25 -11 -29 -4 -4
5 -15 7 -26 4 -13 -4 -19 -2 -19 9 0 17 -12 21 -24 9 -4 -4 -21 -8 -39 -9 -17
-1 -37 -10 -44 -20 -9 -12 -28 -18 -63 -19 -27 -1 -50 2 -50 7 0 5 -8 8 -17 6
-25 -4 -30 32 -5 39 11 2 30 24 42 48 14 27 31 46 46 49 13 4 24 12 24 20 0 7
6 13 13 14 6 0 32 8 55 17 34 12 52 13 80 5 27 -7 38 -6 45 3 7 9 10 9 14 0 3
-8 14 -11 30 -7 16 4 28 2 34 -7 4 -8 12 -14 16 -14 4 -1 17 -6 28 -12 22 -11
53 -11 73 1 8 5 12 0 12 -15 0 -18 3 -20 12 -11 15 15 42 16 33 1 -5 -7 6 -9
32 -5 l38 5 -40 -13 -39 -13 32 -11 c19 -6 32 -7 32 -1 0 5 5 9 10 9 6 0 10
-9 10 -19 0 -10 6 -21 14 -24 9 -4 12 -14 9 -26 -4 -15 -1 -21 11 -21 9 0 22
-11 28 -25 6 -14 17 -25 24 -25 7 0 16 -16 20 -35 3 -19 10 -32 15 -29 13 8
41 -64 34 -86 -3 -10 0 -22 7 -26 6 -4 14 -2 16 4 7 22 27 12 27 -13 0 -17 -6
-25 -17 -25 -27 0 -30 -17 -4 -24 21 -5 24 -11 21 -38 -3 -17 0 -37 5 -43 6
-7 4 -21 -5 -38 -37 -72 -51 -180 -29 -232 22 -55 109 -74 162 -36 15 10 30
19 35 20 4 1 8 1 10 2 1 0 10 2 20 4 10 2 26 7 35 11 9 3 35 6 57 5 41 -2 40
-3 112 74 33 35 63 80 63 94 0 12 -32 2 -41 -12 -4 -5 -9 3 -13 18 -11 43 -28
53 -102 59 -47 4 -62 3 -47 -4 24 -10 22 -34 -3 -44 -19 -7 -18 -26 2 -26 13
0 11 -6 -8 -29 -12 -16 -32 -40 -42 -55 -20 -28 -49 -36 -40 -11 3 8 -1 22
-10 31 -16 16 -12 39 5 29 5 -4 9 -1 9 4 0 6 -4 11 -10 11 -22 0 -8 18 18 23
22 5 27 11 28 36 1 17 -3 31 -7 31 -5 0 -9 9 -9 20 0 12 -7 20 -16 20 -13 0
-14 3 -4 15 6 8 9 18 6 24 -4 5 2 12 11 14 14 4 13 5 -4 6 -22 1 -34 21 -12
21 6 0 3 7 -5 16 -9 8 -21 25 -27 36 -10 19 -12 20 -21 5 -5 -10 -14 -17 -20
-17 -7 0 -7 5 1 14 13 16 -2 32 -19 21 -5 -3 -10 3 -10 14 0 12 -7 21 -16 21
-11 0 -14 7 -11 30 3 18 0 34 -9 41 -8 6 -14 18 -14 25 0 8 -16 30 -35 50 -19
20 -33 40 -30 45 4 5 -1 6 -9 3 -11 -4 -16 0 -16 15 0 12 -4 21 -10 21 -5 0
-7 6 -4 13 3 8 -2 20 -11 27 -8 7 -15 18 -15 25 0 7 -7 15 -15 19 -8 3 -15 12
-15 20 0 9 -7 12 -20 9 -23 -6 -27 -23 -5 -23 8 0 15 -5 15 -11 0 -6 -7 -9
-15 -6 -8 4 -17 2 -20 -3 -9 -15 -25 -12 -25 5 0 8 -7 15 -17 15 -14 0 -14 2
2 20 10 12 26 19 34 18 9 -2 26 6 39 17 26 24 21 51 -17 94 -17 19 -26 22 -55
17 -23 -4 -35 -3 -38 6 -3 7 -11 9 -24 3 -10 -4 -55 -9 -99 -10 -44 -1 -105
-10 -136 -20 -43 -14 -63 -15 -86 -8 -22 8 -36 7 -57 -4 -15 -8 -34 -12 -42
-9 -7 3 -16 1 -19 -4 -4 -6 -14 -10 -24 -10 -10 0 -26 -9 -35 -19 -28 -31
-148 -78 -131 -51 3 5 1 10 -5 10 -7 0 -14 -10 -18 -22 -5 -21 -6 -21 -13 -2
-7 18 -8 18 -8 0 -1 -18 -2 -18 -21 -1 -11 10 -20 24 -20 32 0 7 -6 13 -14 13
-8 0 -16 6 -19 13 -2 6 -8 0 -12 -15 -4 -16 -14 -28 -21 -28 -12 0 -12 5 1 30
8 16 15 34 15 40 0 18 -17 11 -28 -12 -10 -23 -11 -23 -11 5 -1 15 4 27 9 27
6 0 10 7 10 15 0 18 -16 20 -24 3 -3 -7 -4 -4 -1 7 3 11 1 35 -4 52 -11 39 -4
73 16 73 8 0 11 5 7 12 -5 8 -14 4 -27 -13 l-20 -24 6 33 c4 19 2 32 -4 32 -6
0 -7 5 -3 11 12 20 16 116 6 123 -17 10 -23 -10 -12 -38 6 -16 6 -27 0 -31 -6
-4 -10 3 -10 15 0 18 -4 20 -22 14 -20 -6 -21 -5 -10 8 7 9 10 27 6 45 -4 22
-2 32 9 36 11 4 14 15 10 39 -2 18 -9 35 -14 36 -5 2 -9 8 -9 14 0 5 -10 18
-22 29 l-23 19 26 24 c15 12 30 34 34 47 13 47 36 89 48 89 7 0 20 14 30 32
14 25 15 33 5 39 -14 9 8 13 46 9 15 -1 17 3 12 24 -7 27 -1 33 40 39 33 5 74
42 74 69 0 34 6 38 40 25 38 -15 53 -1 56 53 2 38 -8 52 -21 30 -10 -16 -25
-12 -19 5 5 11 2 13 -10 9 -21 -8 -20 8 2 29 9 8 30 27 45 41 15 14 32 26 37
26 6 0 10 3 10 8 -1 13 -27 42 -39 42 -6 0 -11 4 -11 8 0 9 42 8 58 -2 7 -4
12 -4 12 -1 0 4 12 -2 28 -13 15 -10 32 -17 39 -15 15 5 35 -31 28 -49 -3 -8
5 -20 19 -28 14 -7 23 -17 20 -22 -8 -13 10 -10 25 5 10 10 12 9 9 -3 -2 -11
6 -15 31 -15 26 0 38 -7 55 -30 26 -38 43 -48 80 -51 16 -2 40 -5 53 -9 16 -4
23 -1 23 9 0 18 22 26 51 19 15 -4 20 -3 15 5 -4 7 -14 12 -22 12 -8 0 -14 9
-14 20 0 22 20 26 38 8 10 -10 17 -10 32 0 17 10 20 10 20 -3 0 -18 21 -20 39
-2 11 10 12 8 7 -8 -5 -16 1 -25 24 -38 17 -10 30 -22 30 -28 0 -5 7 -9 15 -9
8 0 15 -4 15 -10 0 -5 6 -10 13 -10 7 0 33 -20 58 -45 24 -24 47 -45 52 -45
11 0 29 50 33 96 3 31 0 45 -16 59 -11 10 -20 26 -20 37 0 10 -7 18 -15 18 -9
0 -12 6 -9 15 4 8 1 15 -5 15 -6 0 -11 6 -11 14 0 8 -6 16 -12 19 -7 2 -1 8
14 12 33 8 27 25 -8 25 -16 0 -24 6 -24 18 0 22 -129 69 -178 64 -25 -3 -38 1
-49 17 -8 12 -19 21 -25 21 -6 0 -21 11 -34 25 -15 16 -24 20 -28 12 -3 -7 -7
-3 -11 10 -4 12 -17 24 -30 27 -13 3 -27 15 -30 27 -4 12 -13 18 -20 15 -8 -3
-15 -1 -17 4 -2 5 -14 11 -28 13 -35 6 -80 25 -80 35 0 4 -18 8 -41 9 -22 1
-46 7 -53 12 -7 6 -16 8 -19 4 -4 -3 -7 -1 -7 5 0 5 6 12 13 15 6 3 -1 4 -18
4 -16 -1 -49 0 -73 1 -38 2 -43 4 -37 22 5 14 2 20 -9 20 -9 0 -16 -5 -16 -11
0 -8 -4 -8 -13 0 -9 7 -24 8 -45 2 -36 -11 -51 1 -32 24 9 11 9 15 1 15 -6 0
-14 -6 -17 -14 -3 -8 -14 -13 -24 -11 -13 3 -17 -1 -13 -11 6 -16 -13 -19 -22
-3 -4 5 -12 8 -18 6 -7 -2 -18 3 -25 12 -12 14 -13 13 -9 -6 3 -13 1 -23 -4
-23 -5 0 -9 7 -9 16 0 10 -6 14 -14 11 -8 -3 -17 -3 -20 1 -4 3 -26 7 -49 8
-23 1 -36 -1 -29 -3 6 -3 12 -11 12 -19 0 -10 -8 -9 -37 7 -29 16 -46 19 -80
14 -25 -4 -43 -2 -43 3 0 5 -23 10 -52 10 -41 0 -56 -5 -75 -24 -16 -16 -25
-20 -28 -11 -12 41 -14 42 -20 20z m155 -13 c0 -5 -4 -10 -10 -10 -5 0 -10 5
-10 10 0 6 5 10 10 10 6 0 10 -4 10 -10z m-382 -92 c-2 -6 -10 -14 -16 -16 -7
-2 -10 2 -6 12 7 18 28 22 22 4z m992 -28 c0 -5 -5 -10 -11 -10 -5 0 -7 5 -4
10 3 6 8 10 11 10 2 0 4 -4 4 -10z m-835 -10 c3 -5 1 -10 -4 -10 -6 0 -11 5
-11 10 0 6 2 10 4 10 3 0 8 -4 11 -10z m930 -37 c-33 -23 -60 -12 -34 14 6 6
20 8 31 5 20 -5 20 -6 3 -19z m31 -32 c-17 -18 -17 -19 1 -24 12 -3 9 -5 -9
-6 -15 0 -29 3 -33 8 -7 12 22 41 42 41 14 0 14 -2 -1 -19z m-1051 -50 c3 -5
1 -12 -5 -16 -5 -3 -10 1 -10 9 0 18 6 21 15 7z m1145 -12 c7 -11 17 -18 24
-16 7 3 19 1 27 -4 11 -7 10 -11 -6 -23 -23 -18 -41 -20 -50 -6 -3 5 -13 6
-22 3 -11 -4 -14 -3 -9 6 6 8 -3 10 -33 5 -33 -5 -41 -4 -41 9 0 18 44 44 77
46 13 1 27 -8 33 -20z m-1640 1 c0 -5 -5 -10 -11 -10 -5 0 -7 5 -4 10 3 6 8
10 11 10 2 0 4 -4 4 -10z m629 -46 c-16 -20 -28 -17 -22 5 3 12 11 17 19 14
11 -4 12 -9 3 -19z m559 2 c-7 -8 -15 -12 -17 -11 -5 6 10 25 20 25 5 0 4 -6
-3 -14z m546 -41 c-15 -22 -34 -34 -34 -20 0 14 26 45 38 45 9 0 8 -7 -4 -25z
m-1118 -31 c-25 -25 -37 -6 -13 21 16 18 23 20 25 10 2 -8 -4 -22 -12 -31z
m85 23 c-10 -9 -11 -8 -5 6 3 10 9 15 12 12 3 -3 0 -11 -7 -18z m107 5 c2 -7
-2 -10 -12 -6 -9 3 -23 1 -31 -6 -20 -17 -31 -6 -14 14 16 18 50 17 57 -2z
m212 3 c-7 -9 -15 -13 -19 -10 -3 3 1 10 9 15 21 14 24 12 10 -5z m140 11 c0
-3 -4 -8 -10 -11 -5 -3 -10 -1 -10 4 0 6 5 11 10 11 6 0 10 -2 10 -4z m77 -33
c-3 -10 -5 -4 -5 12 0 17 2 24 5 18 2 -7 2 -21 0 -30z m73 16 c-7 -11 -14 -18
-17 -15 -8 8 5 36 17 36 7 0 7 -6 0 -21z m-200 1 c0 -5 -7 -10 -16 -10 -10 0
-14 -6 -11 -14 4 -9 -8 -25 -31 -42 -20 -16 -53 -46 -74 -67 -32 -33 -41 -37
-53 -27 -19 16 -19 34 0 27 8 -4 17 -2 21 4 3 6 24 24 46 40 23 16 36 29 30
29 -7 0 -12 8 -12 17 0 9 3 14 6 11 3 -3 16 5 29 18 24 24 65 33 65 14z m810
-8 c0 -4 -15 -15 -32 -25 -41 -21 -95 -19 -102 6 -4 15 2 17 55 12 37 -3 59
-2 59 5 0 5 5 10 10 10 6 0 10 -3 10 -8z m-1230 -24 c0 -5 5 -6 10 -3 6 4 5
-5 -2 -19 -6 -14 -19 -26 -30 -26 -11 0 -18 -7 -18 -20 0 -24 13 -26 31 -4 12
15 14 14 20 -7 7 -24 7 -24 8 -1 1 12 7 22 16 22 8 0 12 6 9 14 -3 8 -1 17 4
20 6 3 13 -2 16 -11 6 -15 8 -15 19 1 11 15 15 16 25 3 10 -11 7 -18 -13 -33
-14 -10 -25 -24 -25 -31 0 -7 -6 -13 -13 -13 -19 0 -61 -47 -49 -54 6 -3 12
-1 14 6 3 9 6 9 11 1 4 -6 0 -18 -8 -26 -8 -9 -15 -21 -15 -27 0 -10 -40 -30
-60 -30 -17 0 -23 51 -10 75 7 14 16 22 20 20 5 -3 10 2 14 10 8 23 -11 18
-28 -7 -8 -12 -25 -22 -38 -23 -15 -1 -22 -8 -22 -19 2 -13 -3 -15 -20 -10
-11 4 -23 8 -24 10 -8 6 33 64 45 64 7 0 13 7 13 15 0 8 7 15 16 15 11 0 14
-6 9 -22 l-7 -23 17 23 c9 13 15 32 12 43 -3 12 2 23 14 29 10 6 19 18 19 27
0 15 -2 14 -19 -3 -53 -55 -87 -70 -76 -33 12 35 -9 14 -34 -35 -12 -26 -21
-52 -18 -59 2 -6 -3 -19 -11 -27 -12 -11 -16 -12 -19 -3 -3 9 -16 4 -40 -14
l-36 -28 15 30 c8 17 13 36 10 44 -3 8 0 11 6 7 11 -7 52 27 52 42 0 5 9 17
19 26 11 10 17 24 15 31 -7 18 25 24 55 11 20 -9 26 -6 42 16 13 18 25 24 39
21 11 -3 20 -10 20 -15z m296 -4 c8 -32 -21 -69 -35 -45 -7 11 -17 8 -47 -20
-79 -71 -114 -109 -114 -121 0 -7 -5 -20 -10 -28 -8 -13 -11 -12 -24 5 -21 28
-21 30 24 71 28 26 37 41 30 49 -14 16 -1 26 19 15 27 -14 45 4 38 36 -4 16
-4 23 -1 17 3 -7 11 -13 18 -13 18 0 66 24 66 33 0 5 5 5 12 1 8 -5 9 -2 5 9
-3 10 -2 17 3 17 5 0 13 -12 16 -26z m152 2 c-7 -8 -15 -12 -17 -11 -5 6 10
25 20 25 5 0 4 -6 -3 -14z m124 -38 c-7 -7 -12 -8 -12 -2 0 14 12 26 19 19 2
-3 -1 -11 -7 -17z m-155 -33 c-4 -8 -11 -15 -17 -15 -6 0 -6 7 2 20 14 22 24
19 15 -5z m53 15 c0 -13 -11 -13 -30 0 -12 8 -11 10 8 10 12 0 22 -4 22 -10z
m60 -9 c0 -5 -7 -11 -15 -15 -8 -3 -15 -12 -15 -21 0 -8 -4 -15 -9 -15 -4 0
-6 11 -3 25 2 14 8 22 13 19 5 -3 9 0 9 5 0 6 5 11 10 11 6 0 10 -4 10 -9z
m-437 -36 c-3 -9 -8 -14 -10 -11 -3 3 -2 9 2 15 9 16 15 13 8 -4z m242 5 c3
-5 1 -10 -4 -10 -6 0 -11 5 -11 10 0 6 2 10 4 10 3 0 8 -4 11 -10z m45 -10 c0
-5 -4 -10 -10 -10 -5 0 -10 5 -10 10 0 6 5 10 10 10 6 0 10 -4 10 -10z m90
-20 c0 -11 -4 -20 -9 -20 -5 0 -20 -9 -33 -19 -12 -11 -39 -34 -59 -50 -38
-32 -62 -43 -35 -15 18 18 21 34 6 34 -5 0 -10 -5 -10 -12 0 -6 -3 -8 -6 -5
-4 4 -1 14 6 22 10 12 15 13 21 4 5 -9 16 -4 37 19 17 18 34 32 40 32 5 0 12
7 16 15 8 22 26 18 26 -5z m-271 -22 c-9 -7 -23 -26 -33 -41 -10 -16 -20 -27
-22 -24 -4 4 15 43 43 90 3 5 10 4 16 -2 8 -8 7 -14 -4 -23z m-139 12 c0 -5
-2 -10 -4 -10 -3 0 -8 5 -11 10 -3 6 -1 10 4 10 6 0 11 -4 11 -10z m-275 -66
c-9 -9 -19 -13 -23 -10 -3 4 0 11 8 16 24 15 33 11 15 -6z m-765 -4 c0 -5 -2
-10 -4 -10 -3 0 -8 5 -11 10 -3 6 -1 10 4 10 6 0 11 -4 11 -10z m829 1 c12 -7
12 -13 3 -24 -7 -7 -9 -17 -5 -20 3 -4 1 -7 -5 -7 -6 0 -14 5 -17 10 -3 6 -1
10 4 10 6 0 11 7 11 16 0 12 -6 11 -29 -8 -16 -13 -34 -32 -39 -43 -6 -11 -11
-15 -11 -8 -1 13 57 83 68 83 3 0 12 -4 20 -9z m-162 -23 c-3 -8 -6 -5 -6 6
-1 11 2 17 5 13 3 -3 4 -12 1 -19z m73 -8 c0 -5 -4 -10 -10 -10 -5 0 -10 5
-10 10 0 6 5 10 10 10 6 0 10 -4 10 -10z m300 -4 c0 -8 -4 -18 -10 -21 -5 -3
-10 3 -10 14 0 12 5 21 10 21 6 0 10 -6 10 -14z m-320 -17 c0 -5 -4 -9 -10 -9
-5 0 -10 7 -10 16 0 8 5 12 10 9 6 -3 10 -10 10 -16z m135 -15 c-8 -20 -15
-38 -15 -40 0 -2 -4 -4 -10 -4 -14 0 -12 16 3 32 7 7 16 21 20 31 3 9 9 17 12
17 3 0 -2 -16 -10 -36z m-177 -23 c-8 -12 -18 -18 -21 -14 -10 10 -8 25 2 19
5 -3 12 1 15 10 4 9 9 14 12 11 3 -3 0 -15 -8 -26z m132 -36 c0 -8 -4 -15 -10
-15 -5 0 -10 7 -10 15 0 8 5 15 10 15 6 0 10 -7 10 -15z m-35 -35 c3 -5 1 -10
-4 -10 -6 0 -11 5 -11 10 0 6 2 10 4 10 3 0 8 -4 11 -10z m-1048 -262 c-3 -7
-5 -2 -5 12 0 14 2 19 5 13 2 -7 2 -19 0 -25z m1540 -80 c-3 -8 -6 -5 -6 6 -1
11 2 17 5 13 3 -3 4 -12 1 -19z m33 -168 c0 -5 -5 -10 -11 -10 -5 0 -7 5 -4
10 3 6 8 10 11 10 2 0 4 -4 4 -10z m-1650 -9 c0 -6 -4 -13 -10 -16 -5 -3 -10
1 -10 9 0 9 5 16 10 16 6 0 10 -4 10 -9z m1667 -193 c-3 -8 -6 -5 -6 6 -1 11
2 17 5 13 3 -3 4 -12 1 -19z m6 -32 c6 -14 0 -26 -13 -26 -3 0 -6 9 -6 20 0
23 11 27 19 6z m557 -71 c0 -8 -4 -15 -10 -15 -5 0 -10 7 -10 15 0 8 5 15 10
15 6 0 10 -7 10 -15z m-458 -20 c0 -5 -5 -11 -11 -13 -6 -2 -11 4 -11 13 0 9
5 15 11 13 6 -2 11 -8 11 -13z m783 5 c3 -5 1 -10 -4 -10 -6 0 -11 5 -11 10 0
6 2 10 4 10 3 0 8 -4 11 -10z m-25 -30 c0 -5 -4 -10 -10 -10 -5 0 -10 5 -10
10 0 6 5 10 10 10 6 0 10 -4 10 -10z m-560 -86 c0 -8 -4 -12 -10 -9 -5 3 -10
10 -10 16 0 5 5 9 10 9 6 0 10 -7 10 -16z m-2065 -14 c3 -5 1 -10 -4 -10 -6 0
-11 5 -11 10 0 6 2 10 4 10 3 0 8 -4 11 -10z m5 -50 c0 -5 -4 -10 -10 -10 -5
0 -10 5 -10 10 0 6 5 10 10 10 6 0 10 -4 10 -10z m2460 0 c0 -5 -5 -10 -11
-10 -5 0 -7 5 -4 10 3 6 8 10 11 10 2 0 4 -4 4 -10z m-40 -20 c-20 -13 -33
-13 -25 0 3 6 14 10 23 10 15 0 15 -2 2 -10z m-2445 -90 c3 -5 -1 -10 -9 -10
-9 0 -16 5 -16 10 0 6 4 10 9 10 6 0 13 -4 16 -10z m2922 -152 c-3 -8 -6 -5
-6 6 -1 11 2 17 5 13 3 -3 4 -12 1 -19z m113 8 c0 -3 -4 -8 -10 -11 -5 -3 -10
-1 -10 4 0 6 5 11 10 11 6 0 10 -2 10 -4z m-1173 -118 c-3 -8 -6 -5 -6 6 -1
11 2 17 5 13 3 -3 4 -12 1 -19z m53 -102 c0 -8 -4 -18 -10 -21 -5 -3 -10 3
-10 14 0 12 5 21 10 21 6 0 10 -6 10 -14z m1340 -1 c0 -8 -4 -15 -10 -15 -5 0
-7 7 -4 15 4 8 8 15 10 15 2 0 4 -7 4 -15z m-1381 -9 c7 -8 8 -17 3 -20 -6 -3
-12 3 -15 14 -6 24 -4 25 12 6z m-1061 -94 c2 -7 -5 -12 -17 -12 -14 0 -19 5
-14 15 6 17 25 15 31 -3z m-891 -54 c-3 -8 -6 -5 -6 6 -1 11 2 17 5 13 3 -3 4
-12 1 -19z m2140 6 c-3 -3 -12 -4 -19 -1 -8 3 -5 6 6 6 11 1 17 -2 13 -5z m3
-24 c0 -5 -8 -10 -17 -10 -15 0 -16 2 -3 10 19 12 20 12 20 0z m-10 -90 c0 -5
-2 -10 -4 -10 -3 0 -8 5 -11 10 -3 6 -1 10 4 10 6 0 11 -4 11 -10z m-2170 -60
c0 -5 -5 -10 -11 -10 -5 0 -7 5 -4 10 3 6 8 10 11 10 2 0 4 -4 4 -10z m2357
-52 c-3 -8 -6 -5 -6 6 -1 11 2 17 5 13 3 -3 4 -12 1 -19z m-1377 -64 c0 -8 -5
-12 -10 -9 -6 4 -8 11 -5 16 9 14 15 11 15 -7z m1444 -6 c14 -13 9 -58 -6 -58
-6 0 -7 11 -4 25 4 14 2 25 -4 25 -5 0 -10 5 -10 10 0 13 8 13 24 -2z m-1428
-40 c7 -25 54 -85 54 -71 0 4 7 0 14 -10 8 -10 18 -19 23 -19 19 -1 33 -11 27
-19 -10 -16 -40 -9 -61 14 -11 13 -29 30 -39 38 -21 15 -48 89 -34 89 5 0 12
-10 16 -22z m1334 -52 c0 -2 -7 -7 -16 -10 -8 -3 -12 -2 -9 4 6 10 25 14 25 6z
m109 -52 c-10 -13 -10 -17 2 -25 11 -7 11 -9 -3 -9 -19 0 -25 34 -8 45 6 3 11
16 11 28 2 21 2 21 6 -1 3 -13 -1 -30 -8 -38z m-75 31 c3 -8 1 -15 -4 -15 -6
0 -10 7 -10 15 0 8 2 15 4 15 2 0 6 -7 10 -15z m56 11 c0 -2 -7 -9 -15 -16
-13 -11 -14 -10 -9 4 5 14 24 23 24 12z m-1340 -130 c0 5 5 2 10 -6 12 -18 14
-40 2 -25 -4 6 -16 15 -26 21 -11 6 -22 17 -24 25 -3 9 2 8 17 -5 11 -11 21
-15 21 -10z m194 -27 c-3 -5 -17 -9 -32 -9 -24 0 -25 1 -7 14 20 14 49 11 39
-5z m1216 1 c0 -5 -5 -10 -11 -10 -5 0 -7 5 -4 10 3 6 8 10 11 10 2 0 4 -4 4
-10z m-1225 -40 c3 -5 2 -10 -4 -10 -5 0 -13 5 -16 10 -3 6 -2 10 4 10 5 0 13
-4 16 -10z m130 -10 c3 -5 1 -10 -4 -10 -6 0 -11 5 -11 10 0 6 2 10 4 10 3 0
8 -4 11 -10z m1195 -9 c0 -5 -9 -11 -20 -14 -20 -5 -26 3 -13 16 9 10 33 8 33
-2z m-5 -31 c-3 -5 -14 -10 -23 -9 -14 0 -13 2 3 9 27 11 27 11 20 0z m65
-150 c0 -11 -4 -20 -10 -20 -5 0 -10 9 -10 20 0 11 5 20 10 20 6 0 10 -9 10
-20z m107 -92 c-3 -8 -6 -5 -6 6 -1 11 2 17 5 13 3 -3 4 -12 1 -19z m83 -34
c0 -8 -5 -12 -10 -9 -6 4 -8 11 -5 16 9 14 15 11 15 -7z m260 -89 c0 -5 -5 -3
-10 5 -5 8 -10 20 -10 25 0 6 5 3 10 -5 5 -8 10 -19 10 -25z m50 25 c0 -5 -4
-10 -10 -10 -5 0 -10 5 -10 10 0 6 5 10 10 10 6 0 10 -4 10 -10z m-2703 -42
c-3 -7 -5 -2 -5 12 0 14 2 19 5 13 2 -7 2 -19 0 -25z m2710 -150 c-3 -8 -6 -5
-6 6 -1 11 2 17 5 13 3 -3 4 -12 1 -19z m-57 2 c0 -5 -4 -10 -10 -10 -5 0 -10
5 -10 10 0 6 5 10 10 10 6 0 10 -4 10 -10z m-15 -40 c-3 -5 -13 -10 -21 -10
-8 0 -12 5 -9 10 3 6 13 10 21 10 8 0 12 -4 9 -10z m-2197 -120 c-2 -51 -18
-41 -18 11 0 24 4 38 10 34 5 -3 9 -24 8 -45z m680 -31 c-2 -6 -8 -10 -13 -10
-5 0 -11 4 -13 10 -2 6 4 11 13 11 9 0 15 -5 13 -11z m1529 -78 c0 -25 -5 -42
-13 -45 -16 -6 -19 10 -4 19 6 4 8 11 4 16 -3 5 -10 7 -15 4 -13 -8 -11 2 3
25 19 30 25 25 25 -19z m-2274 -5 c-3 -4 -9 -2 -14 5 -13 22 -11 31 5 17 8 -7
12 -17 9 -22z m1027 24 c0 -5 -8 -10 -17 -10 -15 0 -16 2 -3 10 19 12 20 12
20 0z m-330 -10 c-8 -5 -19 -10 -25 -10 -5 0 -3 5 5 10 8 5 20 10 25 10 6 0 3
-5 -5 -10z m-640 -77 c-11 -17 -11 -17 -6 0 3 10 7 28 7 40 2 22 2 22 6 0 2
-12 -1 -30 -7 -40z m1050 27 c0 -5 -4 -10 -10 -10 -5 0 -10 5 -10 10 0 6 5 10
10 10 6 0 10 -4 10 -10z m-1137 -40 c-3 -12 -8 -19 -11 -16 -5 6 5 36 12 36 2
0 2 -9 -1 -20z m2293 -47 c-10 -10 -19 5 -10 18 6 11 8 11 12 0 2 -7 1 -15 -2
-18z m-2304 -10 c-3 -16 -7 -22 -10 -15 -4 13 4 42 11 42 2 0 2 -12 -1 -27z
m1308 23 c0 -3 -4 -8 -10 -11 -5 -3 -10 -1 -10 4 0 6 5 11 10 11 6 0 10 -2 10
-4z m40 -36 c-18 -12 -30 -13 -30 -2 0 4 10 9 22 9 18 2 20 0 8 -7z m-1372
-55 c-2 -40 -28 -73 -28 -37 0 20 19 72 27 72 2 0 3 -16 1 -35z m212 15 c0 -5
-5 -10 -11 -10 -5 0 -7 5 -4 10 3 6 8 10 11 10 2 0 4 -4 4 -10z m-35 -76 c-10
-26 -25 -54 -34 -64 -9 -9 -24 -27 -34 -39 -10 -12 -23 -19 -29 -15 -8 5 -7
10 3 18 30 23 88 102 94 129 4 15 10 26 13 23 3 -3 -3 -27 -13 -52z m425 30
c0 -8 -5 -12 -10 -9 -6 4 -8 11 -5 16 9 14 15 11 15 -7z m-1068 -16 c-7 -7
-12 -8 -12 -2 0 14 12 26 19 19 2 -3 -1 -11 -7 -17z m988 -4 c0 -8 -5 -12 -10
-9 -6 4 -8 11 -5 16 9 14 15 11 15 -7z m1790 12 c0 -3 -4 -8 -10 -11 -5 -3
-10 -1 -10 4 0 6 5 11 10 11 6 0 10 -2 10 -4z m-1864 -20 c22 -22 18 -38 -6
-24 -11 7 -20 18 -20 25 0 17 8 16 26 -1z m1111 -32 c-3 -3 -12 -4 -19 -1 -8
3 -5 6 6 6 11 1 17 -2 13 -5z m-1592 -14 c-3 -5 -11 -10 -16 -10 -6 0 -7 5 -4
10 3 6 11 10 16 10 6 0 7 -4 4 -10z m-35 -134 c-7 -7 -10 1 -9 25 0 32 1 33
10 10 6 -16 6 -28 -1 -35z m-610 24 c0 -5 -4 -10 -10 -10 -5 0 -10 5 -10 10 0
6 5 10 10 10 6 0 10 -4 10 -10z m2378 -56 c-3 -27 -4 -26 -9 8 -3 22 -1 34 4
29 5 -5 7 -21 5 -37z m112 17 c4 6 10 7 13 3 3 -5 -1 -15 -9 -21 -8 -8 -15 -9
-19 -3 -3 6 -15 10 -26 10 -10 0 -19 4 -19 10 0 6 10 6 27 -1 19 -7 28 -6 33
2z m-84 -38 c-11 -11 -17 4 -9 23 7 18 8 18 11 1 2 -10 1 -21 -2 -24z m-1951
6 c-3 -8 -17 -22 -30 -32 -24 -17 -25 -17 -25 2 0 14 9 23 25 27 14 3 25 11
25 17 0 6 2 8 5 5 3 -3 3 -11 0 -19z m65 14 c0 -8 -51 -51 -80 -68 -13 -8 -13
-7 0 11 32 41 56 64 68 64 6 0 12 -3 12 -7z m1934 -25 c8 -33 6 -46 -4 -23 -8
18 -9 18 -9 -5 -1 -17 -4 -21 -10 -12 -9 15 -3 62 9 62 4 0 10 -10 14 -22z
m-2807 -330 c-3 -8 -6 -5 -6 6 -1 11 2 17 5 13 3 -3 4 -12 1 -19z m2633 -82
c-15 -15 -32 7 -24 29 7 17 8 17 21 -1 9 -12 10 -21 3 -28z m90 4 c0 -5 -4
-10 -10 -10 -5 0 -10 5 -10 10 0 6 5 10 10 10 6 0 10 -4 10 -10z m110 0 c0 -5
-5 -10 -11 -10 -5 0 -7 5 -4 10 3 6 8 10 11 10 2 0 4 -4 4 -10z m-152 -22 c-2
-6 -15 -15 -28 -20 -23 -9 -23 -8 -5 12 20 22 39 27 33 8z m-44 -54 c4 -10 1
-14 -6 -12 -15 5 -23 28 -10 28 5 0 13 -7 16 -16z m-2764 -234 c0 -5 -5 -10
-11 -10 -5 0 -7 5 -4 10 3 6 8 10 11 10 2 0 4 -4 4 -10z m-74 -87 c-10 -10
-19 5 -10 18 6 11 8 11 12 0 2 -7 1 -15 -2 -18z m-9 -273 c-3 -11 -1 -23 4
-26 5 -3 9 -11 9 -17 0 -7 -7 -4 -14 6 -12 16 -11 57 1 57 3 0 3 -9 0 -20z
m-22 -50 c3 -5 1 -10 -4 -10 -6 0 -11 5 -11 10 0 6 2 10 4 10 3 0 8 -4 11 -10z"/>
<path d="M2502 6359 c-12 -18 -11 -20 5 -17 10 2 19 11 21 21 5 23 -10 21 -26
-4z"/>
<path d="M2810 6530 c0 -5 5 -10 10 -10 6 0 10 5 10 10 0 6 -4 10 -10 10 -5 0
-10 -4 -10 -10z"/>
<path d="M2136 6842 c-2 -4 -1 -14 5 -22 7 -12 9 -10 9 8 0 23 -5 28 -14 14z"/>
<path d="M3220 6520 c0 -5 7 -10 15 -10 8 0 15 5 15 10 0 6 -7 10 -15 10 -8 0
-15 -4 -15 -10z"/>
<path d="M1270 6046 c0 -9 5 -16 10 -16 6 0 10 4 10 9 0 6 -4 13 -10 16 -5 3
-10 -1 -10 -9z"/>
<path d="M2850 5960 c0 -5 5 -10 10 -10 6 0 10 5 10 10 0 6 -4 10 -10 10 -5 0
-10 -4 -10 -10z"/>
<path d="M4320 5738 c-8 -13 -18 -31 -23 -41 -4 -11 -15 -21 -25 -24 -10 -2
-26 -18 -36 -34 -13 -22 -23 -28 -37 -24 -15 5 -23 -4 -44 -51 -34 -76 -33
-131 2 -103 10 9 13 8 13 -5 0 -9 5 -16 11 -16 6 0 9 6 6 13 -12 32 46 60 105
51 41 -7 57 3 58 34 0 9 -9 7 -29 -7 -16 -12 -32 -21 -35 -21 -10 0 -6 18 7
32 7 7 21 30 31 51 10 22 27 48 38 59 21 21 20 67 -3 95 -16 18 -22 17 -39 -9z"/>
<path d="M2940 5516 c0 -22 3 -27 11 -19 8 8 8 16 0 30 -9 16 -10 14 -11 -11z"/>
<path d="M1100 5519 c0 -5 5 -7 10 -4 6 3 10 8 10 11 0 2 -4 4 -10 4 -5 0 -10
-5 -10 -11z"/>
<path d="M4251 5477 c-16 -16 -14 -32 3 -18 16 14 76 10 77 -4 0 -5 -8 -10
-18 -11 -27 -4 -113 -46 -113 -56 0 -11 11 -10 40 7 14 8 39 14 55 13 17 0 22
-2 13 -5 -10 -2 -18 -9 -18 -14 0 -6 6 -7 13 -4 6 4 3 -1 -8 -10 -11 -8 -36
-23 -57 -33 -21 -9 -38 -22 -38 -27 0 -6 -9 -16 -20 -23 -27 -17 -27 -46 0
-37 15 5 27 -2 46 -24 15 -18 35 -31 48 -31 23 0 56 28 56 48 0 6 5 14 10 17
6 4 10 -5 10 -19 0 -19 -10 -32 -40 -51 -49 -31 -51 -45 -6 -45 25 0 40 7 54
24 14 19 22 22 30 14 20 -20 26 0 15 46 -10 46 1 76 28 76 8 0 23 14 32 30 18
29 12 41 -10 19 -7 -7 -9 -2 -5 18 5 25 4 27 -11 14 -15 -12 -21 -9 -50 21
-17 19 -31 41 -29 50 5 26 -84 38 -107 15z m6 -212 c9 -25 -4 -29 -17 -6 -7
15 -7 21 0 21 6 0 13 -7 17 -15z"/>
<path d="M4212 5460 c0 -14 2 -19 5 -12 2 6 2 18 0 25 -3 6 -5 1 -5 -13z"/>
<path d="M4140 5406 c-14 -39 -13 -76 4 -76 8 0 16 16 19 43 7 50 -8 72 -23
33z"/>
<path d="M1121 5394 c0 -11 3 -14 6 -6 3 7 2 16 -1 19 -3 4 -6 -2 -5 -13z"/>
<path d="M1080 5340 c20 -13 33 -13 25 0 -3 6 -14 10 -23 10 -15 0 -15 -2 -2
-10z"/>
<path d="M3490 5320 c0 -6 7 -10 15 -10 8 0 15 2 15 4 0 2 -7 6 -15 10 -8 3
-15 1 -15 -4z"/>
<path d="M1067 5283 c8 -52 13 -54 13 -5 0 23 -4 42 -9 42 -6 0 -7 -17 -4 -37z"/>
<path d="M3544 5295 c-9 -22 1 -29 15 -11 8 10 9 16 1 21 -5 3 -13 -1 -16 -10z"/>
<path d="M4130 5299 c0 -5 5 -7 10 -4 6 3 10 8 10 11 0 2 -4 4 -10 4 -5 0 -10
-5 -10 -11z"/>
<path d="M1062 5130 c0 -14 2 -19 5 -12 2 6 2 18 0 25 -3 6 -5 1 -5 -13z"/>
<path d="M3921 4994 c0 -11 3 -14 6 -6 3 7 2 16 -1 19 -3 4 -6 -2 -5 -13z"/>
<path d="M1031 4944 c0 -11 3 -14 6 -6 3 7 2 16 -1 19 -3 4 -6 -2 -5 -13z"/>
<path d="M3634 4930 c-26 -10 -40 -40 -19 -40 8 0 15 7 15 15 0 8 6 15 14 15
8 0 18 5 21 10 7 12 -2 12 -31 0z"/>
<path d="M3955 4850 c-3 -5 -3 -15 1 -21 6 -11 23 6 24 24 0 10 -18 9 -25 -3z"/>
<path d="M1011 4781 c-8 -5 -11 -16 -7 -26 5 -15 7 -15 22 0 19 19 7 39 -15
26z"/>
<path d="M3010 4780 c0 -5 5 -10 10 -10 6 0 10 5 10 10 0 6 -4 10 -10 10 -5 0
-10 -4 -10 -10z"/>
<path d="M951 4604 c0 -11 3 -14 6 -6 3 7 2 16 -1 19 -3 4 -6 -2 -5 -13z"/>
<path d="M950 4528 c0 -19 2 -20 10 -8 13 19 13 30 0 30 -5 0 -10 -10 -10 -22z"/>
<path d="M3230 4535 c0 -8 5 -15 10 -15 6 0 10 7 10 15 0 8 -4 15 -10 15 -5 0
-10 -7 -10 -15z"/>
<path d="M953 4473 c-14 -30 -13 -35 6 -24 7 5 11 18 9 30 -3 19 -4 19 -15 -6z"/>
<path d="M915 4480 c3 -5 8 -10 11 -10 2 0 4 5 4 10 0 6 -5 10 -11 10 -5 0 -7
-4 -4 -10z"/>
<path d="M887 4436 c-4 -10 -1 -13 9 -9 15 6 19 23 5 23 -5 0 -11 -7 -14 -14z"/>
<path d="M4367 4359 c-27 -10 -52 -17 -57 -14 -5 3 -17 1 -27 -4 -10 -5 -30
-12 -45 -16 -18 -3 -28 -12 -28 -23 0 -13 -2 -14 -9 -4 -6 11 -16 5 -43 -22
-19 -20 -40 -36 -45 -36 -6 0 -13 -8 -15 -18 -3 -10 -22 -26 -42 -36 -20 -9
-36 -21 -36 -27 0 -6 -4 -8 -9 -4 -10 6 -42 -24 -70 -65 -18 -28 -22 -70 -6
-70 43 0 86 -51 53 -63 -8 -2 -9 -8 -4 -13 5 -5 11 -4 13 4 3 6 14 12 25 12
17 0 18 -3 8 -15 -16 -19 -3 -37 21 -30 11 4 19 2 19 -4 0 -6 -4 -11 -10 -11
-5 0 -10 -5 -10 -11 0 -6 9 -8 20 -4 11 4 20 2 20 -4 0 -11 115 -13 135 -2 5
2 28 4 52 2 25 -1 43 2 43 8 0 6 7 8 15 5 10 -4 15 0 15 13 0 13 15 25 50 40
43 18 71 45 59 58 -2 2 -24 -1 -49 -5 -60 -12 -92 -4 -85 21 7 20 -9 26 -20 9
-4 -6 -16 -8 -27 -4 -13 4 -24 1 -29 -7 -7 -11 -9 -9 -9 6 0 12 6 27 13 33 6
7 12 25 12 40 1 15 4 26 8 25 4 -2 14 -3 22 -3 21 0 19 -30 -2 -47 -16 -13
-16 -13 4 -4 12 6 24 16 27 23 3 10 8 8 16 -4 18 -30 32 -21 25 15 -4 17 -4
29 0 25 4 -3 15 2 26 13 24 24 53 24 79 2 33 -29 20 -73 -22 -73 -24 0 -23
-21 2 -27 11 -3 20 -13 21 -22 0 -9 2 -11 4 -6 1 6 8 29 15 52 14 47 7 93 -15
93 -8 0 -15 9 -15 19 0 11 -5 23 -11 26 -6 4 -1 19 15 39 21 28 23 37 15 77
-4 24 -8 47 -9 52 0 4 -5 7 -11 7 -6 0 -8 -8 -5 -18 5 -13 1 -18 -15 -18 -14
0 -19 5 -16 18 6 22 4 22 -56 -3z m-17 -139 c0 -5 -4 -10 -10 -10 -5 0 -10 5
-10 10 0 6 5 10 10 10 6 0 10 -4 10 -10z m-57 -18 c-5 -22 -63 -47 -63 -27 0
16 19 31 45 38 11 2 21 5 22 6 0 0 -1 -7 -4 -17z m-93 -167 c0 -14 -4 -25 -10
-25 -5 0 -10 11 -10 25 0 14 5 25 10 25 6 0 10 -11 10 -25z m-93 -121 c-3 -3
-12 -4 -19 -1 -8 3 -5 6 6 6 11 1 17 -2 13 -5z"/>
<path d="M890 4260 c0 -5 5 -10 11 -10 5 0 7 5 4 10 -3 6 -8 10 -11 10 -2 0
-4 -4 -4 -10z"/>
<path d="M860 4249 c0 -5 5 -7 10 -4 6 3 10 8 10 11 0 2 -4 4 -10 4 -5 0 -10
-5 -10 -11z"/>
<path d="M891 4224 c0 -11 3 -14 6 -6 3 7 2 16 -1 19 -3 4 -6 -2 -5 -13z"/>
<path d="M3556 4195 c-9 -26 -7 -32 5 -12 6 10 9 21 6 23 -2 3 -7 -2 -11 -11z"/>
<path d="M3530 4144 c0 -8 5 -12 10 -9 6 4 8 11 5 16 -9 14 -15 11 -15 -7z"/>
<path d="M3560 4127 c0 -9 -6 -17 -14 -17 -13 0 -31 -29 -23 -37 8 -7 33 8 46
28 9 15 10 24 2 32 -8 8 -11 6 -11 -6z"/>
<path d="M3640 4124 c0 -8 5 -12 10 -9 6 4 8 11 5 16 -9 14 -15 11 -15 -7z"/>
<path d="M880 4115 c0 -8 5 -15 10 -15 6 0 10 7 10 15 0 8 -4 15 -10 15 -5 0
-10 -7 -10 -15z"/>
<path d="M3702 4108 c-7 -7 -12 -9 -12 -5 0 3 -11 -4 -25 -17 -14 -13 -25 -26
-25 -30 0 -4 10 2 22 13 11 11 25 18 29 15 4 -2 13 5 19 16 12 23 10 26 -8 8z"/>
<path d="M4450 4112 c0 -12 19 -26 26 -19 2 2 -2 10 -11 17 -9 8 -15 8 -15 2z"/>
<path d="M880 4079 c0 -5 5 -7 10 -4 6 3 10 8 10 11 0 2 -4 4 -10 4 -5 0 -10
-5 -10 -11z"/>
<path d="M3569 4074 c-14 -17 -12 -19 19 -28 18 -6 22 -3 22 12 0 25 -25 35
-41 16z"/>
<path d="M3726 4061 c-4 -7 -5 -15 -2 -18 9 -9 19 4 14 18 -4 11 -6 11 -12 0z"/>
<path d="M3652 4016 c-7 -16 -8 -26 -1 -26 12 0 22 25 17 41 -2 6 -9 0 -16
-15z"/>
<path d="M3690 4020 c0 -5 5 -10 10 -10 6 0 10 5 10 10 0 6 -4 10 -10 10 -5 0
-10 -4 -10 -10z"/>
<path d="M3594 3997 c-8 -21 -3 -29 13 -19 8 5 9 13 3 22 -7 12 -10 12 -16 -3z"/>
<path d="M3810 3989 c0 -5 5 -7 10 -4 6 3 10 8 10 11 0 2 -4 4 -10 4 -5 0 -10
-5 -10 -11z"/>
<path d="M3700 3956 c0 -15 -7 -26 -17 -29 -14 -4 -14 -5 3 -6 15 -1 24 7 28
22 8 31 7 37 -4 37 -5 0 -10 -11 -10 -24z"/>
<path d="M3665 3960 c3 -5 8 -10 11 -10 2 0 4 5 4 10 0 6 -5 10 -11 10 -5 0
-7 -4 -4 -10z"/>
<path d="M810 3931 c0 -5 7 -12 16 -15 14 -5 15 -4 4 9 -14 17 -20 19 -20 6z"/>
<path d="M846 3891 c-4 -7 -5 -15 -2 -18 9 -9 19 4 14 18 -4 11 -6 11 -12 0z"/>
<path d="M3626 3868 c-4 -19 9 -25 19 -8 4 6 10 8 15 5 4 -3 10 1 13 9 4 10
-2 13 -18 12 -14 0 -26 -9 -29 -18z"/>
<path d="M885 3820 c3 -5 8 -10 11 -10 2 0 4 5 4 10 0 6 -5 10 -11 10 -5 0 -7
-4 -4 -10z"/>
<path d="M3842 3728 c-17 -17 -15 -38 2 -32 17 7 28 31 17 38 -4 3 -13 0 -19
-6z"/>
<path d="M871 3681 c-10 -7 -12 -19 -6 -47 l8 -39 8 44 c10 50 9 53 -10 42z"/>
<path d="M4440 3434 c0 -8 5 -12 10 -9 6 3 10 10 10 16 0 5 -4 9 -10 9 -5 0
-10 -7 -10 -16z"/>
<path d="M4350 3389 c0 -5 5 -7 10 -4 6 3 10 8 10 11 0 2 -4 4 -10 4 -5 0 -10
-5 -10 -11z"/>
<path d="M4222 3356 c7 -7 19 -11 26 -9 16 7 8 16 -19 20 -16 2 -18 1 -7 -11z"/>
<path d="M4270 3319 c0 -5 5 -7 10 -4 6 3 10 8 10 11 0 2 -4 4 -10 4 -5 0 -10
-5 -10 -11z"/>
<path d="M4230 3305 c0 -9 5 -15 11 -13 6 2 11 8 11 13 0 5 -5 11 -11 13 -6 2
-11 -4 -11 -13z"/>
<path d="M4360 3290 c-13 -8 -12 -10 3 -10 9 0 17 5 17 10 0 12 -1 12 -20 0z"/>
<path d="M4195 3270 c-3 -5 -1 -10 4 -10 6 0 11 5 11 10 0 6 -2 10 -4 10 -3 0
-8 -4 -11 -10z"/>
<path d="M4080 3264 c0 -17 18 -36 30 -32 7 2 4 10 -9 22 -12 11 -21 15 -21
10z"/>
<path d="M4191 3176 c-26 -41 -9 -46 29 -8 27 27 28 30 10 35 -14 4 -25 -4
-39 -27z"/>
<path d="M2591 3184 c0 -11 3 -14 6 -6 3 7 2 16 -1 19 -3 4 -6 -2 -5 -13z"/>
<path d="M2883 2975 c0 -22 2 -30 4 -17 2 12 2 30 0 40 -3 9 -5 -1 -4 -23z"/>
<path d="M2936 2995 c4 -8 10 -15 15 -15 5 0 9 7 9 15 0 8 -7 15 -15 15 -9 0
-12 -6 -9 -15z"/>
<path d="M3001 2944 c0 -11 3 -14 6 -6 3 7 2 16 -1 19 -3 4 -6 -2 -5 -13z"/>
<path d="M4093 2945 c-15 -17 -16 -25 -3 -25 5 0 14 9 20 20 12 23 1 26 -17 5z"/>
<path d="M2940 2934 c0 -8 5 -12 10 -9 6 4 8 11 5 16 -9 14 -15 11 -15 -7z"/>
<path d="M3030 2944 c0 -10 28 -34 39 -34 6 0 11 -4 11 -10 0 -5 -5 -10 -11
-10 -5 0 -7 -5 -4 -10 5 -8 11 -7 21 1 20 16 18 28 -8 50 -22 18 -48 25 -48
13z"/>
<path d="M3190 2809 c0 -5 5 -7 10 -4 6 3 10 8 10 11 0 2 -4 4 -10 4 -5 0 -10
-5 -10 -11z"/>
<path d="M2171 2754 c0 -11 3 -14 6 -6 3 7 2 16 -1 19 -3 4 -6 -2 -5 -13z"/>
<path d="M3232 2740 c0 -14 2 -19 5 -12 2 6 2 18 0 25 -3 6 -5 1 -5 -13z"/>
<path d="M3271 2719 c18 -11 39 -11 39 0 0 5 -12 9 -26 9 -18 0 -22 -3 -13 -9z"/>
<path d="M3310 2619 c0 -5 5 -7 10 -4 6 3 10 8 10 11 0 2 -4 4 -10 4 -5 0 -10
-5 -10 -11z"/>
<path d="M3250 2440 c0 -5 5 -10 10 -10 6 0 10 5 10 10 0 6 -4 10 -10 10 -5 0
-10 -4 -10 -10z"/>
<path d="M705 2430 c3 -5 8 -10 11 -10 2 0 4 5 4 10 0 6 -5 10 -11 10 -5 0 -7
-4 -4 -10z"/>
<path d="M3282 2380 c0 -14 2 -19 5 -12 2 6 2 18 0 25 -3 6 -5 1 -5 -13z"/>
<path d="M4040 2359 c0 -5 5 -7 10 -4 6 3 10 8 10 11 0 2 -4 4 -10 4 -5 0 -10
-5 -10 -11z"/>
<path d="M4090 2359 c0 -5 5 -7 10 -4 6 3 10 8 10 11 0 2 -4 4 -10 4 -5 0 -10
-5 -10 -11z"/>
<path d="M3270 2341 c0 -5 5 -13 10 -16 6 -3 10 -2 10 4 0 5 -4 13 -10 16 -5
3 -10 2 -10 -4z"/>
<path d="M3233 2323 c-15 -5 -17 -33 -3 -33 6 0 10 4 10 10 0 5 7 7 15 4 8 -4
15 -2 15 4 0 12 -21 21 -37 15z"/>
<path d="M3208 2257 c13 -15 4 -28 -28 -40 -10 -3 -7 -6 8 -6 20 -1 23 -6 21
-28 -2 -16 0 -30 5 -33 4 -3 10 13 11 35 2 22 5 49 7 60 2 13 -4 21 -17 23
-16 4 -17 2 -7 -11z"/>
<path d="M1601 2246 c2 -2 15 -9 29 -15 24 -11 24 -11 6 3 -16 13 -49 24 -35
12z"/>
<path d="M4000 2220 c0 -5 5 -10 11 -10 5 0 7 5 4 10 -3 6 -8 10 -11 10 -2 0
-4 -4 -4 -10z"/>
<path d="M3060 2210 c0 -5 5 -10 10 -10 6 0 10 5 10 10 0 6 -4 10 -10 10 -5 0
-10 -4 -10 -10z"/>
<path d="M3125 2180 c-3 -5 1 -10 9 -10 9 0 16 5 16 10 0 6 -4 10 -9 10 -6 0
-13 -4 -16 -10z"/>
<path d="M3250 2156 c0 -9 8 -14 20 -13 24 2 21 21 -3 25 -10 2 -17 -3 -17
-12z"/>
<path d="M3176 2153 c-11 -11 -6 -23 9 -23 8 0 15 4 15 9 0 13 -16 22 -24 14z"/>
<path d="M590 2130 c0 -5 4 -10 9 -10 6 0 13 5 16 10 3 6 -1 10 -9 10 -9 0
-16 -4 -16 -10z"/>
<path d="M3205 2120 c-3 -5 1 -10 9 -10 9 0 16 5 16 10 0 6 -4 10 -9 10 -6 0
-13 -4 -16 -10z"/>
<path d="M3100 2089 c0 -5 5 -7 10 -4 6 3 10 8 10 11 0 2 -4 4 -10 4 -5 0 -10
-5 -10 -11z"/>
<path d="M3255 2079 c-4 -6 -4 -13 0 -17 3 -3 10 0 14 7 5 8 14 10 21 6 9 -5
11 -4 6 3 -9 15 -33 15 -41 1z"/>
<path d="M3317 1985 c3 -14 11 -25 19 -25 10 0 11 6 5 22 -11 31 -29 34 -24 3z"/>
<path d="M992 1980 c-14 -23 -8 -40 13 -40 19 0 25 13 18 38 -7 27 -15 28 -31
2z"/>
<path d="M1050 1973 c0 -10 -3 -28 -6 -39 -4 -16 0 -23 15 -27 12 -3 21 0 21
6 0 7 9 1 19 -12 16 -21 19 -22 25 -6 4 10 3 21 -1 24 -4 3 -8 11 -9 16 -4 35
-18 55 -40 55 -16 0 -24 -6 -24 -17z"/>
<path d="M3290 1960 c0 -5 5 -10 10 -10 6 0 10 5 10 10 0 6 -4 10 -10 10 -5 0
-10 -4 -10 -10z"/>
<path d="M810 1930 c0 -5 5 -10 11 -10 5 0 7 5 4 10 -3 6 -8 10 -11 10 -2 0
-4 -4 -4 -10z"/>
<path d="M3293 1926 c8 -20 -4 -28 -20 -15 -9 9 -13 8 -13 0 0 -6 -7 -11 -15
-11 -8 0 -15 -4 -15 -10 0 -5 7 -10 15 -10 8 0 15 -4 15 -10 0 -5 -7 -10 -15
-10 -8 0 -15 -5 -15 -10 0 -6 10 -8 24 -4 21 5 23 3 20 -23 l-4 -28 11 28 c6
15 18 27 27 27 11 0 13 -3 5 -8 -12 -8 -16 -24 -14 -59 1 -30 31 -31 31 -1 0
34 9 16 13 -27 3 -26 9 -40 19 -40 8 0 22 -8 32 -17 10 -10 22 -18 27 -18 5 0
7 -11 3 -25 -5 -21 -3 -25 15 -25 14 0 21 6 21 20 0 11 -6 20 -12 20 -10 0 -9
3 1 9 11 7 9 10 -6 15 -16 5 -20 15 -19 44 1 33 -1 37 -22 34 -21 -3 -22 0
-17 37 4 38 3 41 -20 41 l-25 0 20 20 c28 28 25 42 -5 28 -21 -10 -27 -8 -39
8 -8 10 -12 22 -10 26 3 5 0 8 -6 8 -7 0 -10 -6 -7 -14z m77 -96 c0 -5 -2 -10
-4 -10 -3 0 -8 5 -11 10 -3 6 -1 10 4 10 6 0 11 -4 11 -10z m40 -78 c0 -13
-12 -22 -22 -16 -10 6 -1 24 13 24 5 0 9 -4 9 -8z"/>
<path d="M3325 1930 c-3 -5 1 -10 9 -10 9 0 16 5 16 10 0 6 -4 10 -9 10 -6 0
-13 -4 -16 -10z"/>
<path d="M3696 1845 c4 -8 8 -15 10 -15 2 0 4 7 4 15 0 8 -4 15 -10 15 -5 0
-7 -7 -4 -15z"/>
<path d="M1061 1821 c-8 -6 -9 -11 -3 -15 6 -3 14 -1 17 5 9 14 2 20 -14 10z"/>
<path d="M2017 1726 c9 -20 20 -36 25 -36 12 0 -16 63 -30 68 -9 3 -7 -8 5
-32z"/>
<path d="M1006 1706 c-14 -22 -14 -25 0 -30 27 -10 34 -7 34 18 0 35 -15 40
-34 12z"/>
<path d="M3860 1581 c0 -6 5 -13 10 -16 6 -3 10 1 10 9 0 9 -4 16 -10 16 -5 0
-10 -4 -10 -9z"/>
<path d="M980 1570 c0 -5 6 -10 14 -10 8 0 18 5 21 10 3 6 -3 10 -14 10 -12 0
-21 -4 -21 -10z"/>
<path d="M3501 1548 c0 -30 1 -31 9 -10 11 26 32 30 23 5 -3 -10 -10 -23 -14
-29 -10 -13 -2 -24 18 -24 17 0 18 61 1 78 -22 22 -38 13 -37 -20z"/>
<path d="M965 1541 c-7 -13 12 -24 26 -16 6 4 13 -2 16 -14 6 -24 18 -27 26
-8 7 18 -8 41 -21 33 -6 -3 -13 -2 -17 4 -8 13 -22 13 -30 1z"/>
<path d="M3875 1540 c-10 -17 -14 -80 -4 -80 18 0 43 -248 27 -267 -7 -9 -7
-13 2 -13 7 0 10 -6 7 -14 -3 -7 -2 -17 3 -22 12 -14 24 -134 12 -134 -13 0 6
-103 21 -112 8 -5 11 -38 10 -98 -1 -71 -5 -96 -19 -111 -9 -10 -12 -19 -6
-19 6 0 12 3 15 8 2 4 2 1 0 -6 -1 -8 -3 -20 -3 -28 0 -20 -24 -17 -45 6 -10
11 -20 18 -22 16 -5 -4 28 -45 59 -75 20 -19 68 -119 68 -142 0 -9 7 -22 15
-29 8 -7 15 -18 15 -24 0 -7 11 -22 25 -34 24 -21 25 -21 25 -2 0 11 -5 20
-10 20 -7 0 -7 6 -1 19 9 15 7 18 -7 17 -15 -1 -17 12 -18 119 -1 84 2 129 12
149 18 38 18 65 -3 88 -14 15 -14 24 -5 57 15 48 15 73 0 105 -10 24 -12 24
-24 8 -12 -16 -13 -16 -14 0 0 9 -6 23 -12 30 -7 8 -18 23 -25 35 -13 23 -19
173 -8 214 3 14 0 48 -8 75 -37 126 -58 201 -61 222 -4 28 -12 37 -21 22z"/>
<path d="M3760 1531 c0 -6 4 -13 10 -16 6 -3 7 1 4 9 -7 18 -14 21 -14 7z"/>
<path d="M411 1514 c0 -11 3 -14 6 -6 3 7 2 16 -1 19 -3 4 -6 -2 -5 -13z"/>
<path d="M3592 1500 c0 -14 2 -19 5 -12 2 6 2 18 0 25 -3 6 -5 1 -5 -13z"/>
<path d="M1035 1480 c-3 -5 7 -12 22 -16 15 -4 30 -11 33 -15 8 -12 64 -24 56
-11 -3 6 0 13 6 16 7 3 4 4 -8 1 -12 -3 -29 3 -42 15 -22 21 -57 26 -67 10z"/>
<path d="M3540 1470 c0 -5 5 -10 10 -10 6 0 10 5 10 10 0 6 -4 10 -10 10 -5 0
-10 -4 -10 -10z"/>
<path d="M3586 1445 c-12 -9 -14 -15 -5 -20 6 -4 15 -2 19 5 6 10 9 9 12 -1 3
-10 6 -9 11 3 8 21 -14 29 -37 13z"/>
<path d="M1155 1420 c-19 -9 -19 -9 3 -16 12 -3 22 -10 22 -15 0 -5 4 -9 10
-9 12 0 7 43 -6 46 -5 1 -18 -1 -29 -6z"/>
<path d="M2278 1393 c6 -10 24 -31 39 -48 66 -69 103 -89 118 -65 3 6 13 10
21 10 8 0 13 -4 10 -9 -3 -5 1 -12 10 -15 24 -9 27 -8 20 10 -4 12 -1 14 14 9
15 -5 18 -3 14 9 -7 18 -56 36 -100 36 -23 0 -37 6 -44 20 -11 20 -45 41 -88
55 -21 6 -22 5 -14 -12z"/>
<path d="M3520 1368 c0 -9 5 -20 10 -23 13 -8 13 5 0 25 -8 13 -10 13 -10 -2z"/>
<path d="M3624 1368 c3 -7 9 -21 12 -30 4 -10 10 -18 15 -18 12 0 11 17 -1 25
-5 3 -7 12 -3 20 3 10 -1 15 -12 15 -10 0 -14 -5 -11 -12z"/>
<path d="M3750 1361 c0 -3 10 -15 22 -28 20 -21 20 -23 3 -23 -26 0 -10 -13
19 -16 23 -2 25 0 22 34 -3 34 -6 37 -35 37 -17 0 -31 -2 -31 -4z"/>
<path d="M3582 1336 c-6 -14 -7 -28 -1 -37 7 -11 9 -11 9 4 0 9 5 17 10 17 12
0 13 27 1 34 -4 3 -13 -5 -19 -18z"/>
<path d="M1265 1330 c3 -5 8 -10 11 -10 2 0 4 5 4 10 0 6 -5 10 -11 10 -5 0
-7 -4 -4 -10z"/>
<path d="M465 1320 c-3 -5 -1 -10 4 -10 6 0 11 5 11 10 0 6 -2 10 -4 10 -3 0
-8 -4 -11 -10z"/>
<path d="M3521 1294 c0 -11 3 -14 6 -6 3 7 2 16 -1 19 -3 4 -6 -2 -5 -13z"/>
<path d="M3620 1295 c0 -8 5 -15 10 -15 6 0 10 7 10 15 0 8 -4 15 -10 15 -5 0
-10 -7 -10 -15z"/>
<path d="M2595 1290 c-3 -5 1 -10 10 -10 9 0 13 5 10 10 -3 6 -8 10 -10 10 -2
0 -7 -4 -10 -10z"/>
<path d="M2668 1293 c6 -2 12 -11 12 -18 0 -8 7 -11 20 -8 11 3 20 9 20 13 0
10 -26 20 -48 19 -11 0 -12 -2 -4 -6z"/>
<path d="M3761 1264 c0 -11 3 -14 6 -6 3 7 2 16 -1 19 -3 4 -6 -2 -5 -13z"/>
<path d="M3556 1255 c4 -8 10 -12 15 -9 11 6 2 24 -11 24 -5 0 -7 -7 -4 -15z"/>
<path d="M2430 1250 c0 -5 5 -10 11 -10 5 0 7 5 4 10 -3 6 -8 10 -11 10 -2 0
-4 -4 -4 -10z"/>
<path d="M3760 1220 c0 -19 3 -21 12 -12 9 9 9 15 0 24 -9 9 -12 7 -12 -12z"/>
<path d="M3808 1233 c6 -2 18 -2 25 0 6 3 1 5 -13 5 -14 0 -19 -2 -12 -5z"/>
<path d="M3510 1224 c0 -16 28 -50 35 -42 4 4 -2 17 -14 29 -12 13 -21 18 -21
13z"/>
<path d="M3682 1190 c0 -14 2 -19 5 -12 2 6 2 18 0 25 -3 6 -5 1 -5 -13z"/>
<path d="M2817 1193 c-12 -11 -8 -23 6 -18 15 6 60 -31 53 -44 -3 -5 3 -7 14
-4 16 4 19 2 14 -11 -3 -9 -1 -16 5 -16 25 0 9 39 -28 68 -41 33 -52 37 -64
25z"/>
<path d="M3618 1184 c-5 -4 -8 -16 -8 -27 0 -16 -3 -17 -15 -7 -12 10 -16 9
-21 -3 -5 -15 2 -26 57 -86 15 -15 30 -39 34 -52 4 -13 11 -26 14 -29 16 -12
71 -105 71 -119 0 -21 67 -153 82 -163 24 -15 31 -8 12 13 -18 20 -18 20 11
13 27 -7 29 -6 16 10 -8 10 -21 14 -32 11 -14 -5 -22 1 -29 20 -5 14 -10 33
-10 42 0 13 3 13 15 3 13 -11 15 -8 15 14 0 14 -5 26 -10 26 -7 0 -8 13 -4 35
4 23 2 35 -5 35 -6 0 -11 -6 -11 -14 0 -9 -9 -14 -20 -13 -12 1 -20 8 -20 19
0 9 -5 20 -11 23 -6 4 -8 13 -5 21 4 10 0 14 -12 12 -13 -2 -18 5 -20 32 l-3
35 21 -25 c11 -14 20 -23 21 -20 0 3 3 20 5 37 4 27 2 32 -10 27 -12 -4 -16 0
-16 15 0 14 -9 25 -26 31 -36 14 -37 13 -30 -16 l7 -26 -25 19 c-19 14 -25 29
-28 66 -2 27 -6 45 -10 41z m172 -314 c0 -5 -4 -10 -10 -10 -5 0 -10 5 -10 10
0 6 5 10 10 10 6 0 10 -4 10 -10z"/>
<path d="M3647 1125 c-4 -8 -2 -17 3 -20 6 -4 10 -4 10 -1 0 2 3 11 6 20 3 9
2 16 -4 16 -5 0 -12 -7 -15 -15z"/>
<path d="M3810 1122 c0 -5 11 -14 25 -20 26 -12 33 -4 13 16 -14 14 -38 16
-38 4z"/>
<path d="M2929 1088 c-1 -7 -1 -19 0 -25 1 -7 -3 -13 -9 -13 -5 0 -10 9 -10
20 0 28 -20 25 -21 -2 -2 -42 2 -53 29 -75 21 -18 23 -23 10 -23 -9 0 -24 10
-32 22 -12 16 -18 19 -28 10 -11 -9 -13 -4 -10 23 2 19 8 35 13 35 5 0 9 4 9
9 0 6 -18 9 -40 8 -25 -1 -40 -6 -40 -14 0 -9 8 -11 25 -7 28 7 30 -1 15 -42
-12 -32 11 -94 35 -94 9 0 12 -6 9 -15 -4 -8 -1 -15 6 -15 16 0 40 -26 40 -44
0 -18 20 -32 29 -20 3 5 16 15 29 22 18 10 22 10 22 -1 0 -7 -6 -19 -12 -26
-11 -11 -9 -11 9 -2 28 14 30 14 36 -3 4 -10 1 -13 -9 -9 -10 4 -12 0 -8 -11
3 -8 9 -15 12 -14 25 3 52 -4 52 -13 0 -15 26 -39 34 -32 3 4 6 1 6 -5 0 -7 7
-12 15 -12 12 0 11 5 -6 23 -11 12 -32 39 -45 60 -13 20 -29 37 -35 37 -6 0
-8 7 -5 16 8 22 -4 40 -16 23 -5 -9 -6 -3 -2 16 6 26 5 28 -8 17 -13 -10 -15
-9 -11 12 3 16 -3 37 -18 58 -31 43 -49 77 -49 94 0 17 -20 29 -21 12z m27
-194 c-3 -8 -2 -12 4 -9 6 3 10 -1 10 -9 0 -22 -17 -20 -29 3 -10 19 -6 31 12
31 5 0 6 -7 3 -16z"/>
<path d="M3855 1070 c3 -5 8 -10 11 -10 2 0 4 5 4 10 0 6 -5 10 -11 10 -5 0
-7 -4 -4 -10z"/>
<path d="M3901 1075 c1 -19 18 -51 18 -35 0 8 -4 22 -9 30 -5 8 -9 11 -9 5z"/>
<path d="M3830 1000 c-30 -6 -31 -8 -8 -9 14 0 33 -4 42 -7 11 -4 16 -1 16 10
0 9 -3 15 -7 15 -5 -1 -24 -5 -43 -9z"/>
<path d="M3760 960 c0 -14 4 -32 10 -40 8 -12 10 -12 15 2 4 10 0 27 -9 40
l-16 22 0 -24z"/>
<path d="M3875 953 c-8 -26 -16 -28 -34 -10 -10 10 -12 8 -9 -8 2 -12 11 -20
23 -20 11 0 24 -9 30 -21 5 -11 16 -19 23 -16 8 2 10 8 3 15 -5 7 -14 28 -19
47 -10 32 -11 33 -17 13z"/>
<path d="M3837 869 c7 -7 15 -10 18 -7 3 3 -2 9 -12 12 -14 6 -15 5 -6 -5z"/>
<path d="M3155 700 c3 -5 13 -10 21 -10 8 0 12 5 9 10 -3 6 -13 10 -21 10 -8
0 -12 -4 -9 -10z"/>
<path d="M4127 462 c-21 -43 -27 -70 -25 -110 2 -50 12 -72 25 -58 3 3 8 36
10 73 2 38 9 85 15 106 17 58 5 52 -25 -11z"/>
</g>
</svg>
