<?xml version="1.0" standalone="no"?>
<!DOCTYPE svg PUBLIC "-//W3C//DTD SVG 20010904//EN"
 "http://www.w3.org/TR/2001/REC-SVG-20010904/DTD/svg10.dtd">
<svg version="1.0" xmlns="http://www.w3.org/2000/svg"
 width="512.000000pt" height="640.000000pt" viewBox="0 0 512.000000 640.000000"
 preserveAspectRatio="xMidYMid meet">

<g transform="translate(0.000000,640.000000) scale(0.100000,-0.100000)"
fill="#000000" stroke="none">
<path d="M1772 6218 c-7 -7 -12 -9 -12 -5 0 4 -13 1 -30 -8 -35 -18 -54 -19
-44 -3 4 7 3 8 -5 4 -6 -4 -9 -11 -6 -16 3 -6 -17 -9 -47 -7 -48 2 -53 0 -54
-19 -2 -38 -34 -65 -34 -29 0 8 8 15 17 15 12 0 14 3 6 11 -8 8 -18 6 -38 -7
-25 -16 -26 -19 -9 -25 21 -9 6 -13 -35 -9 -15 1 -21 -2 -16 -10 4 -7 -1 -9
-17 -5 -16 4 -32 -2 -53 -20 l-30 -25 30 6 c17 3 40 7 53 10 12 2 22 0 22 -5
0 -6 -17 -13 -37 -16 -21 -3 -46 -10 -55 -16 -10 -5 -18 -6 -18 -2 0 5 -11 9
-25 9 -20 2 -25 -3 -26 -25 -1 -15 -3 -19 -6 -9 -5 21 -45 11 -99 -26 -21 -14
-46 -26 -56 -26 -9 0 -21 -6 -25 -14 -4 -8 -12 -15 -18 -16 -5 -1 -25 -15 -42
-31 -21 -19 -33 -24 -33 -15 0 9 -10 5 -29 -13 -15 -15 -59 -47 -97 -73 -84
-57 -139 -112 -129 -129 5 -8 4 -10 -4 -5 -15 10 -36 -7 -81 -69 -48 -66 -173
-306 -195 -375 -10 -30 -21 -59 -25 -65 -8 -12 -80 -208 -80 -219 0 -5 -6 -22
-13 -39 -23 -54 -85 -249 -98 -307 -17 -79 -32 -97 -25 -32 3 29 2 67 -1 84
l-6 31 -23 -44 c-25 -47 -32 -32 -15 29 5 17 6 32 2 32 -5 0 -13 -21 -19 -47
-21 -93 -36 -148 -41 -153 -4 -3 -7 -18 -8 -35 -2 -33 -30 -141 -43 -166 -5
-9 -25 -85 -45 -170 -20 -85 -41 -171 -47 -192 -6 -20 -8 -40 -5 -44 4 -3 7 3
7 15 0 12 6 22 13 22 6 0 13 12 14 28 2 41 12 94 22 122 16 42 41 137 41 157
1 10 9 36 20 58 11 22 19 50 20 62 0 12 4 32 9 45 5 13 12 36 16 51 4 20 10
27 20 23 9 -3 15 0 15 8 0 8 3 22 7 32 4 12 3 15 -5 10 -17 -10 -15 20 3 37 7
8 17 26 21 41 3 14 11 26 16 26 6 0 7 -9 3 -22 -3 -13 -12 -48 -20 -78 -18
-78 -26 -95 -36 -78 -7 10 -9 8 -10 -7 -1 -11 -1 -28 0 -37 1 -10 -2 -18 -7
-18 -5 0 -8 -21 -7 -47 1 -27 0 -42 -3 -34 -3 8 -10 1 -19 -20 -10 -23 -11
-35 -3 -37 7 -3 8 -8 1 -16 -20 -24 -82 -232 -87 -291 -1 -22 -12 -69 -23
-104 -12 -35 -21 -75 -21 -90 1 -25 1 -26 17 -6 14 18 15 18 9 2 -3 -10 -6
-21 -6 -23 0 -2 -6 -4 -14 -4 -12 0 -14 -100 -15 -639 l-2 -640 27 -108 c14
-59 33 -120 40 -135 8 -16 12 -28 9 -28 -3 0 4 -9 15 -20 14 -14 20 -34 21
-67 1 -45 2 -46 9 -16 4 18 3 55 -3 83 -9 49 -5 72 10 56 5 -4 11 -47 15 -94
12 -133 12 -164 5 -197 -6 -30 1 -19 19 30 11 31 11 31 14 108 2 39 5 62 7 50
2 -13 11 -23 19 -23 9 0 14 -12 15 -37 0 -21 2 -47 5 -58 2 -11 7 -49 12 -85
8 -56 9 -59 11 -22 1 31 5 42 17 42 12 0 15 10 13 48 -1 26 -5 52 -8 57 -8 13
-8 75 0 75 13 0 39 -75 40 -118 1 -43 1 -44 9 -18 5 16 7 33 4 38 -3 4 1 6 8
3 7 -3 21 -19 30 -36 10 -16 14 -27 8 -24 -5 3 -12 0 -16 -6 -5 -8 0 -10 17
-6 43 11 57 -11 61 -96 2 -47 -1 -77 -7 -77 -5 0 -4 -4 4 -9 9 -6 11 -16 7
-27 -11 -29 -17 -104 -8 -104 9 0 5 -53 -5 -80 -3 -8 -7 -35 -9 -59 -2 -24 -8
-49 -14 -55 -12 -12 -14 -30 -3 -23 5 3 9 -15 11 -40 2 -29 -1 -42 -7 -38 -7
4 -9 -6 -5 -27 4 -18 7 -37 8 -43 0 -5 -10 -11 -24 -13 l-25 -3 0 88 c0 48 4
94 8 100 5 8 3 13 -4 13 -8 0 -9 11 -4 38 4 20 9 47 11 60 5 26 -12 30 -20 5
-2 -10 -8 -42 -11 -72 -4 -31 -15 -63 -26 -74 -10 -11 -16 -23 -13 -26 3 -3 9
1 13 8 6 10 10 10 16 2 4 -7 2 -18 -5 -26 -7 -9 -8 -15 0 -20 14 -8 13 -62 -2
-71 -8 -5 -9 2 -5 24 4 19 2 32 -3 32 -15 0 -12 -78 3 -83 9 -3 8 -8 -3 -22
-14 -16 -13 -17 8 -11 12 4 22 3 22 -2 0 -6 -5 -12 -11 -14 -5 -2 -13 -24 -16
-48 -3 -25 -11 -48 -17 -52 -8 -5 -7 -8 2 -8 6 0 12 -9 12 -20 0 -11 -7 -20
-15 -20 -8 0 -15 -4 -15 -10 0 -5 6 -10 14 -10 8 0 16 -13 18 -30 5 -33 -1
-37 -21 -17 -8 6 -11 7 -8 1 4 -6 3 -31 -2 -55 l-9 -44 -2 65 c-1 36 -3 78 -5
95 -3 18 -1 25 4 17 7 -11 9 -11 13 0 8 20 -3 78 -14 78 -7 0 -8 24 -3 65 6
57 4 65 -10 65 -12 0 -15 6 -10 20 4 12 2 20 -5 20 -9 0 -9 6 1 22 17 28 17
64 1 61 -15 -4 -15 10 0 25 8 8 8 15 -1 26 -13 15 -7 56 9 66 13 8 24 80 12
80 -6 0 -17 7 -25 15 -13 12 -15 9 -21 -27 -8 -48 -1 -61 13 -24 13 32 35 36
25 4 -4 -13 -13 -27 -19 -33 -19 -15 -28 -82 -13 -89 10 -5 10 -7 1 -12 -16
-7 -17 -64 -1 -64 9 0 9 -3 0 -12 -7 -7 -12 -28 -12 -48 0 -19 -7 -45 -15 -57
-13 -19 -13 -22 1 -27 8 -3 12 -2 9 4 -3 5 4 14 15 20 26 14 27 -3 2 -28 -10
-10 -22 -27 -27 -38 -8 -16 -10 -14 -13 14 -2 18 -7 30 -11 27 -5 -2 -21 7
-36 21 -30 28 -48 25 -22 -4 10 -10 24 -43 33 -72 14 -47 14 -54 0 -68 -13
-13 -13 -17 -1 -26 14 -11 29 -119 18 -130 -10 -10 -34 24 -26 36 10 16 11 58
2 58 -4 0 -10 -16 -14 -36 -4 -26 -2 -41 10 -54 12 -13 14 -28 9 -59 -4 -28
-3 -41 5 -41 6 0 12 10 12 23 1 16 2 18 6 5 2 -10 9 -18 13 -18 5 0 7 -12 4
-27 -3 -16 0 -39 6 -53 10 -24 10 -23 6 8 -4 24 -2 32 9 32 10 0 15 10 15 29
0 16 6 31 15 35 17 6 20 -5 5 -20 -6 -6 -7 -19 -4 -29 7 -18 8 -18 15 1 5 13
8 3 9 -31 1 -53 7 -141 15 -215 7 -66 13 -135 19 -219 3 -41 10 -79 15 -84 6
-6 7 6 4 30 -3 26 -1 43 7 48 8 5 11 0 10 -16 -1 -13 -1 -28 0 -34 1 -5 4 -23
5 -40 2 -16 5 -41 8 -55 2 -14 5 -36 6 -49 3 -54 14 -7 13 54 -1 40 3 63 8 60
6 -3 10 -13 10 -21 0 -25 15 -15 16 11 2 18 -3 25 -17 25 -18 0 -24 14 -19 53
1 10 -4 25 -10 33 -10 11 -9 14 4 14 10 0 16 -8 16 -22 0 -12 3 -18 8 -14 9
10 9 146 -1 139 -4 -2 -7 23 -7 56 0 34 4 61 9 61 15 0 23 -72 26 -219 2 -75
8 -156 14 -181 5 -26 7 -57 4 -70 -5 -17 -3 -21 7 -15 13 8 9 109 -6 149 -6
16 -4 17 17 11 l24 -7 -23 24 c-26 28 -27 35 -8 74 11 24 12 45 1 129 -7 55
-9 104 -5 109 10 10 25 -78 16 -99 -3 -8 -1 -15 5 -15 6 0 9 -17 8 -37 -5 -70
1 -144 10 -139 5 4 8 -9 7 -27 -2 -18 2 -37 8 -43 13 -12 15 67 2 103 -4 12
-2 31 3 42 8 14 8 20 -1 23 -10 4 -10 10 -1 31 7 15 8 27 3 29 -6 2 -12 32
-14 68 -3 36 -5 67 -6 70 -1 3 -2 9 -1 14 5 26 6 196 1 196 -5 0 -3 87 3 150
3 19 1 40 -4 45 -4 6 -8 20 -8 30 0 11 -2 38 -4 59 -5 39 8 94 20 82 6 -5 15
-93 13 -123 0 -7 -1 -21 -2 -30 0 -10 3 -47 6 -83 12 -105 12 -180 1 -180 -6
0 -5 -4 1 -8 7 -4 14 -55 18 -127 12 -235 17 -311 26 -402 6 -51 10 -97 10
-103 0 -5 5 -10 10 -10 6 0 10 18 10 39 0 22 4 42 9 45 5 3 12 -40 17 -97 7
-86 9 -95 14 -57 3 25 2 50 -1 55 -4 6 -6 27 -4 48 2 21 0 60 -4 88 -4 27 -4
49 0 49 15 0 20 -21 25 -98 2 -42 7 -93 11 -112 3 -19 5 -43 4 -53 -2 -13 3
-18 16 -15 19 4 18 2 22 162 1 56 12 55 17 -1 2 -21 6 -52 9 -68 3 -17 1 -45
-4 -63 -6 -20 -6 -32 0 -32 5 0 9 6 9 13 0 8 3 8 9 -2 5 -8 16 -11 26 -8 9 4
13 11 10 17 -4 6 -10 8 -15 5 -4 -3 -6 4 -3 16 4 14 8 17 13 8 9 -14 30 19 30
46 0 9 4 14 9 10 6 -3 3 -24 -6 -51 -15 -45 -11 -72 7 -44 7 10 10 11 10 3 0
-26 21 -12 27 17 7 39 27 39 21 0 l-5 -30 578 0 577 0 7 53 c12 98 46 270 61
311 27 73 57 136 65 136 4 0 5 10 3 23 -2 12 -2 16 2 9 8 -17 24 -5 24 19 0
10 9 28 19 38 10 10 22 29 26 40 3 12 11 18 17 15 7 -4 8 -2 4 4 -4 7 -2 17 3
24 6 7 23 28 37 46 15 18 29 30 32 27 3 -2 -3 -15 -14 -27 -32 -38 105 89 201
186 50 51 113 105 140 121 28 16 56 35 64 42 7 8 31 23 53 34 22 11 38 22 36
24 -2 2 -20 5 -41 7 -31 2 -36 5 -31 20 3 10 1 18 -5 18 -6 0 -11 8 -12 18 0
11 -2 12 -6 4 -4 -10 -8 -10 -19 -1 -10 8 -11 15 -4 25 9 10 6 11 -11 7 -20
-6 -21 -3 -15 23 5 23 4 26 -5 14 -8 -12 -9 -9 -5 13 4 15 2 27 -4 27 -5 0
-10 6 -10 14 0 8 -5 16 -10 18 -6 2 -11 35 -13 75 -3 68 -16 114 -18 62 l-1
-24 -8 25 c-5 17 -3 29 7 37 9 7 11 13 4 18 -6 3 -11 17 -11 30 0 17 -4 23
-14 19 -11 -4 -16 8 -21 51 -5 36 -11 52 -16 44 -12 -21 -23 15 -16 56 5 31 3
35 -16 35 -16 0 -18 3 -9 12 7 7 12 26 12 44 0 18 6 34 13 37 10 4 10 7 0 18
-11 11 -13 10 -13 -4 0 -20 -11 -22 -28 -5 -9 9 -15 8 -27 -8 -12 -15 -16 -16
-24 -5 -7 11 -11 9 -21 -10 -17 -32 -15 -30 -34 -23 -9 3 -16 15 -16 25 0 24
20 25 21 2 1 -12 4 -9 8 7 5 17 13 24 25 22 10 -2 15 1 12 6 -8 13 13 28 52
37 25 5 32 3 32 -9 0 -9 4 -16 10 -16 5 0 7 14 3 33 -6 29 -5 31 10 18 15 -12
18 -10 26 10 11 29 6 39 -20 39 -10 0 -19 4 -19 10 0 6 9 6 26 0 14 -6 26 -10
28 -10 1 0 1 13 -2 29 -2 19 -12 32 -26 36 -18 6 -19 8 -3 12 9 2 17 10 17 17
0 15 86 106 100 106 6 0 10 5 10 10 0 7 -6 7 -19 1 -10 -6 -21 -8 -24 -4 -7 6
12 27 33 36 12 4 11 6 -3 6 -16 1 -44 -12 -71 -32 -53 -38 -86 -54 -109 -51
-19 2 -27 -2 -27 -13 0 -9 -6 -13 -15 -10 -8 4 -17 2 -20 -3 -4 -6 -17 -10
-30 -10 -13 0 -36 -7 -52 -15 -15 -8 -50 -24 -78 -36 -79 -34 -178 -83 -206
-102 -14 -9 -46 -19 -71 -21 -25 -3 -64 -10 -88 -16 -23 -6 -53 -9 -66 -6 -12
3 -26 2 -29 -4 -3 -5 0 -11 7 -11 15 -2 -59 -18 -84 -18 -10 -1 -18 3 -18 8 0
5 6 9 13 8 6 0 26 1 42 2 22 1 26 4 15 10 -8 6 -18 7 -22 4 -5 -2 -32 -5 -61
-5 -90 0 -91 0 -78 16 9 11 8 15 -5 20 -11 4 -18 0 -21 -14 -3 -11 -11 -20
-18 -20 -22 0 -77 52 -71 66 3 8 -1 14 -8 14 -8 0 -20 15 -29 33 -8 17 -22 48
-31 68 -23 49 -17 111 15 146 19 21 20 25 6 20 -12 -4 -16 -3 -11 4 3 6 15 9
25 6 10 -3 22 -1 25 5 3 5 33 21 66 35 45 20 58 30 55 43 -3 13 5 20 32 29 20
6 46 19 56 29 11 10 28 23 38 28 14 8 10 10 -20 11 -28 0 -33 -1 -18 -7 17 -7
17 -9 4 -14 -26 -11 -68 -12 -70 -1 -2 6 14 21 34 34 45 30 42 40 -4 12 -36
-22 -61 -18 -32 6 17 13 15 14 -14 10 -24 -2 -33 1 -33 11 0 8 -6 12 -14 9
-26 -10 -7 19 20 32 14 6 23 15 20 20 -3 5 15 11 40 13 46 3 72 -11 59 -32 -3
-5 -1 -10 6 -10 7 0 10 11 7 30 -4 23 -2 27 8 19 7 -6 16 -19 19 -30 11 -33
25 -21 20 17 -4 30 -2 34 10 24 8 -7 14 -15 13 -18 -2 -19 4 -22 23 -12 12 7
18 18 15 26 -4 11 -2 12 16 1 16 -9 22 -9 25 1 3 6 13 12 24 12 10 0 19 4 19
10 0 5 13 7 28 4 19 -4 32 -1 42 10 26 33 -54 86 -86 57 -13 -12 -182 -23
-188 -12 -4 5 -25 12 -49 16 -23 4 -55 14 -70 22 -16 8 -31 12 -34 10 -2 -3
-19 -1 -36 4 -18 6 -52 12 -77 14 -25 3 -70 7 -100 10 -30 3 -72 7 -93 9 -48
5 -50 7 -36 42 6 16 11 49 10 74 l-2 46 43 9 c33 8 44 15 46 33 3 20 0 22 -37
19 -46 -4 -51 5 -26 53 15 29 15 30 -5 30 -12 0 -19 -4 -16 -8 6 -11 -30 -43
-39 -34 -3 4 -11 0 -16 -8 -8 -11 -9 -6 -5 19 5 29 4 33 -13 28 -15 -4 -31 10
-65 54 -25 33 -46 64 -46 69 0 14 18 12 23 -2 2 -7 2 -4 -1 7 -13 49 -3 113
26 167 34 63 72 155 103 248 11 36 30 74 40 86 16 17 20 40 24 123 4 91 2 104
-16 122 -10 10 -19 23 -19 29 0 5 -9 14 -20 20 -11 6 -20 17 -20 25 0 8 -7 18
-15 23 -9 4 -17 18 -19 29 -9 44 -24 61 -51 56 -18 -4 -25 -1 -25 11 0 9 -6
16 -14 16 -8 0 -16 6 -19 13 -3 7 -33 18 -67 25 -34 6 -68 16 -76 23 -16 13
-18 78 -5 127 6 18 12 72 16 120 3 48 8 95 11 106 4 13 2 16 -6 11 -9 -6 -10
11 -5 71 7 81 22 171 24 144 1 -13 2 -13 11 0 6 8 7 32 4 54 -4 28 -3 37 5 31
8 -4 11 4 10 27 -3 47 10 97 36 138 22 34 78 90 91 90 4 0 28 16 55 36 27 20
49 34 49 31 0 -3 21 1 47 9 26 8 61 11 80 8 25 -5 33 -3 31 6 -2 7 8 17 22 21
14 4 19 7 12 8 -7 1 -10 6 -7 11 3 6 27 10 53 10 46 1 46 1 22 15 -25 14 -25
14 10 9 19 -4 53 -12 75 -19 23 -8 42 -9 46 -4 7 12 56 6 91 -11 24 -11 62
-54 63 -70 0 -3 10 -20 23 -37 13 -18 21 -33 17 -33 -3 0 10 -30 31 -67 25
-47 37 -81 37 -110 0 -23 5 -41 10 -40 5 1 18 -25 29 -58 23 -71 28 -86 79
-229 21 -59 44 -115 52 -125 16 -19 47 -100 47 -123 0 -20 -48 -30 -150 -34
-127 -4 -191 -13 -202 -29 -5 -6 -8 -5 -8 3 0 14 -27 17 -32 3 -1 -6 -14 -12
-28 -14 -41 -8 -109 -47 -115 -68 -7 -22 -21 -25 -28 -6 -7 19 -20 0 -21 -32
-1 -22 -4 -27 -13 -19 -10 8 -13 4 -13 -16 0 -17 -4 -25 -11 -20 -8 4 -7 0 1
-15 6 -12 15 -19 21 -16 5 4 12 -1 15 -10 8 -20 63 -11 80 13 10 14 12 13 19
-7 4 -13 10 -20 14 -15 12 17 59 36 70 29 7 -4 18 -2 25 4 8 7 18 11 22 9 5
-1 19 3 30 10 12 6 24 9 27 5 3 -3 13 2 22 11 10 10 33 16 59 16 23 0 46 3 50
8 9 9 246 10 246 0 0 -3 23 -11 50 -18 45 -11 54 -18 86 -66 20 -30 47 -63 61
-74 14 -11 22 -20 18 -20 -4 0 3 -9 16 -21 l24 -20 -25 7 c-14 4 -63 26 -110
49 -82 41 -88 43 -190 44 -62 1 -130 -4 -165 -12 -77 -18 -172 -63 -185 -88
-6 -10 -15 -19 -20 -19 -17 0 -11 25 8 39 13 9 17 21 14 37 l-4 24 -25 -27
c-14 -16 -22 -22 -19 -15 5 8 -1 12 -16 12 -22 1 -22 1 5 16 27 14 37 34 17
34 -5 0 -10 -4 -10 -10 0 -5 -9 -10 -20 -10 -15 0 -20 -7 -21 -27 l-1 -28 -8
30 c-6 25 -8 26 -9 7 -1 -16 -6 -22 -18 -20 -15 3 -18 -5 -19 -55 0 -41 4 -61
14 -66 9 -5 13 -17 10 -29 -4 -13 0 -23 9 -26 7 -3 19 -20 25 -36 6 -20 15
-29 24 -26 7 3 16 1 19 -4 4 -6 1 -10 -5 -10 -6 0 -9 -4 -5 -9 3 -6 19 -8 35
-6 33 4 70 -4 70 -15 0 -5 -18 -6 -40 -3 -22 3 -40 2 -40 -1 0 -18 33 -38 55
-34 13 3 22 1 19 -3 -2 -4 5 -13 17 -20 16 -8 23 -8 29 1 4 7 17 9 35 4 19 -5
26 -3 21 4 -4 6 2 8 15 5 13 -4 27 2 40 16 21 22 35 28 24 11 -12 -19 26 -23
40 -4 14 18 16 18 26 1 12 -21 29 -13 29 14 0 16 -8 19 -47 21 -47 1 -104 4
-131 7 -7 0 -11 5 -8 9 3 5 -4 23 -15 40 -28 47 -24 67 15 86 46 22 66 20 66
-4 0 -12 21 -41 46 -65 54 -53 82 -57 137 -19 39 26 117 43 117 24 0 -5 -6
-10 -14 -10 -21 0 -31 -21 -15 -31 24 -15 52 -11 45 7 -5 14 0 15 39 10 42 -7
62 4 33 18 -7 3 -3 3 8 1 14 -4 24 0 27 9 3 8 16 16 29 18 18 2 24 10 26 36 3
30 1 32 -26 32 -16 0 -35 7 -43 16 -11 13 -9 14 17 8 l29 -7 -19 22 c-21 24
-10 28 19 7 11 -8 25 -12 32 -9 7 3 13 0 13 -6 0 -6 12 -16 27 -22 19 -7 23
-13 15 -18 -8 -5 -2 -8 16 -8 18 0 41 -10 58 -27 16 -14 47 -35 69 -46 48 -24
95 -66 95 -85 0 -8 5 -15 11 -15 6 0 8 7 5 16 -4 10 -1 14 6 12 18 -6 23 -39
8 -48 -9 -6 -6 -11 9 -20 16 -8 20 -17 16 -33 -7 -22 -7 -22 10 1 16 22 16 24
-1 37 -17 12 -17 13 7 12 23 -2 25 -6 24 -46 0 -24 5 -46 11 -48 7 -2 10 5 7
20 -3 14 0 28 6 31 7 5 11 -2 11 -18 0 -16 6 -26 15 -26 8 0 20 -9 27 -19 9
-15 15 -17 25 -9 10 8 13 5 13 -11 0 -11 5 -21 11 -21 8 0 10 -12 6 -36 -4
-25 -1 -40 11 -54 55 -60 63 -70 57 -81 -5 -7 -1 -9 12 -5 17 5 22 1 27 -24 4
-22 10 -29 18 -23 7 4 20 8 28 10 33 5 58 25 53 44 -3 10 0 19 6 19 7 0 9 -16
6 -45 -4 -42 7 -61 18 -32 3 6 6 -13 7 -43 1 -44 3 -50 10 -32 5 12 14 22 20
22 13 0 3 -46 -16 -77 -12 -19 -12 -22 0 -17 12 4 14 -5 10 -48 -3 -29 -8 -60
-11 -68 -7 -19 -9 -34 -21 -145 -5 -49 -15 -103 -21 -118 -13 -34 -14 -58 -1
-36 6 10 18 15 32 12 24 -4 39 18 54 82 8 33 34 77 34 57 0 -6 5 -12 10 -12 6
0 10 6 9 13 -1 6 -1 19 0 27 1 13 3 13 11 0 5 -9 5 -65 0 -134 -4 -65 -6 -126
-3 -136 3 -10 0 -21 -6 -24 -16 -10 -13 -58 4 -80 10 -14 15 -15 15 -6 0 11 3
11 12 2 8 -8 8 -15 0 -25 -9 -11 -8 -26 3 -63 17 -57 18 -67 6 -60 -4 3 -6 -6
-3 -20 3 -16 9 -23 18 -20 17 7 19 -20 2 -28 -9 -3 -8 -8 5 -16 10 -6 17 -23
17 -40 0 -22 5 -30 18 -30 10 0 13 -3 6 -8 -9 -6 -12 -134 -4 -152 4 -10 7
-25 8 -53 1 -17 6 -26 12 -22 7 4 9 -3 5 -22 -3 -15 -2 -22 1 -15 3 6 9 12 13
12 11 0 33 -78 26 -90 -3 -5 0 -7 7 -5 9 4 28 -19 52 -60 37 -64 38 -66 21
-85 -16 -18 -17 -20 -2 -20 10 0 17 7 17 15 0 8 5 15 10 15 6 0 10 -3 10 -7 0
-5 11 -21 25 -37 31 -36 24 -48 -9 -17 -23 22 -46 22 -46 0 0 -6 4 -7 10 -4 5
3 21 -6 35 -22 20 -23 26 -25 34 -14 8 12 12 12 25 2 20 -17 21 -32 1 -25 -29
12 -4 -24 36 -50 21 -15 39 -31 39 -37 0 -5 4 -8 8 -5 5 3 16 -6 26 -19 35
-46 142 -153 186 -187 61 -45 100 -70 100 -62 0 3 14 -6 31 -20 17 -14 35 -24
39 -21 5 3 11 1 15 -5 4 -6 11 -7 17 -4 6 4 13 3 17 -2 3 -5 32 -27 64 -48 31
-22 57 -45 57 -52 0 -8 6 -11 14 -8 7 3 16 -2 20 -11 3 -9 11 -13 17 -9 7 4 9
3 6 -3 -4 -6 20 -32 53 -59 32 -27 57 -55 55 -61 -2 -7 -1 -12 3 -12 25 4 45
-4 64 -26 23 -26 38 -32 38 -15 0 6 -4 10 -9 10 -6 0 -27 16 -48 36 -32 31
-28 29 25 -11 43 -32 61 -52 58 -62 -5 -11 -2 -13 9 -9 9 3 18 -1 21 -9 4 -8
11 -15 18 -15 20 0 93 -82 110 -124 9 -21 29 -52 46 -69 16 -16 27 -33 25 -37
-2 -3 18 -28 45 -54 27 -26 52 -56 55 -67 4 -10 12 -19 18 -19 7 0 6 -4 -3
-10 -13 -9 -13 -10 0 -10 8 0 27 -23 43 -51 17 -30 32 -47 39 -43 6 4 8 3 5
-3 -4 -6 11 -33 33 -59 22 -27 52 -71 67 -99 56 -109 53 -136 53 436 0 476 -2
527 -17 549 -9 14 -23 28 -29 33 -7 4 -11 14 -8 22 4 8 -1 18 -10 21 -9 3 -13
11 -9 17 3 5 -2 16 -13 24 -15 11 -16 16 -6 22 11 6 10 9 -5 13 -11 3 -27 28
-41 64 -13 32 -27 68 -32 79 -12 30 -45 132 -65 200 -10 33 -21 69 -26 80 -4
11 -13 38 -20 60 -16 50 -28 65 -22 28 4 -22 2 -25 -6 -13 -6 8 -11 23 -11 33
0 11 -6 33 -14 50 -35 78 -56 167 -50 208 4 22 2 50 -3 62 -25 53 -32 77 -48
164 -10 51 -15 99 -11 108 3 10 2 14 -5 10 -6 -4 -10 -1 -8 6 4 35 -2 89 -11
89 -5 0 -10 -10 -10 -21 0 -25 -26 -48 -54 -49 -14 0 -17 5 -14 25 3 14 1 28
-3 31 -17 10 -10 80 10 98 10 9 22 31 25 49 9 45 26 17 26 -45 0 -43 -19 -77
-28 -50 -7 22 -19 12 -15 -12 4 -18 10 -23 22 -18 31 11 38 34 32 96 -3 34 -5
86 -5 116 1 30 -4 58 -10 62 -8 6 -8 8 1 8 6 0 9 9 5 22 -4 18 -2 20 16 16 19
-5 22 -2 23 25 1 18 1 35 0 40 0 4 3 7 7 7 5 0 10 30 11 67 1 37 4 70 7 74 2
4 0 10 -6 14 -6 4 -8 11 -4 16 3 5 0 16 -6 24 -9 10 -9 19 0 32 10 16 10 16 5
-3 -4 -14 -1 -21 10 -21 13 0 15 9 10 46 -10 77 -16 101 -25 101 -4 0 -10 21
-13 48 -3 26 -8 59 -12 75 -5 17 -3 27 4 27 6 0 11 -8 12 -17 0 -13 3 -12 10
6 7 19 4 33 -16 67 -14 23 -25 55 -25 70 0 15 -3 24 -6 21 -8 -7 -68 50 -77
73 -4 12 -6 11 -6 -3 -1 -21 42 -99 64 -117 21 -17 19 -43 -5 -58 -18 -11 -19
-10 -11 11 6 16 3 27 -10 41 -17 17 -19 18 -19 3 0 -9 4 -17 8 -17 5 0 7 -13
4 -30 -3 -21 0 -32 12 -36 9 -3 16 -16 16 -28 0 -12 5 -27 11 -33 14 -14 2
-70 -17 -81 -10 -6 -12 -15 -5 -37 4 -17 5 -39 1 -49 -5 -16 -9 -10 -18 26
-16 64 -15 79 4 71 13 -5 14 -2 6 13 -18 32 -25 58 -23 81 1 11 -3 24 -8 28
-7 3 -11 -3 -12 -17 l0 -23 -9 23 c-5 12 -7 29 -4 37 4 8 2 15 -4 15 -6 0 -20
20 -32 45 -20 42 -23 44 -36 28 -16 -22 -19 -1 -4 27 7 13 6 27 -2 47 -7 15
-12 33 -13 38 -2 19 -28 60 -50 77 -33 25 -169 178 -159 178 10 -1 104 -86
104 -94 0 -3 8 -14 19 -25 10 -10 23 -27 29 -37 11 -18 11 -18 26 1 14 18 15
18 16 3 0 -10 4 -18 8 -18 5 0 14 -10 20 -22 6 -13 11 -18 11 -11 1 7 -11 33
-25 58 -14 26 -23 53 -20 61 6 17 -27 77 -37 67 -4 -3 -7 1 -7 10 0 10 -4 17
-9 17 -5 0 -11 8 -14 18 -3 9 -16 33 -29 51 -12 19 -16 31 -9 26 11 -6 13 -4
6 11 -4 10 -14 39 -21 63 -8 24 -24 58 -37 75 -13 17 -27 38 -30 46 -4 8 -18
33 -32 55 -13 22 -40 73 -60 113 -21 39 -41 75 -46 78 -5 3 -9 14 -9 25 0 23
-58 149 -69 149 -7 0 -31 79 -33 110 0 8 -8 23 -16 33 -14 16 -14 19 -2 27 15
9 13 11 -11 14 -7 0 -13 14 -15 31 -2 16 -7 39 -12 50 -6 11 -15 40 -22 65 -6
25 -16 53 -21 62 -13 25 -11 51 3 42 14 -9 5 8 -28 53 -25 33 -31 48 -14 38
16 -10 12 8 -16 64 -14 29 -23 55 -20 58 2 3 -20 53 -50 113 -30 59 -54 111
-54 116 0 12 35 -28 43 -49 4 -10 11 -15 17 -12 6 4 10 -6 10 -24 0 -20 5 -31
14 -31 14 0 43 -66 37 -85 -1 -5 1 -7 5 -3 13 13 34 -14 34 -43 0 -18 5 -29
14 -29 20 0 40 -61 24 -73 -10 -7 -10 -10 0 -14 6 -2 12 -21 13 -41 0 -31 2
-34 10 -17 7 16 8 13 6 -15 -1 -21 2 -34 9 -33 7 1 9 -8 6 -22 -2 -14 0 -25 7
-25 5 0 8 -6 5 -13 -3 -8 1 -27 7 -43 7 -16 12 -32 11 -36 -1 -5 3 -8 9 -8 6
0 9 -7 6 -15 -4 -8 -2 -17 4 -20 5 -4 7 -11 3 -16 -3 -5 0 -17 7 -25 6 -8 9
-17 5 -21 -3 -3 0 -13 8 -22 7 -9 19 -44 26 -79 8 -41 16 -59 21 -50 5 8 9
-10 9 -44 0 -32 4 -58 9 -58 5 0 12 -13 16 -30 4 -16 13 -30 21 -30 18 0 18 9
-2 55 -9 21 -17 57 -20 79 -2 23 -8 50 -13 61 -5 11 -23 67 -40 125 -17 58
-43 142 -57 188 -14 46 -23 86 -20 89 3 3 8 0 10 -8 2 -8 19 -54 37 -103 26
-70 34 -85 41 -70 6 14 7 11 3 -9 -5 -23 19 -111 52 -197 3 -8 8 -24 10 -35 2
-10 7 -22 12 -25 4 -3 11 -18 15 -35 10 -45 27 -85 36 -85 5 0 11 -13 15 -30
4 -16 11 -32 16 -35 5 -4 9 -13 9 -21 0 -9 13 -34 29 -57 22 -33 121 -222 121
-232 0 -1 -7 -2 -16 -2 -18 0 -79 121 -69 137 3 6 1 10 -4 10 -6 0 -11 7 -11
15 0 8 -5 15 -11 15 -6 0 -9 7 -5 15 3 8 1 15 -4 15 -5 0 -12 10 -16 23 -7 21
-7 21 -14 2 -5 -13 11 -53 50 -130 55 -106 58 -110 90 -110 26 0 35 -5 42 -25
5 -15 5 -26 0 -28 -5 -1 4 -28 19 -59 15 -31 26 -60 24 -64 -3 -4 4 -5 15 -2
11 3 20 7 20 10 0 4 -32 56 -40 63 -3 3 -6 16 -6 30 -2 29 -25 90 -35 90 -3 0
-5 12 -3 26 2 19 -1 24 -12 20 -8 -3 -14 1 -14 9 0 11 6 12 23 6 12 -5 21 -16
19 -24 -1 -9 3 -19 9 -23 9 -5 11 5 6 42 l-6 49 15 -40 c8 -22 21 -52 28 -67
11 -20 11 -29 2 -39 -9 -11 -8 -11 5 -1 14 10 17 9 22 -10 4 -12 9 -19 13 -16
3 4 -1 19 -9 35 -21 37 -84 186 -103 243 -9 25 -20 49 -25 55 -5 5 -9 21 -9
35 0 14 -5 31 -10 36 -6 6 -13 23 -16 39 -3 15 -9 36 -15 47 -5 10 -8 22 -5
26 3 4 0 14 -5 22 -8 11 -9 -2 -4 -40 5 -49 4 -53 -8 -35 -13 19 -21 42 -34
108 -3 15 -10 27 -15 27 -5 0 -8 6 -5 13 2 6 0 20 -5 30 -5 9 -5 17 0 17 5 0
14 -10 20 -22 11 -21 11 -20 6 10 -3 18 -12 45 -20 60 -8 15 -14 35 -14 45 0
9 -5 17 -11 17 -5 0 -7 -4 -4 -10 3 -5 1 -10 -5 -10 -7 0 -9 12 -4 34 4 24 1
42 -10 58 -9 12 -16 29 -16 38 -1 8 -7 29 -16 45 -11 22 -13 24 -10 8 2 -13 1
-25 -4 -28 -4 -3 -10 9 -12 25 -3 17 -1 30 3 30 9 0 1 36 -18 78 -8 18 -18 30
-24 27 -5 -4 -9 -1 -9 5 0 6 -4 9 -9 6 -5 -3 -15 14 -22 39 -7 24 -16 40 -20
34 -3 -6 -9 -2 -12 10 -3 12 -10 21 -16 21 -13 0 -15 -32 -2 -45 15 -16 101
-234 101 -256 0 -11 7 -22 15 -25 8 -4 13 -10 10 -15 -3 -4 -12 -6 -19 -3 -10
4 -5 -23 15 -93 16 -54 27 -102 26 -107 -2 -5 -11 20 -22 55 -10 35 -24 71
-32 80 -7 8 -13 20 -13 25 0 10 -81 219 -100 259 -5 11 -14 32 -20 48 -5 15
-16 27 -25 27 -8 0 -23 17 -32 38 -38 88 -48 107 -55 107 -3 0 -10 3 -14 8 -4
4 0 7 9 7 18 0 17 1 -19 86 -17 40 -123 184 -135 184 -5 0 -8 4 -7 9 2 4 -14
26 -34 47 -84 89 -108 116 -108 125 0 4 -9 13 -19 19 -16 8 -20 6 -24 -13 l-4
-22 -8 23 c-4 12 -12 22 -19 22 -6 0 -19 14 -28 30 -17 29 -38 40 -38 20 0 -5
4 -10 9 -10 6 0 9 -8 9 -17 0 -10 3 -27 7 -38 5 -13 -1 -9 -16 10 -13 16 -23
32 -22 35 3 11 -133 104 -149 102 -10 -2 -19 6 -23 19 -6 17 -9 19 -16 8 -6
-9 -9 -10 -9 -2 0 6 -16 17 -35 24 -22 8 -35 20 -35 31 0 21 -4 22 -31 8 -15
-8 -19 -7 -19 5 0 8 -9 15 -19 15 -11 0 -22 4 -26 10 -3 5 -12 7 -20 3 -8 -3
-15 -1 -15 5 0 5 -15 13 -32 16 -18 4 -45 9 -60 13 -16 3 -28 12 -28 19 0 18
-8 18 -27 -1 -10 -10 -23 -13 -37 -9 -11 4 -31 7 -44 6 -13 -1 -20 2 -17 8 4
6 -7 10 -25 10 -24 0 -31 -4 -27 -15 4 -8 2 -17 -3 -20 -6 -4 -10 3 -10 14 0
26 -15 27 -29 4 -8 -14 -12 -15 -19 -5 -6 9 -19 11 -38 7 -28 -6 -28 -6 -9 10
19 15 14 16 -70 10 -95 -6 -162 -20 -182 -37 -9 -7 -18 -6 -30 3 -16 13 -17
12 -5 -3 8 -10 9 -19 3 -22 -5 -4 -12 -2 -16 4 -3 5 -12 10 -18 10 -8 0 -7 -3
2 -9 17 -11 -33 -48 -176 -131 -51 -29 -60 -26 -40 13 10 20 17 23 25 15 7 -7
12 -8 12 -2 0 6 -5 15 -12 22 -9 9 -9 12 1 12 18 0 3 42 -23 60 -12 8 -23 13
-25 11 -2 -1 -8 4 -13 13 -5 9 -13 14 -19 11 -5 -4 -15 -3 -21 2 -7 4 -20 8
-28 9 -54 4 -55 4 -40 14 8 5 11 12 7 16 -3 4 -13 2 -20 -4 -14 -12 -106 -10
-124 1 -5 4 -15 1 -21 -5z m805 -24 c-3 -3 -12 -4 -19 -1 -8 3 -5 6 6 6 11 1
17 -2 13 -5z m-670 -10 c-3 -3 -12 -4 -19 -1 -8 3 -5 6 6 6 11 1 17 -2 13 -5z
m113 -36 c16 4 30 -16 30 -42 0 -16 -3 -17 -12 -8 -7 7 -19 12 -27 12 -16 0
-61 38 -61 52 0 4 7 8 15 8 8 0 15 6 15 13 0 6 6 1 13 -13 8 -14 20 -24 27
-22z m-80 22 c0 -5 -4 -10 -10 -10 -5 0 -10 5 -10 10 0 6 5 10 10 10 6 0 10
-4 10 -10z m868 -31 c4 -11 2 -12 -9 -1 -7 6 -21 12 -31 12 -10 0 -18 4 -18 9
0 15 53 -3 58 -20z m-883 -9 c3 -6 -1 -7 -9 -4 -18 7 -21 14 -7 14 6 0 13 -4
16 -10z m48 -49 c19 -19 24 -31 17 -36 -8 -5 -8 -11 1 -21 6 -8 9 -17 5 -21
-3 -3 -6 -1 -6 5 0 7 -6 12 -14 12 -8 0 -19 14 -25 30 -5 17 -17 30 -25 30
-19 0 -21 16 -3 23 19 8 21 8 50 -22z m-375 7 c9 -9 12 -9 12 1 0 11 3 11 15
1 12 -10 15 -10 15 1 1 9 9 4 22 -11 14 -16 19 -19 15 -7 -10 26 29 22 67 -7
52 -40 116 -108 116 -123 0 -13 -3 -13 -15 -3 -13 11 -14 10 -9 -6 4 -10 11
-25 17 -31 6 -9 6 -13 -2 -13 -6 0 -11 3 -11 8 -1 4 -12 20 -25 37 -24 29 -24
29 -19 5 5 -21 -1 -18 -40 23 -29 30 -46 57 -46 72 0 14 -5 25 -11 25 -7 0 -9
-9 -6 -21 5 -18 3 -18 -11 -7 -9 7 -21 19 -25 26 -4 6 -20 12 -36 12 -29 0
-79 29 -50 30 8 0 20 -5 27 -12z m440 -15 c-10 -2 -18 -9 -18 -15 0 -6 -3 -9
-6 -5 -10 10 6 27 24 26 15 -1 15 -2 0 -6z m-158 -18 c7 -9 10 -18 7 -22 -8
-7 -37 15 -37 28 0 14 16 11 30 -6z m67 -34 c-1 -16 -4 -17 -15 -9 -10 9 -11
13 0 19 17 11 17 12 15 -10z m-107 -12 c0 -6 -4 -7 -10 -4 -5 3 -10 11 -10 16
0 6 5 7 10 4 6 -3 10 -11 10 -16z m1330 1 c0 -5 -2 -10 -4 -10 -3 0 -8 5 -11
10 -3 6 -1 10 4 10 6 0 11 -4 11 -10z m-1273 -15 c9 -25 -4 -29 -17 -6 -7 15
-7 21 0 21 6 0 13 -7 17 -15z m-347 -5 c0 -5 -2 -10 -4 -10 -3 0 -8 5 -11 10
-3 6 -1 10 4 10 6 0 11 -4 11 -10z m467 -12 c-3 -8 -6 -5 -6 6 -1 11 2 17 5
13 3 -3 4 -12 1 -19z m-282 -8 c10 -11 15 -23 12 -27 -8 -7 -47 25 -47 39 0
14 16 9 35 -12z m-207 -13 c18 -15 88 -19 73 -4 -22 22 -11 26 22 8 38 -21 63
-61 44 -73 -6 -4 -14 -3 -17 1 -3 5 -18 8 -35 7 -17 -1 -44 8 -62 21 -47 34
-83 46 -83 28 0 -8 -5 -15 -11 -15 -6 0 -8 7 -5 15 4 10 -2 19 -17 25 -16 7
-8 8 28 4 28 -4 56 -11 63 -17z m150 -2 c-3 -3 -9 2 -12 12 -6 14 -5 15 5 6 7
-7 10 -15 7 -18z m-278 -26 c68 -20 90 -22 84 -5 -3 9 -2 16 2 16 17 0 102
-81 124 -117 l21 -37 -45 38 c-42 34 -51 36 -47 14 3 -18 -58 -11 -80 8 -8 8
-19 14 -24 14 -4 0 5 -11 21 -25 36 -31 30 -31 -38 0 -29 14 -61 25 -71 25
-10 0 -16 4 -13 8 9 15 124 6 141 -12 9 -9 18 -16 21 -16 19 0 -41 59 -73 71
-13 5 -40 9 -59 9 -19 0 -34 5 -34 10 0 13 26 13 70 -1z m522 -14 c6 -14 14
-25 18 -25 3 0 15 -6 25 -14 18 -13 18 -15 2 -30 -18 -18 -42 -13 -31 6 4 6 2
8 -4 5 -5 -4 -8 -16 -5 -27 6 -23 -22 -39 -40 -21 -8 8 -6 14 8 24 11 9 15 19
10 27 -4 7 -2 16 5 20 11 7 10 13 -4 34 -9 14 -12 26 -6 26 6 0 16 -11 22 -25z
m153 15 c-3 -5 -12 -10 -18 -10 -7 0 -6 4 3 10 19 12 23 12 15 0z m-878 -26
c-3 -3 -12 -4 -19 -1 -8 3 -5 6 6 6 11 1 17 -2 13 -5z m106 -35 c-8 -8 -16 -8
-30 0 -16 9 -14 10 12 11 21 0 26 -3 18 -11z m377 -9 c0 -5 -2 -10 -4 -10 -3
0 -8 5 -11 10 -3 6 -1 10 4 10 6 0 11 -4 11 -10z m1827 -40 c53 -55 65 -70 56
-70 -10 0 -103 92 -103 102 0 14 9 8 47 -32z m43 9 c0 -6 -4 -7 -10 -4 -5 3
-10 11 -10 16 0 6 5 7 10 4 6 -3 10 -11 10 -16z m-2189 -4 c16 -9 33 -14 38
-11 17 11 44 -22 46 -57 l3 -37 -30 21 c-16 12 -34 32 -40 45 -7 14 -22 27
-35 30 -13 4 -23 10 -23 15 0 12 6 11 41 -6z m-62 -14 c30 -10 57 -23 59 -30
3 -8 -8 -7 -34 4 -22 10 -54 21 -71 27 -33 9 -43 18 -20 18 6 0 37 -9 66 -19z
m439 -1 c7 -11 8 -20 2 -20 -5 0 -14 9 -20 20 -6 11 -7 20 -3 20 5 0 14 -9 21
-20z m144 -14 c13 -18 9 -26 -9 -19 -12 5 -15 2 -10 -10 6 -15 4 -16 -14 -6
-12 6 -18 17 -15 26 3 8 6 19 6 24 0 11 32 -1 42 -15z m-41 -53 c19 -19 2 -28
-27 -14 -19 8 -30 9 -38 1 -7 -7 -5 -10 8 -10 33 0 14 -35 -22 -38 -18 -2 -36
-10 -39 -18 -10 -27 -20 -14 -19 26 0 22 4 40 8 40 5 0 8 -4 8 -10 0 -5 6 -10
14 -10 9 0 12 7 9 19 -3 13 1 20 14 23 32 8 72 3 84 -9z m1846 -63 c12 -14 22
-29 23 -33 0 -5 14 -26 31 -47 17 -21 29 -44 26 -52 -3 -9 -7 -7 -13 7 -4 11
-13 25 -18 31 -27 30 -46 55 -46 63 0 5 -7 12 -16 15 -8 3 -12 10 -9 16 3 5 2
10 -3 10 -5 0 -18 12 -27 28 l-18 27 24 -20 c13 -11 34 -31 46 -45z m-2197 30
c8 -5 11 -10 5 -10 -5 0 -17 5 -25 10 -8 5 -10 10 -5 10 6 0 17 -5 25 -10z
m1753 -100 c-6 -7 -73 69 -73 84 0 6 18 -9 39 -34 21 -25 37 -47 34 -50z m240
38 l19 -33 -31 35 c-17 19 -31 39 -31 44 0 15 24 -11 43 -46z m-1795 -15 c2
-8 -5 -13 -17 -13 -12 0 -21 6 -21 16 0 18 31 15 38 -3z m2002 -29 c0 -8 -4
-12 -10 -9 -5 3 -10 10 -10 16 0 5 5 9 10 9 6 0 10 -7 10 -16z m-1965 -4 c4
-6 -6 -10 -22 -10 -22 0 -25 2 -13 10 19 12 27 12 35 0z m1793 -15 c-3 -3 -9
2 -12 12 -6 14 -5 15 5 6 7 -7 10 -15 7 -18z m-238 -21 c0 -3 -7 -1 -15 6 -8
7 -15 17 -15 22 0 5 7 3 15 -6 8 -8 15 -18 15 -22z m-1583 0 c-3 -3 -12 -4
-19 -1 -8 3 -5 6 6 6 11 1 17 -2 13 -5z m1683 -44 c29 -57 24 -62 -10 -10 -16
25 -30 49 -30 53 0 17 21 -6 40 -43z m184 10 c-6 -5 -24 21 -24 34 0 6 6 1 14
-10 8 -10 12 -21 10 -24z m-224 -24 c0 -7 7 -21 15 -31 33 -43 64 -95 57 -95
-10 0 -72 80 -72 93 0 4 -7 15 -15 23 -8 9 -15 22 -15 31 0 13 3 13 15 3 8 -7
15 -18 15 -24z m470 24 c0 -5 -4 -10 -10 -10 -5 0 -10 5 -10 10 0 6 5 10 10
10 6 0 10 -4 10 -10z m-520 -41 c0 -6 -4 -7 -10 -4 -5 3 -10 11 -10 16 0 6 5
7 10 4 6 -3 10 -11 10 -16z m-2185 -10 c11 -17 -1 -21 -15 -4 -8 9 -8 15 -2
15 6 0 14 -5 17 -11z m2732 -31 c-3 -7 -5 -2 -5 12 0 14 2 19 5 13 2 -7 2 -19
0 -25z m-2610 -14 c-7 -7 -37 7 -37 17 0 6 9 5 21 -1 11 -7 19 -14 16 -16z
m2113 -38 c0 -12 -5 -7 -19 24 -11 24 -11 24 3 6 9 -11 16 -24 16 -30z m520
-27 c0 -6 -4 -7 -10 -4 -5 3 -10 11 -10 16 0 6 5 7 10 4 6 -3 10 -11 10 -16z
m-1982 -35 c-4 -3 -12 5 -18 18 -12 22 -12 22 6 6 10 -10 15 -20 12 -24z
m1354 14 c-7 -7 -12 -8 -12 -2 0 14 12 26 19 19 2 -3 -1 -11 -7 -17z m163 -28
c26 -41 35 -70 12 -35 -35 51 -49 75 -43 75 3 0 17 -18 31 -40z m49 4 c23 -50
16 -52 -11 -3 -12 21 -18 39 -14 39 4 0 15 -16 25 -36z m289 -16 c23 -41 43
-108 31 -108 -3 0 -15 24 -28 53 -45 101 -46 129 -3 55z m-476 1 c0 -21 -3
-26 -9 -16 -4 9 -5 22 -2 31 9 23 11 20 11 -15z m76 -62 c-3 -5 -2 -12 3 -16
5 -3 19 -28 32 -55 13 -26 25 -46 28 -43 3 3 -2 17 -12 31 -9 15 -14 29 -11
32 10 11 36 -53 30 -74 -3 -12 -1 -22 3 -22 5 0 14 -12 20 -27 26 -67 47 -130
50 -153 4 -20 1 -18 -12 10 -82 170 -166 332 -175 340 -4 3 -10 16 -14 30 -7
24 -5 23 28 -9 20 -19 34 -38 30 -44z m-1966 57 c-3 -3 -12 -4 -19 -1 -8 3 -5
6 6 6 11 1 17 -2 13 -5z m1983 -189 c27 -55 62 -131 80 -170 17 -38 36 -80 42
-92 6 -13 8 -26 5 -29 -4 -4 -10 2 -14 12 -4 10 -19 37 -34 59 -14 22 -34 62
-45 89 -18 49 -44 102 -102 207 -33 58 -31 87 2 47 10 -13 40 -68 66 -123z
m-111 12 c28 -48 51 -94 51 -100 0 -7 4 -17 9 -22 5 -6 11 -19 13 -30 1 -11
11 -29 21 -39 9 -11 17 -28 17 -37 0 -10 4 -19 10 -21 6 -2 4 -18 -4 -42 -8
-24 -16 -34 -21 -27 -4 7 -4 15 -1 18 3 4 -6 26 -20 50 -14 24 -22 48 -19 54
4 5 3 15 -2 22 -5 7 -10 25 -11 41 -1 17 -5 32 -10 35 -4 3 -15 22 -24 41 -9
19 -31 64 -48 100 -41 86 -23 66 39 -43z m-2755 -38 c-15 -46 -30 -88 -34 -94
-9 -12 -80 -269 -80 -290 0 -8 -5 -15 -11 -15 -6 0 -9 6 -6 13 3 7 21 77 41
155 31 119 61 213 102 316 4 11 9 15 11 9 2 -6 -8 -49 -23 -94z m2707 -36 c41
-71 79 -137 86 -148 7 -11 22 -39 33 -62 11 -23 29 -48 38 -55 10 -7 26 -34
36 -60 10 -26 22 -50 27 -53 5 -4 9 -17 9 -31 0 -14 7 -27 15 -30 8 -3 25 -27
38 -52 13 -26 28 -56 34 -67 6 -11 16 -31 22 -45 26 -59 68 -130 74 -125 4 3
5 2 3 -1 -2 -3 2 -21 10 -39 20 -49 17 -55 -8 -15 -12 19 -25 37 -29 40 -15
12 -79 120 -79 135 0 16 -15 21 -24 7 -2 -4 9 -32 25 -62 16 -29 29 -59 29
-67 0 -7 4 -13 9 -13 5 0 12 -7 15 -16 6 -15 4 -15 -10 -3 -9 7 -20 22 -26 34
-5 11 -22 45 -38 75 -16 31 -24 57 -19 61 5 3 7 13 3 22 -3 9 -10 14 -15 11
-9 -5 -10 -4 -14 32 -1 12 -12 35 -24 52 -11 17 -21 37 -21 46 0 9 -4 16 -9
16 -9 0 -42 62 -40 77 0 4 7 -5 15 -22 l15 -30 -6 35 c-3 19 -12 38 -20 43 -8
4 -25 27 -36 50 -12 23 -27 49 -34 57 -14 16 -165 312 -165 323 0 17 12 -1 81
-120z m76 95 c-3 -8 -6 -5 -6 6 -1 11 2 17 5 13 3 -3 4 -12 1 -19z m543 -16
c0 -15 -2 -15 -10 -2 -13 20 -13 33 0 25 6 -3 10 -14 10 -23z m190 18 c0 -5
-4 -10 -10 -10 -5 0 -10 5 -10 10 0 6 5 10 10 10 6 0 10 -4 10 -10z m130 -23
c0 -5 -4 -5 -10 -2 -5 3 -10 14 -10 23 0 15 2 15 10 2 5 -8 10 -19 10 -23z
m-1496 7 c3 -8 2 -12 -4 -9 -6 3 -10 10 -10 16 0 14 7 11 14 -7z m982 -100
c36 -75 44 -106 22 -82 -19 20 -66 120 -69 143 -2 29 2 42 8 25 3 -8 21 -47
39 -86z m169 66 c-3 -11 0 -20 10 -24 9 -3 15 -17 14 -33 -1 -21 -3 -23 -6 -8
-3 11 -11 25 -19 31 -15 12 -16 66 -1 57 4 -2 5 -13 2 -23z m-837 -45 c12 -25
20 -45 17 -45 -6 0 -55 73 -55 82 0 21 18 3 38 -37z m372 -6 c0 -10 6 -22 13
-26 17 -11 37 -59 36 -86 0 -16 -6 -10 -21 23 -11 25 -29 62 -39 83 -11 22
-19 44 -19 50 1 19 30 -25 30 -44z m723 -16 c23 -63 15 -66 -11 -3 -11 27 -18
50 -14 50 4 0 15 -21 25 -47z m-992 -35 c5 -10 6 -18 1 -18 -8 0 -30 36 -40
65 -4 13 27 -25 39 -47z m653 13 c-6 -6 -24 19 -24 34 1 6 7 1 15 -9 8 -11 12
-22 9 -25z m73 -23 c-3 -8 -6 -5 -6 6 -1 11 2 17 5 13 3 -3 4 -12 1 -19z m415
-23 c9 -20 9 -20 -6 -1 -9 11 -16 27 -15 35 0 14 1 14 6 1 3 -8 10 -24 15 -35z
m-473 5 c3 -3 14 -23 25 -45 10 -22 22 -48 27 -57 14 -27 39 -102 35 -105 -5
-6 -56 106 -56 122 0 8 -5 15 -10 15 -6 0 -15 11 -20 25 -11 30 -23 87 -14 65
4 -8 10 -17 13 -20z m-719 0 c6 -11 8 -20 6 -20 -3 0 -10 9 -16 20 -6 11 -8
20 -6 20 3 0 10 -9 16 -20z m810 -36 c0 -7 13 -41 29 -76 16 -35 41 -99 56
-143 15 -44 31 -90 37 -102 6 -12 7 -30 3 -40 -5 -10 -7 -24 -6 -30 1 -7 0
-13 -2 -13 -7 0 -34 43 -41 67 -6 18 -4 22 8 17 9 -3 16 -16 17 -28 0 -13 3
-16 6 -7 3 8 -1 28 -10 45 -19 35 -102 248 -112 286 -4 14 -9 34 -12 45 -5 17
-4 18 11 6 9 -7 16 -19 16 -27z m-680 -54 c4 -3 20 -29 35 -58 15 -29 31 -55
36 -58 5 -3 9 -13 9 -22 0 -10 9 -23 20 -30 11 -7 20 -19 20 -27 0 -8 5 -15
11 -15 5 0 8 -4 5 -9 -3 -5 1 -23 10 -40 9 -17 14 -36 12 -43 -5 -13 -39 42
-56 90 -9 28 -65 119 -144 234 -10 15 -18 35 -18 45 0 11 9 4 27 -22 14 -22
30 -42 33 -45z m-1084 20 c5 -24 3 -32 -4 -25 -5 6 -13 26 -17 45 -5 25 -4 32
4 25 6 -6 14 -26 17 -45z m94 5 c0 -5 -5 -3 -10 5 -5 8 -10 20 -10 25 0 6 5 3
10 -5 5 -8 10 -19 10 -25z m957 -50 c7 -11 42 -69 78 -130 36 -60 70 -117 75
-125 6 -8 18 -30 27 -47 9 -18 20 -33 25 -33 4 0 8 -4 8 -10 0 -5 14 -31 30
-57 34 -53 37 -65 15 -57 -8 4 -15 15 -15 25 0 10 -4 19 -10 19 -5 0 -10 4
-10 10 0 10 -86 148 -120 192 -11 14 -20 29 -20 33 0 3 -24 43 -54 88 -51 78
-86 147 -86 171 0 9 19 -16 57 -79z m767 35 c4 -25 3 -31 -4 -20 -5 8 -10 26
-10 39 0 32 6 24 14 -19z m-1024 -19 c0 -11 -4 -10 -15 5 -8 10 -14 26 -14 34
0 11 3 10 14 -4 8 -11 15 -27 15 -35z m-52 3 c-4 -3 -12 5 -18 18 -12 22 -12
22 6 6 10 -10 15 -20 12 -24z m906 20 c9 -24 2 -26 -12 -4 -7 11 -8 20 -3 20
5 0 12 -7 15 -16z m-1525 -59 c0 -5 -6 1 -14 15 -8 14 -14 30 -14 35 0 6 6 -1
14 -15 8 -14 14 -29 14 -35z m-99 -10 c0 -13 5 -27 10 -30 6 -3 10 -14 10 -23
-1 -22 -39 47 -40 71 0 10 5 15 10 12 6 -3 10 -17 10 -30z m1350 31 c0 -3 -4
-8 -10 -11 -5 -3 -10 -1 -10 4 0 6 5 11 10 11 6 0 10 -2 10 -4z m-494 -86 c27
-36 61 -83 75 -105 76 -117 88 -139 83 -144 -3 -3 -9 1 -14 9 -17 28 -35 52
-47 66 -7 7 -13 15 -13 18 0 7 -49 79 -58 86 -4 3 -25 33 -47 67 -22 35 -43
63 -47 63 -5 0 -8 5 -8 10 0 20 27 -5 76 -70z m-12 40 c-6 -5 -24 21 -24 34 0
6 6 1 14 -10 8 -10 12 -21 10 -24z m816 14 c0 -8 -4 -12 -10 -9 -5 3 -10 10
-10 16 0 5 5 9 10 9 6 0 10 -7 10 -16z m510 6 c0 -5 -2 -10 -4 -10 -3 0 -8 5
-11 10 -3 6 -1 10 4 10 6 0 11 -4 11 -10z m-1145 -110 c9 -19 28 -49 41 -67
13 -17 23 -40 23 -50 -1 -16 -2 -16 -6 -1 -2 10 -10 15 -19 11 -9 -3 -14 2
-14 16 0 12 -4 21 -10 21 -5 0 -10 7 -10 15 0 15 -30 73 -61 117 -11 14 -19
29 -19 32 0 13 58 -60 75 -94z m307 68 c-9 -9 -12 -7 -12 12 0 19 3 21 12 12
9 -9 9 -15 0 -24z m-642 -9 c15 -28 5 -23 -15 7 -9 15 -12 23 -6 20 6 -4 16
-16 21 -27z m769 -30 c32 -55 22 -59 -12 -4 -14 25 -23 45 -19 45 5 0 19 -18
31 -41z m-779 -94 c30 -42 60 -82 66 -88 6 -7 18 -25 28 -42 l18 -30 -26 30
c-33 37 -137 179 -161 220 -17 29 -17 30 1 8 11 -11 44 -56 74 -98z m-647 78
c2 -10 8 -27 12 -38 12 -30 -9 -6 -23 28 -6 15 -8 27 -3 27 5 0 11 -8 14 -17z
m695 -3 c7 -11 11 -20 9 -20 -2 0 -12 9 -22 20 -10 11 -14 20 -9 20 5 0 15 -9
22 -20z m-804 -33 c9 -35 7 -47 -9 -47 -14 0 -14 -3 0 -30 8 -16 16 -39 16
-52 1 -20 2 -20 6 -4 3 13 17 -13 38 -75 40 -117 49 -152 36 -145 -13 9 -48
84 -61 134 -6 23 -15 42 -20 42 -6 0 -10 11 -10 25 0 14 -9 51 -20 82 -18 51
-18 58 -4 66 12 7 13 12 3 23 -10 12 -9 13 4 9 8 -4 18 -16 21 -28z m2174 2
c-3 -8 -7 -3 -11 10 -4 17 -3 21 5 13 5 -5 8 -16 6 -23z m-1807 -149 c27 -58
57 -109 65 -113 8 -5 12 -12 9 -18 -4 -5 -11 -4 -18 3 -17 17 -123 227 -131
258 l-7 25 16 -25 c8 -14 38 -72 66 -130z m1499 121 c0 -6 -4 -13 -10 -16 -5
-3 -10 1 -10 9 0 9 5 16 10 16 6 0 10 -4 10 -9z m-1740 -11 c0 -5 -2 -10 -4
-10 -3 0 -8 5 -11 10 -3 6 -1 10 4 10 6 0 11 -4 11 -10z m1388 -25 c-3 -3 -9
2 -12 12 -6 14 -5 15 5 6 7 -7 10 -15 7 -18z m262 15 c0 -5 -5 -10 -11 -10 -5
0 -7 5 -4 10 3 6 8 10 11 10 2 0 4 -4 4 -10z m-3389 -46 c-5 -16 -10 -21 -10
-12 -1 18 10 51 15 45 2 -1 -1 -16 -5 -33z m1820 -184 c18 -41 37 -76 41 -78
5 -2 8 -10 8 -18 0 -9 -4 -13 -8 -10 -20 12 -142 285 -142 316 0 8 15 -19 34
-60 18 -41 48 -109 67 -150z m-1894 188 c-3 -8 -6 -5 -6 6 -1 11 2 17 5 13 3
-3 4 -12 1 -19z m3023 1 c0 -6 -4 -7 -10 -4 -5 3 -10 11 -10 16 0 6 5 7 10 4
6 -3 10 -11 10 -16z m867 -1 c-3 -8 -6 -5 -6 6 -1 11 2 17 5 13 3 -3 4 -12 1
-19z m-373 -57 c-6 -7 -54 49 -54 63 1 6 14 -4 30 -23 16 -19 27 -37 24 -40z
m7 36 c-8 -8 -11 -7 -11 4 0 20 13 34 18 19 3 -7 -1 -17 -7 -23z m-257 -52 c4
-17 2 -16 -14 5 -10 14 -21 34 -24 45 -4 17 -2 16 14 -5 10 -14 21 -34 24 -45z
m-3289 -36 c-9 -40 -23 -84 -31 -98 -14 -25 -14 -24 -8 24 4 28 15 69 25 93
11 24 19 51 20 60 0 11 2 12 6 5 2 -7 -3 -45 -12 -84z m2905 55 c0 -8 -4 -12
-10 -9 -5 3 -10 10 -10 16 0 5 5 9 10 9 6 0 10 -7 10 -16z m130 -12 c0 -15 -2
-15 -10 -2 -13 20 -13 33 0 25 6 -3 10 -14 10 -23z m40 13 c0 -8 -2 -15 -4
-15 -2 0 -6 7 -10 15 -3 8 -1 15 4 15 6 0 10 -7 10 -15z m-1021 -115 c5 -3 16
-21 26 -40 10 -19 36 -61 58 -92 23 -32 37 -61 33 -65 -12 -12 -63 53 -98 124
-17 35 -34 60 -39 57 -5 -3 -6 2 -3 10 3 8 -6 34 -20 59 -14 24 -26 49 -26 56
0 7 14 -13 31 -45 17 -32 34 -61 38 -64z m1531 99 c0 -5 -4 -9 -10 -9 -5 0
-10 7 -10 16 0 8 5 12 10 9 6 -3 10 -10 10 -16z m102 -26 c14 -29 15 -39 5
-45 -8 -5 -6 -8 6 -8 10 0 16 -3 13 -8 -7 -11 119 -217 132 -215 8 2 9 -5 2
-23 -13 -32 -13 -43 0 -24 8 12 10 11 10 -8 0 -13 11 -35 25 -49 13 -15 22
-30 18 -33 -3 -3 -8 1 -10 8 -3 6 -10 12 -18 12 -7 0 -23 16 -36 35 -13 19
-29 35 -36 35 -6 0 -23 15 -37 33 -15 17 -32 38 -38 46 -7 8 -13 23 -13 33 -1
10 -11 26 -23 34 -14 9 -22 26 -22 43 0 26 -21 57 -31 47 -2 -2 -4 13 -4 34 0
21 3 36 8 33 4 -2 7 -9 7 -15 0 -6 10 -27 22 -47 13 -20 23 -38 23 -41 1 -12
40 -70 47 -70 4 0 -10 35 -32 78 -42 81 -47 98 -29 86 7 -4 10 -1 7 7 -3 8
-13 13 -23 11 -13 -3 -16 1 -11 13 3 9 6 21 6 26 0 20 16 6 32 -28z m-114 -9
c-10 -10 -28 6 -28 24 0 15 1 15 17 -1 9 -9 14 -19 11 -23z m40 -16 c1 -30 -2
-38 -8 -28 -12 19 -13 70 -1 70 5 0 9 -19 9 -42z m-3585 -8 c-3 -11 -7 -20 -9
-20 -2 0 -4 9 -4 20 0 11 4 20 9 20 5 0 7 -9 4 -20z m-70 -5 c-3 -9 -8 -14
-10 -11 -3 3 -2 9 2 15 9 16 15 13 8 -4z m1987 -3 c0 -4 25 -46 55 -92 63 -98
69 -120 26 -94 -17 10 -29 20 -29 23 1 3 -15 41 -35 83 -40 84 -42 88 -27 88
6 0 10 -4 10 -8z m-1833 -34 c-3 -8 -6 -5 -6 6 -1 11 2 17 5 13 3 -3 4 -12 1
-19z m-172 -35 c-9 -37 -18 -20 -9 19 4 18 9 27 11 20 3 -7 2 -24 -2 -39z
m1949 -20 c15 -25 25 -51 23 -57 -4 -11 -29 32 -47 79 -15 39 -4 30 24 -22z
m818 7 c-4 -17 19 -42 34 -36 6 2 22 -7 35 -21 23 -25 23 -25 2 -14 -12 6 -24
16 -26 23 -4 9 -6 10 -6 1 -1 -6 28 -42 64 -79 36 -37 65 -69 65 -72 0 -4 -43
31 -95 77 -31 27 -95 103 -95 113 0 4 6 8 13 8 8 0 7 4 -3 11 -13 9 -13 10 0
6 8 -2 14 -10 12 -17z m-549 -7 c-4 -11 60 -107 92 -138 6 -5 17 -19 24 -30 7
-11 -13 8 -45 41 -33 34 -69 79 -81 101 -20 36 -21 39 -4 39 11 0 17 -6 14
-13z m41 -43 c-6 -5 -24 21 -24 34 0 6 6 1 14 -10 8 -10 12 -21 10 -24z m910
24 c5 -14 4 -15 -9 -4 -17 14 -19 20 -6 20 5 0 12 -7 15 -16z m1027 -69 c-4
-17 -6 -15 -12 10 -4 17 -11 41 -14 55 -5 18 -1 15 12 -10 10 -19 17 -44 14
-55z m-1001 20 c0 -8 -2 -15 -4 -15 -2 0 -6 7 -10 15 -3 8 -1 15 4 15 6 0 10
-7 10 -15z m166 -72 c-7 -7 -26 7 -26 19 0 6 6 6 15 -2 9 -7 13 -15 11 -17z
m-406 -23 c0 -5 -2 -10 -4 -10 -3 0 -8 5 -11 10 -3 6 -1 10 4 10 6 0 11 -4 11
-10z m985 -20 c3 -5 1 -10 -4 -10 -6 0 -11 5 -11 10 0 6 2 10 4 10 3 0 8 -4
11 -10z m-942 -25 c23 -32 17 -32 -13 0 -13 14 -19 25 -14 25 5 0 17 -12 27
-25z m980 -35 c4 -8 14 -25 23 -37 9 -13 12 -23 6 -23 -6 0 -21 17 -33 38 -13
20 -27 39 -31 40 -5 2 -6 8 -2 13 6 10 26 -7 37 -31z m-1643 -24 c0 -6 -11 1
-25 16 -14 15 -25 30 -25 34 0 4 11 -3 25 -16 14 -13 25 -28 25 -34z m1711 32
c11 -21 11 -22 -4 -9 -10 7 -17 17 -17 22 0 15 9 10 21 -13z m-4028 -30 c-3
-18 -12 -44 -20 -58 -8 -14 -12 -17 -9 -8 3 9 10 35 16 57 13 49 22 54 13 9z
m2136 -13 c0 -5 -6 -1 -14 9 -8 11 -15 24 -15 30 0 5 7 1 15 -10 8 -10 14 -23
14 -29z m158 -63 c50 -51 88 -92 84 -92 -21 0 -74 35 -110 73 -60 63 -81 89
-81 99 0 5 -5 6 -10 3 -7 -4 4 -23 25 -46 56 -62 37 -62 -22 0 -16 17 -23 20
-23 9 0 -8 9 -23 20 -33 11 -10 18 -20 16 -23 -12 -11 -40 34 -42 68 -2 35 0
38 25 36 18 -1 53 -29 118 -94z m-2400 11 c-5 -40 -13 -73 -17 -73 -4 0 -11
-15 -14 -34 -4 -19 -18 -60 -32 -92 -14 -33 -22 -45 -19 -29 4 17 9 45 12 63
3 17 9 32 15 32 5 0 8 8 7 18 -2 9 0 28 4 42 4 14 13 43 18 65 11 40 31 87 34
82 1 -1 -2 -35 -8 -74z m4163 57 c0 -5 -4 -10 -10 -10 -5 0 -10 5 -10 10 0 6
5 10 10 10 6 0 10 -4 10 -10z m-87 -40 c9 -13 20 -18 31 -14 9 3 16 1 16 -6 0
-6 -4 -8 -10 -5 -17 10 -11 -7 7 -20 10 -7 12 -14 6 -18 -6 -4 -18 4 -27 18
-18 27 -42 34 -32 9 3 -9 2 -12 -5 -9 -6 4 -8 14 -5 22 4 9 1 22 -5 29 -8 10
-8 14 -1 14 6 0 17 -9 25 -20z m-612 -17 c13 -16 12 -17 -3 -4 -17 13 -22 21
-14 21 2 0 10 -8 17 -17z m-1506 -53 c3 -5 -1 -10 -10 -10 -9 0 -13 5 -10 10
3 6 8 10 10 10 2 0 7 -4 10 -10z m2235 -48 c15 -56 13 -59 -20 -24 -34 38 -36
42 -15 42 8 0 15 4 15 10 0 5 -7 7 -15 4 -10 -4 -15 0 -15 10 0 31 38 -2 50
-42z m-3470 30 c8 -3 19 -6 24 -6 22 -2 14 -22 -14 -35 -38 -16 -55 -10 -75
28 l-15 31 32 -6 c18 -3 40 -8 48 -12z m720 -22 c0 -5 -4 -10 -10 -10 -5 0
-10 5 -10 10 0 6 5 10 10 10 6 0 10 -4 10 -10z m-637 -17 c-7 -2 -19 -2 -25 0
-7 3 -2 5 12 5 14 0 19 -2 13 -5z m1102 -33 c3 -5 -1 -10 -9 -10 -8 0 -18 5
-21 10 -3 6 1 10 9 10 8 0 18 -4 21 -10z m2325 -7 c0 -9 10 -27 22 -40 16 -18
19 -26 10 -35 -9 -9 -13 -7 -18 8 -4 10 -11 21 -15 24 -13 9 -22 60 -10 60 6
0 11 -8 11 -17z m-2214 -54 c-12 -18 -16 -20 -16 -7 0 29 12 50 22 40 7 -7 5
-18 -6 -33z m2152 -14 c-7 -8 -38 23 -38 38 0 6 10 2 22 -10 12 -13 19 -25 16
-28z m48 -52 c-4 -4 -11 -1 -16 7 -16 25 -11 35 7 17 9 -9 13 -20 9 -24z m29
-23 c3 -11 11 -20 16 -20 5 0 9 -7 9 -16 0 -8 5 -12 10 -9 6 3 10 -2 10 -12 0
-10 7 -29 16 -42 12 -17 13 -26 5 -34 -8 -8 -11 -7 -11 4 0 9 -16 34 -35 56
-19 23 -35 49 -35 58 0 9 -4 13 -10 10 -11 -7 -14 8 -3 18 12 12 22 7 28 -13z
m-3399 -43 l20 -42 -33 -2 c-30 -3 -33 -1 -33 26 0 33 9 61 19 61 3 0 15 -19
27 -43z m2619 -21 c19 -8 35 -17 35 -20 0 -7 -52 3 -98 20 l-37 13 33 1 c18 0
48 -7 67 -14z m85 -1 c14 -8 19 -14 10 -14 -8 0 -26 6 -40 14 -14 8 -19 14
-10 14 8 0 26 -6 40 -14z m-3660 -15 c0 -5 -4 -10 -10 -10 -5 0 -10 5 -10 10
0 6 5 10 10 10 6 0 10 -4 10 -10z m1777 4 c-3 -3 -12 -4 -19 -1 -8 3 -5 6 6 6
11 1 17 -2 13 -5z m2163 -56 c47 -22 93 -47 103 -56 29 -25 19 -33 -15 -12
-18 11 -41 20 -50 20 -10 0 -18 5 -18 10 0 6 -3 9 -7 8 -13 -2 -82 33 -138 71
-40 26 36 2 125 -41z m-2930 12 c0 -5 -12 -10 -27 -9 -25 0 -26 1 -8 9 27 12
35 12 35 0z m3317 -5 c9 -24 -1 -27 -15 -5 -8 13 -8 20 -2 20 6 0 13 -7 17
-15z m-4244 -34 c-4 -3 -9 -13 -11 -22 -1 -9 -11 -40 -22 -70 -15 -42 -19 -46
-14 -19 5 35 13 61 36 123 10 25 13 28 16 13 2 -10 0 -21 -5 -25z m4301 -20
c-6 -6 -24 19 -24 34 1 6 7 1 15 -9 8 -11 12 -22 9 -25z m-754 14 c19 -7 28
-14 19 -14 -9 -1 -32 6 -50 14 -43 18 -16 18 31 0z m65 -6 c11 -16 1 -19 -13
-3 -7 8 -8 14 -3 14 5 0 13 -5 16 -11z m769 -52 c20 -48 30 -83 21 -75 -15 14
-54 108 -45 108 5 0 16 -15 24 -33z m-1254 15 c0 -5 -7 -17 -16 -28 -14 -17
-15 -17 -10 -1 3 10 6 23 6 28 0 5 5 9 10 9 6 0 10 -4 10 -8z m-3113 -24 c-3
-8 -6 -5 -6 6 -1 11 2 17 5 13 3 -3 4 -12 1 -19z m3220 -33 c23 -19 46 -35 52
-35 6 0 11 -9 11 -20 0 -17 -3 -18 -27 -9 -21 8 -30 6 -49 -12 -21 -20 -23
-20 -32 -2 -5 10 -7 30 -5 46 2 15 -1 27 -6 27 -5 0 -9 9 -8 20 2 29 18 25 64
-15z m698 5 c10 -11 16 -20 13 -20 -3 0 -13 9 -23 20 -10 11 -16 20 -13 20 3
0 13 -9 23 -20z m95 -2 c0 -6 -6 -5 -15 2 -8 7 -15 14 -15 16 0 2 7 1 15 -2 8
-4 15 -11 15 -16z m-4029 -21 c-8 -8 -11 -7 -11 4 0 20 13 34 18 19 3 -7 -1
-17 -7 -23z m4526 -14 c-3 -10 -5 -2 -5 17 0 19 2 27 5 18 2 -10 2 -26 0 -35z
m-153 1 c3 -8 2 -12 -4 -9 -6 3 -10 10 -10 16 0 14 7 11 14 -7z m-347 -46 c3
-7 -8 -2 -25 10 -17 13 -35 28 -39 34 -3 7 8 2 25 -10 17 -13 35 -28 39 -34z
m181 -77 c63 -68 132 -181 132 -217 0 -14 -4 -12 -23 7 -34 36 -107 135 -107
145 0 5 12 -8 27 -29 24 -33 55 -54 37 -24 -23 36 -55 79 -106 143 -62 76 -80
109 -25 47 17 -20 47 -53 65 -72z m-1033 59 c-3 -5 -1 -11 5 -15 15 -9 12 -25
-5 -25 -10 0 -15 10 -15 31 0 18 4 28 10 24 6 -4 8 -10 5 -15z m935 -51 c0
-14 -49 21 -61 44 -9 16 -4 15 25 -8 20 -15 36 -31 36 -36z m-4129 -18 c-6
-11 -11 -29 -11 -41 0 -12 -4 -19 -9 -16 -14 9 -8 80 9 98 14 15 15 15 18 -2
2 -11 -2 -28 -7 -39z m2995 22 c-10 -10 -19 5 -10 18 6 11 8 11 12 0 2 -7 1
-15 -2 -18z m1562 3 c0 -14 2 -55 5 -93 3 -37 3 -58 0 -45 -2 12 -8 20 -12 17
-10 -6 -21 96 -14 124 7 29 21 26 21 -3z m-1511 -18 c-3 -8 -6 -5 -6 6 -1 11
2 17 5 13 3 -3 4 -12 1 -19z m944 -15 c10 -12 5 -11 -18 6 -18 12 -33 24 -33
27 0 9 37 -15 51 -33z m-728 -7 c15 -13 30 -36 33 -51 4 -25 3 -26 -33 -19
-44 8 -60 18 -68 45 -7 21 10 49 29 49 6 0 24 -11 39 -24z m892 14 c3 -5 1
-10 -4 -10 -6 0 -11 5 -11 10 0 6 2 10 4 10 3 0 8 -4 11 -10z m362 -132 c-3
-8 -6 -5 -6 6 -1 11 2 17 5 13 3 -3 4 -12 1 -19z m-4570 -20 c-3 -8 -6 -5 -6
6 -1 11 2 17 5 13 3 -3 4 -12 1 -19z m4605 -8 c3 -16 1 -30 -4 -30 -4 0 -8 14
-8 30 0 17 2 30 4 30 2 0 6 -13 8 -30z m-4617 -107 c-9 -37 -18 -20 -9 19 4
18 9 27 11 20 3 -7 2 -24 -2 -39z m4332 -65 c-3 -8 -6 -5 -6 6 -1 11 2 17 5
13 3 -3 4 -12 1 -19z m113 -105 c-10 -16 -11 -15 -6 7 3 14 6 34 7 45 1 13 3
11 6 -7 2 -15 -1 -35 -7 -45z m190 51 c0 -17 -22 -14 -28 4 -2 7 3 12 12 12 9
0 16 -7 16 -16z m-113 -41 c-3 -10 -5 -4 -5 12 0 17 2 24 5 18 2 -7 2 -21 0
-30z m-1397 -108 c0 -8 -4 -15 -10 -15 -5 0 -10 7 -10 15 0 8 5 15 10 15 6 0
10 -7 10 -15z m137 -47 c-2 -13 -4 -5 -4 17 -1 22 1 32 4 23 2 -10 2 -28 0
-40z m1163 27 c0 -15 -32 -66 -38 -61 -3 4 0 12 6 18 7 7 12 20 12 30 0 10 5
18 10 18 6 0 10 -2 10 -5z m-3370 -36 c0 -6 -4 -7 -10 -4 -5 3 -10 11 -10 16
0 6 5 7 10 4 6 -3 10 -11 10 -16z m70 -9 c0 -5 -5 -10 -11 -10 -5 0 -7 5 -4
10 3 6 8 10 11 10 2 0 4 -4 4 -10z m-58 -22 c-9 -9 -15 -9 -24 0 -9 9 -7 12
12 12 19 0 21 -3 12 -12z m2207 -34 c1 -6 -6 -11 -14 -11 -10 0 -14 6 -10 14
3 8 5 22 6 31 0 14 2 13 9 -3 5 -11 9 -25 9 -31z m1261 6 c0 -5 -5 -10 -11
-10 -5 0 -7 5 -4 10 3 6 8 10 11 10 2 0 4 -4 4 -10z m-1263 -72 c-3 -7 -5 -2
-5 12 0 14 2 19 5 13 2 -7 2 -19 0 -25z m-25 -13 c-6 -34 -12 -32 -12 6 0 16
4 28 9 25 4 -3 6 -17 3 -31z m1265 -57 c-3 -7 -5 -2 -5 12 0 14 2 19 5 13 2
-7 2 -19 0 -25z m-3127 -38 c0 -5 -2 -10 -4 -10 -3 0 -8 5 -11 10 -3 6 -1 10
4 10 6 0 11 -4 11 -10z m3242 1 c-8 -4 -13 -11 -12 -15 1 -4 -1 -12 -3 -19 -3
-6 -6 -3 -6 9 -1 23 7 34 23 34 6 0 5 -4 -2 -9z m-46 -28 c-10 -10 -19 5 -10
18 6 11 8 11 12 0 2 -7 1 -15 -2 -18z m-4525 -97 c-5 -31 -5 -31 -18 14 -7 25
-11 56 -7 70 7 24 8 23 19 -14 6 -21 9 -53 6 -70z m601 69 c-6 -34 -12 -32
-12 6 0 16 4 28 9 25 4 -3 6 -17 3 -31z m3956 -37 c0 -13 5 -52 11 -88 12 -71
14 -106 6 -98 -6 6 -35 164 -35 191 0 9 4 17 9 17 5 0 9 -10 9 -22z m-1321
-20 c-3 -8 -6 -5 -6 6 -1 11 2 17 5 13 3 -3 4 -12 1 -19z m-2635 -50 c2 -21 1
-38 -3 -38 -10 0 -20 80 -12 93 8 13 9 9 15 -55z m131 -8 c3 -11 1 -18 -4 -14
-5 3 -9 12 -9 20 0 20 7 17 13 -6z m-730 -45 c4 -8 2 -17 -3 -20 -6 -4 -10 3
-10 14 0 25 6 27 13 6z m674 -66 c2 -32 0 -48 -7 -44 -5 3 -10 29 -10 57 0 64
12 55 17 -13z m3747 11 c4 -31 3 -40 -4 -30 -5 8 -10 30 -10 49 0 45 6 37 14
-19z m86 10 c0 -5 -4 -10 -10 -10 -5 0 -10 5 -10 10 0 6 5 10 10 10 6 0 10 -4
10 -10z m-4246 -16 c9 -23 7 -36 -3 -30 -12 8 -21 46 -11 46 4 0 11 -7 14 -16z
m476 -6 c0 -19 -2 -20 -10 -8 -13 19 -13 30 0 30 6 0 10 -10 10 -22z m-13 -63
c-8 -8 -16 -10 -22 -4 -6 7 -5 13 5 19 20 12 32 2 17 -15z m3780 -17 c-3 -8
-6 -5 -6 6 -1 11 2 17 5 13 3 -3 4 -12 1 -19z m-1220 -10 c-3 -8 -6 -5 -6 6
-1 11 2 17 5 13 3 -3 4 -12 1 -19z m-3123 -4 c9 -24 7 -28 -9 -14 -17 14 -20
30 -6 30 5 0 12 -7 15 -16z m166 -51 c0 -7 5 -13 10 -13 6 0 10 -14 10 -32 0
-30 0 -31 -20 -13 -11 10 -17 21 -15 25 3 4 -2 20 -10 36 -7 15 -11 32 -8 37
7 12 33 -20 33 -40z m500 5 c0 -19 -2 -20 -10 -8 -13 19 -13 30 0 30 6 0 10
-10 10 -22z m3699 -38 c0 -29 -2 -31 -9 -15 -5 11 -9 34 -9 50 -1 23 2 26 9
15 5 -8 9 -31 9 -50z m-4366 20 c3 -11 1 -23 -4 -26 -5 -3 -9 6 -9 20 0 31 6
34 13 6z m3155 -7 c1 -24 0 -25 -9 -10 -5 9 -7 22 -4 27 9 15 10 13 13 -17z
m1275 -33 c3 -11 1 -20 -4 -20 -5 0 -9 9 -9 20 0 11 2 20 4 20 2 0 6 -9 9 -20z
m-4313 -11 c0 -6 -4 -7 -10 -4 -5 3 -10 11 -10 16 0 6 5 7 10 4 6 -3 10 -11
10 -16z m470 14 c0 -5 -5 -15 -10 -23 -8 -12 -10 -11 -10 8 0 12 5 22 10 22 6
0 10 -3 10 -7z m-571 -37 c-2 -19 0 -38 4 -42 9 -9 -2 -26 -14 -19 -10 7 -12
78 -2 88 12 13 15 7 12 -27z m4391 -100 c0 -6 -4 -6 -10 0 -5 5 -12 32 -15 59
l-5 50 14 -50 c8 -27 15 -54 16 -59z m-4225 46 c-5 -5 -45 36 -45 46 0 3 11
-5 25 -18 14 -13 23 -26 20 -28z m405 23 c0 -8 -4 -15 -10 -15 -5 0 -10 7 -10
15 0 8 5 15 10 15 6 0 10 -7 10 -15z m-331 -35 c0 -10 -3 -8 -9 5 -12 27 -12
43 0 25 5 -8 9 -22 9 -30z m4236 30 c3 -5 1 -10 -4 -10 -6 0 -11 5 -11 10 0 6
2 10 4 10 3 0 8 -4 11 -10z m-4190 -78 c-9 -9 -25 11 -25 31 1 21 1 21 15 -3
7 -14 12 -27 10 -28z m1760 38 c-3 -5 -11 -10 -16 -10 -6 0 -7 5 -4 10 3 6 11
10 16 10 6 0 7 -4 4 -10z m2442 -32 c-3 -8 -6 -5 -6 6 -1 11 2 17 5 13 3 -3 4
-12 1 -19z m-2502 -9 c10 -15 -1 -23 -20 -15 -9 3 -13 10 -10 16 8 13 22 13
30 -1z m2424 -30 c13 -39 14 -57 2 -43 -13 15 -31 74 -21 74 4 0 13 -14 19
-31z m-4188 2 c-8 -5 -9 -11 -3 -15 6 -3 8 -15 5 -25 -3 -10 1 -22 8 -26 8 -6
10 -4 5 4 -5 7 0 21 11 33 10 12 12 18 6 14 -8 -4 -13 -1 -13 8 0 19 5 20 31
5 20 -10 20 -11 3 -30 -9 -10 -14 -22 -11 -26 4 -3 0 -15 -10 -25 -9 -10 -11
-18 -6 -18 6 0 13 7 17 15 8 22 26 18 26 -5 0 -11 4 -20 8 -20 5 0 8 -10 6
-22 -1 -13 -3 -36 -3 -52 -1 -21 -5 -27 -16 -22 -9 3 -15 0 -15 -8 0 -15 24
-28 34 -19 3 4 6 17 6 30 0 13 5 23 10 23 15 0 12 71 -4 89 -12 14 -12 18 2
30 14 13 15 12 10 -7 -4 -12 -2 -25 3 -28 5 -3 9 1 9 8 0 8 4 7 10 -4 10 -16
7 -199 -4 -265 -3 -19 -1 -33 5 -33 5 0 3 -13 -6 -29 -8 -17 -12 -37 -9 -45 4
-12 2 -15 -9 -10 -19 7 -31 35 -19 43 21 14 -4 132 -29 139 -12 3 -12 2 0 -6
7 -5 12 -15 9 -22 -3 -9 -9 -8 -21 5 -17 16 -17 18 -1 36 14 15 15 22 6 31 -9
9 -15 5 -24 -20 -7 -18 -15 -32 -18 -32 -12 0 -8 -76 5 -96 9 -14 10 -25 3
-35 -8 -11 -9 -10 -4 4 3 10 0 17 -8 17 -21 0 -27 -27 -9 -41 11 -9 14 -24 10
-51 -4 -28 -2 -38 9 -38 9 0 14 11 14 30 0 36 35 56 57 34 19 -19 17 -40 -2
-24 -13 11 -15 8 -15 -16 0 -22 -3 -26 -10 -14 -5 8 -10 10 -10 4 0 -15 -46
-35 -65 -28 -18 7 -19 16 -3 32 9 9 8 12 -5 12 -9 0 -17 5 -17 10 0 6 6 10 13
10 8 0 9 3 1 8 -13 9 -10 93 6 121 10 19 -2 32 -13 14 -2 -5 -1 -1 2 7 3 8 7
42 8 75 2 33 4 71 5 85 1 14 -1 40 -5 58 -4 21 -3 31 3 27 6 -3 10 4 10 17 0
18 -2 20 -10 8 -14 -23 -19 -9 -13 38 5 34 9 42 27 42 16 0 17 -3 7 -9z m4284
0 c-3 -5 -1 -12 5 -16 12 -8 13 -25 1 -25 -12 0 -23 29 -15 41 3 5 7 9 10 9 3
0 3 -4 -1 -9z m-2515 -22 c0 -5 -4 -9 -10 -9 -5 0 -10 7 -10 16 0 8 5 12 10 9
6 -3 10 -10 10 -16z m54 -9 c-4 -20 -3 -22 5 -10 9 12 11 10 11 -12 0 -32 -7
-35 -26 -10 -13 16 -13 16 -14 -2 0 -15 -3 -16 -15 -6 -17 14 -20 40 -5 40 5
0 7 6 5 13 -3 7 4 12 19 12 22 0 24 -4 20 -25z m166 16 c0 -11 -19 -15 -25 -6
-3 5 1 10 9 10 9 0 16 -2 16 -4z m-1903 -38 c-3 -8 -6 -5 -6 6 -1 11 2 17 5
13 3 -3 4 -12 1 -19z m252 -21 c0 -18 -4 -41 -9 -52 -6 -14 -9 -4 -9 38 -1 36
3 56 9 52 6 -3 10 -21 9 -38z m1564 -8 c-6 -6 -9 -1 -7 13 3 33 6 36 11 14 3
-10 1 -22 -4 -27z m47 26 c0 -8 -4 -15 -10 -15 -5 0 -10 7 -10 15 0 8 5 15 10
15 6 0 10 -7 10 -15z m2347 -17 c-3 -8 -6 -5 -6 6 -1 11 2 17 5 13 3 -3 4 -12
1 -19z m-68 -63 c0 -5 -6 1 -14 15 -8 14 -14 34 -14 45 0 13 5 8 14 -15 7 -19
14 -39 14 -45z m-2359 35 c0 -24 -13 -26 -31 -3 -10 11 -10 14 -1 9 6 -4 12
-2 12 3 0 6 5 11 10 11 6 0 10 -9 10 -20z m78 8 c-2 -6 -10 -14 -16 -16 -7 -2
-10 2 -6 12 7 18 28 22 22 4z m2372 -15 c-1 -24 -2 -26 -11 -10 -5 9 -7 22 -4
27 10 17 15 11 15 -17z m-2330 2 c0 -8 -7 -15 -15 -15 -26 0 -18 20 13 29 1 1
2 -6 2 -14z m-102 -50 c-3 -24 0 -35 9 -35 7 0 13 8 13 18 0 14 2 15 10 2 13
-21 13 -24 -10 -37 -41 -26 -61 6 -40 61 14 37 23 32 18 -9z m-1921 -22 c-3
-10 -5 -2 -5 17 0 19 2 27 5 18 2 -10 2 -26 0 -35z m4371 2 c-3 -3 -9 2 -12
12 -6 14 -5 15 5 6 7 -7 10 -15 7 -18z m-3791 -7 c-3 -8 -6 -5 -6 6 -1 11 2
17 5 13 3 -3 4 -12 1 -19z m-373 -96 c4 -45 2 -80 -4 -92 -6 -11 -7 -20 -3
-20 10 0 11 -56 2 -65 -4 -3 -5 -23 -2 -44 3 -22 1 -41 -5 -45 -7 -4 -7 -17
-1 -38 10 -35 4 -68 -12 -68 -13 0 -2 -39 17 -60 12 -14 10 -16 -10 -16 -20 0
-25 6 -29 40 -4 30 -2 43 9 49 19 11 18 27 -2 27 -13 0 -14 3 -4 15 7 8 10 21
7 30 -4 8 -2 17 3 20 9 5 11 57 11 285 1 106 12 96 23 -18z m4188 53 c3 -14 1
-25 -3 -25 -5 0 -9 11 -9 25 0 14 2 25 4 25 2 0 6 -11 8 -25z m-797 -31 c24
-37 11 -41 -15 -5 -12 17 -17 31 -12 31 5 0 17 -12 27 -26z m-1678 -16 c-3 -7
-5 -2 -5 12 0 14 2 19 5 13 2 -7 2 -19 0 -25z m-1667 -19 c0 -6 -4 -7 -10 -4
-5 3 -10 11 -10 16 0 6 5 7 10 4 6 -3 10 -11 10 -16z m262 -36 c-3 -16 -7 -22
-10 -15 -4 13 4 42 11 42 2 0 2 -12 -1 -27z m3868 -29 c11 -31 19 -59 16 -61
-2 -2 -11 15 -19 39 -8 24 -18 51 -22 61 -4 9 -5 17 -2 17 3 0 15 -25 27 -56z
m35 46 c3 -5 1 -10 -4 -10 -6 0 -11 5 -11 10 0 6 2 10 4 10 3 0 8 -4 11 -10z
m-4320 -48 c3 -14 2 -28 -4 -31 -6 -4 -7 -12 -1 -21 12 -18 13 -30 3 -30 -14
0 -31 48 -22 61 4 7 5 17 2 22 -3 5 -9 4 -13 -3 -5 -7 -9 -1 -12 18 -4 28 -3
29 18 20 12 -6 25 -22 29 -36z m155 28 c0 -5 -2 -10 -4 -10 -3 0 -8 5 -11 10
-3 6 -1 10 4 10 6 0 11 -4 11 -10z m26 -87 c-1 -21 -3 -65 -5 -98 -2 -43 -5
-54 -10 -40 -5 11 -5 43 -1 70 5 28 6 62 3 78 -3 15 -1 27 4 27 6 0 9 -17 9
-37z m-206 -33 c0 -5 -5 -10 -11 -10 -5 0 -7 5 -4 10 3 6 8 10 11 10 2 0 4 -4
4 -10z m173 -15 c-7 -21 -13 -19 -13 6 0 11 4 18 10 14 5 -3 7 -12 3 -20z
m4221 -77 c9 -17 14 -33 12 -36 -4 -4 -36 51 -36 63 0 13 10 3 24 -27z m-4322
7 c0 -5 -5 -11 -11 -13 -6 -2 -11 4 -11 13 0 9 5 15 11 13 6 -2 11 -8 11 -13z
m-32 -32 c0 -17 -8 -16 -26 1 -12 13 -12 15 6 13 11 -1 20 -7 20 -14z m-60
-42 c0 -20 -2 -23 -10 -11 -5 8 -11 12 -15 9 -3 -3 4 -16 15 -29 11 -13 20
-28 19 -34 0 -6 -3 -5 -6 2 -3 7 -15 17 -28 22 -22 8 -34 39 -27 72 6 29 52 1
52 -31z m84 -30 c-5 -13 -8 -10 -14 9 -9 35 1 60 12 30 5 -13 6 -31 2 -39z
m2029 32 c5 -26 4 -26 -9 -9 -7 10 -11 23 -8 27 8 14 11 11 17 -18z m-1893 7
c0 -5 -4 -10 -10 -10 -5 0 -10 5 -10 10 0 6 5 10 10 10 6 0 10 -4 10 -10z
m-180 -10 c0 -5 -4 -10 -10 -10 -5 0 -10 5 -10 10 0 6 5 10 10 10 6 0 10 -4
10 -10z m-127 -31 c-5 -16 -8 -17 -21 -7 -13 11 -14 10 -7 -12 4 -13 14 -30
21 -38 12 -12 11 -18 -11 -44 -14 -16 -23 -33 -21 -37 3 -3 7 -72 10 -151 4
-80 8 -183 11 -229 3 -62 1 -81 -7 -73 -7 7 -12 52 -12 112 -1 55 -3 100 -6
100 -3 0 -6 86 -7 191 -2 105 -5 194 -7 198 -3 4 10 7 28 8 28 1 33 -2 29 -18z
m142 -55 c-3 -37 -1 -72 4 -78 13 -16 8 -64 -6 -59 -16 6 -22 46 -19 121 1 34
-2 62 -6 62 -5 0 -6 5 -3 10 3 6 13 10 21 10 11 0 13 -13 9 -66z m362 -26 c-2
-18 -4 -4 -4 32 0 36 2 50 4 33 2 -18 2 -48 0 -65z m-70 40 c-3 -8 -6 -5 -6 6
-1 11 2 17 5 13 3 -3 4 -12 1 -19z m-609 -25 c-9 -10 -18 -40 -21 -68 -3 -27
-8 -62 -12 -78 -6 -21 -4 -26 7 -22 16 6 23 -31 7 -40 -15 -10 -10 -28 6 -21
10 3 15 -1 15 -13 0 -10 -7 -21 -15 -25 -8 -3 -15 -15 -15 -27 0 -54 -13 -1
-24 95 -11 104 -11 106 9 100 19 -5 19 -4 -2 13 -16 13 -20 22 -13 33 5 8 7
23 4 34 -4 11 -2 16 4 12 6 -3 13 -2 17 4 4 6 11 8 16 5 5 -4 12 1 15 10 4 9
9 13 12 10 3 -2 -2 -13 -10 -22z m2442 1 c0 -8 -5 -12 -10 -9 -6 4 -8 11 -5
16 9 14 15 11 15 -7z m-1960 -70 c0 -41 -5 -60 -20 -76 -11 -12 -20 -17 -20
-12 0 6 5 15 11 21 7 7 11 39 11 73 -1 35 3 58 9 55 5 -4 9 -31 9 -61z m4375
46 c3 -5 1 -10 -4 -10 -6 0 -11 5 -11 10 0 6 2 10 4 10 3 0 8 -4 11 -10z
m-4518 -22 c-3 -8 -6 -5 -6 6 -1 11 2 17 5 13 3 -3 4 -12 1 -19z m101 -29 c-3
-8 -7 -3 -11 10 -4 17 -3 21 5 13 5 -5 8 -16 6 -23z m-36 -14 c-12 -22 -27 -2
-18 22 5 12 10 13 17 6 7 -7 8 -17 1 -28z m-235 -7 c-3 -7 -5 -2 -5 12 0 14 2
19 5 13 2 -7 2 -19 0 -25z m0 -40 c-3 -8 -6 -5 -6 6 -1 11 2 17 5 13 3 -3 4
-12 1 -19z m238 2 c3 -5 1 -10 -4 -10 -6 0 -11 5 -11 10 0 6 2 10 4 10 3 0 8
-4 11 -10z m-65 -25 c0 -8 -4 -15 -10 -15 -5 0 -7 7 -4 15 4 8 8 15 10 15 2 0
4 -7 4 -15z m61 -32 c-9 -16 -10 -14 -11 12 0 21 3 26 11 18 8 -8 8 -16 0 -30z
m-83 -38 c-2 -28 -7 -40 -13 -35 -13 11 -7 92 6 84 5 -3 8 -25 7 -49z m167 35
c3 -5 1 -10 -4 -10 -6 0 -11 5 -11 10 0 6 2 10 4 10 3 0 8 -4 11 -10z m-405
-54 c0 -19 -4 -37 -9 -40 -10 -7 -19 30 -13 57 6 30 22 18 22 -17z m320 10
c-5 -13 -6 -27 -2 -30 10 -11 12 -105 2 -111 -6 -3 -10 2 -11 12 0 10 -3 29
-5 43 -7 33 5 110 16 110 6 0 6 -10 0 -24z m72 7 c1 -18 4 -34 8 -43 1 -3 3
-66 4 -140 2 -74 7 -159 11 -187 5 -37 4 -53 -4 -53 -6 0 -11 -12 -10 -27 l0
-28 11 25 c10 22 12 23 15 6 3 -11 -4 -27 -17 -40 -13 -11 -20 -16 -16 -9 4 7
1 21 -5 31 -8 12 -9 29 -4 48 5 16 8 31 8 34 -1 3 -4 21 -8 40 -9 44 -12 150
-5 150 3 0 6 9 7 20 1 11 -2 20 -6 20 -5 0 -5 19 -1 42 5 23 7 46 5 52 -11 37
-13 76 -5 76 6 0 11 -8 12 -17z m-287 -3 c3 -5 2 -10 -4 -10 -6 0 -8 -8 -5
-17 5 -15 4 -16 -5 -3 -6 8 -11 21 -11 28 0 14 16 16 25 2z m312 -12 c-3 -8
-6 -5 -6 6 -1 11 2 17 5 13 3 -3 4 -12 1 -19z m-171 -150 c1 -62 4 -206 8
-320 4 -130 2 -208 -4 -208 -5 0 -8 12 -6 28 2 15 -1 81 -6 147 -5 66 -11 194
-13 285 -3 151 -1 172 20 180 1 0 1 -51 1 -112z m-272 78 c-3 -8 -1 -17 5 -21
13 -7 15 -35 3 -35 -12 0 -30 42 -25 58 3 6 9 12 14 12 4 0 6 -6 3 -14z m510
-2 c3 -8 2 -12 -4 -9 -6 3 -10 10 -10 16 0 14 7 11 14 -7z m-374 -60 c0 -8 -4
-12 -10 -9 -5 3 -10 10 -10 16 0 5 5 9 10 9 6 0 10 -7 10 -16z m-74 -33 c0
-15 -3 -17 -13 -9 -7 6 -13 14 -13 19 0 5 6 9 13 9 7 0 13 -9 13 -19z m71 -38
c-3 -10 -5 -2 -5 17 0 19 2 27 5 18 2 -10 2 -26 0 -35z m383 40 c0 -5 -5 -15
-10 -23 -8 -12 -10 -11 -10 8 0 12 5 22 10 22 6 0 10 -3 10 -7z m-500 -33 c0
-5 -4 -10 -10 -10 -5 0 -10 5 -10 10 0 6 5 10 10 10 6 0 10 -4 10 -10z m341
-23 c-13 -13 -26 -3 -16 12 3 6 11 8 17 5 6 -4 6 -10 -1 -17z m-351 -29 c0
-18 -2 -20 -9 -8 -6 8 -7 18 -5 22 9 14 14 9 14 -14z m47 -31 c1 -37 -1 -46
-7 -32 -11 25 -13 85 -2 85 4 0 8 -24 9 -53z m453 23 c6 -11 7 -20 2 -20 -6 0
-12 9 -15 20 -3 11 -3 20 -1 20 2 0 8 -9 14 -20z m-150 -7 c0 -10 3 -29 7 -43
6 -22 5 -24 -10 -11 -21 17 -22 3 -2 -26 13 -18 13 -22 0 -33 -12 -10 -15 -9
-16 6 -5 72 0 124 11 124 6 0 10 -8 10 -17z m-333 -35 c-3 -8 -6 -5 -6 6 -1
11 2 17 5 13 3 -3 4 -12 1 -19z m489 -2 c16 -17 19 -30 4 -21 -5 3 -7 0 -4 -8
3 -8 1 -18 -4 -21 -6 -3 -12 10 -14 29 -4 39 -3 41 18 21z m-490 -46 c9 0 14
-10 13 -27 -1 -17 -3 -21 -6 -10 -2 9 -11 17 -19 17 -8 0 -14 9 -13 23 0 12 3
16 6 10 2 -7 11 -13 19 -13z m384 -31 c0 -14 -17 -10 -23 5 -4 10 -1 13 9 9 7
-3 14 -9 14 -14z m124 -99 c2 -62 0 -100 -8 -109 -9 -12 -8 -13 3 -6 11 6 13
3 7 -19 -3 -14 -2 -26 3 -26 5 0 8 -8 6 -17 -2 -10 -4 -33 -4 -50 -1 -18 -5
-33 -10 -33 -5 0 -12 66 -16 148 -4 81 -8 157 -10 170 -2 13 -1 30 2 38 12 33
23 -6 27 -96z m-477 48 c-3 -7 -5 -2 -5 12 0 14 2 19 5 13 2 -7 2 -19 0 -25z
m311 -4 c-3 -14 -5 -12 -10 9 -3 19 -2 25 4 19 6 -6 8 -18 6 -28z m-338 -15
c0 -10 -4 -19 -10 -19 -5 0 -10 12 -10 26 0 14 4 23 10 19 6 -3 10 -15 10 -26z
m450 -19 c0 -11 -4 -20 -9 -20 -5 0 -7 9 -4 20 3 11 7 20 9 20 2 0 4 -9 4 -20z
m-160 -12 c0 -18 -2 -20 -9 -8 -6 8 -7 18 -5 22 9 14 14 9 14 -14z m58 -10
c15 -32 23 -98 11 -98 -5 0 -9 19 -10 43 0 33 -2 38 -10 22 -8 -18 -8 -18 -7
5 1 14 -1 31 -5 38 -5 6 -4 12 1 12 5 0 14 -10 20 -22z m4302 12 c0 -5 -2 -10
-4 -10 -3 0 -8 5 -11 10 -3 6 -1 10 4 10 6 0 11 -4 11 -10z m-4602 -25 c-3 -3
-9 2 -12 12 -6 14 -5 15 5 6 7 -7 10 -15 7 -18z m372 -1 c0 -8 -4 -13 -9 -10
-5 3 -7 -17 -5 -48 2 -33 -1 -60 -10 -71 -11 -16 -13 -8 -14 58 0 63 2 77 16
80 9 3 18 5 20 6 1 0 2 -6 2 -15z m-423 -16 c-3 -8 -6 -5 -6 6 -1 11 2 17 5
13 3 -3 4 -12 1 -19z m450 -50 c-2 -13 -4 -5 -4 17 -1 22 1 32 4 23 2 -10 2
-28 0 -40z m-153 7 c-4 -8 -10 -15 -15 -15 -4 0 -6 7 -3 15 4 8 10 15 15 15 4
0 6 -7 3 -15z m305 -95 c1 -13 0 -13 -9 0 -5 8 -9 24 -9 35 l0 20 9 -20 c5
-11 9 -27 9 -35z m-132 10 c-2 -29 -17 -24 -17 6 0 14 4 23 9 19 6 -3 9 -14 8
-25z m-124 -36 c-7 -20 -10 -18 -15 11 -4 20 -2 23 8 14 7 -6 10 -17 7 -25z
m78 -14 c5 0 9 5 9 12 0 6 3 8 7 4 10 -9 10 -116 1 -122 -7 -4 -12 32 -11 73
1 7 -3 10 -8 7 -13 -8 -31 46 -23 65 6 12 9 9 12 -11 2 -16 8 -28 13 -28z
m109 -113 c-14 -16 -18 7 -12 63 l6 55 7 -55 c3 -30 3 -59 -1 -63z m-33 41
c-3 -8 -6 -5 -6 6 -1 11 2 17 5 13 3 -3 4 -12 1 -19z m123 -18 c0 -5 -4 -10
-10 -10 -5 0 -10 5 -10 10 0 6 5 10 10 10 6 0 10 -4 10 -10z m-43 -37 c-3 -10
-5 -4 -5 12 0 17 2 24 5 18 2 -7 2 -21 0 -30z"/>
<path d="M3290 4970 c0 -5 5 -10 11 -10 5 0 7 5 4 10 -3 6 -8 10 -11 10 -2 0
-4 -4 -4 -10z"/>
<path d="M495 1722 c-14 -9 -17 -53 -4 -68 5 -6 6 -19 3 -29 -5 -13 -9 -14
-15 -3 -5 8 -7 3 -5 -15 1 -15 5 -29 8 -32 8 -8 27 77 24 105 -2 14 1 31 7 38
10 13 -2 16 -18 4z"/>
<path d="M580 1520 c-9 -6 -10 -10 -3 -10 6 0 15 5 18 10 8 12 4 12 -15 0z"/>
<path d="M385 1129 c-10 -15 3 -25 16 -12 7 7 7 13 1 17 -6 3 -14 1 -17 -5z"/>
<path d="M1950 6220 c0 -5 5 -10 10 -10 6 0 10 5 10 10 0 6 -4 10 -10 10 -5 0
-10 -4 -10 -10z"/>
<path d="M2050 6216 c0 -2 7 -7 16 -10 8 -3 12 -2 9 4 -6 10 -25 14 -25 6z"/>
<path d="M2100 6205 c-10 -12 -10 -15 3 -15 19 0 31 16 18 24 -5 3 -14 -1 -21
-9z"/>
<path d="M2130 6180 c0 -5 5 -10 10 -10 6 0 10 5 10 10 0 6 -4 10 -10 10 -5 0
-10 -4 -10 -10z"/>
<path d="M2190 6180 c0 -5 5 -10 10 -10 6 0 10 5 10 10 0 6 -4 10 -10 10 -5 0
-10 -4 -10 -10z"/>
<path d="M2140 6150 c0 -5 5 -10 11 -10 5 0 7 5 4 10 -3 6 -8 10 -11 10 -2 0
-4 -4 -4 -10z"/>
<path d="M2166 6132 c-3 -5 1 -15 9 -22 16 -14 20 -3 6 19 -5 8 -11 9 -15 3z"/>
<path d="M2220 6129 c0 -5 5 -7 10 -4 6 3 10 8 10 11 0 2 -4 4 -10 4 -5 0 -10
-5 -10 -11z"/>
<path d="M3270 6078 c0 -9 5 -20 11 -23 17 -11 18 -2 3 19 -12 17 -14 17 -14
4z"/>
<path d="M3317 6029 c7 -7 15 -10 18 -7 3 3 -2 9 -12 12 -14 6 -15 5 -6 -5z"/>
<path d="M3364 5991 c20 -22 26 -25 26 -13 0 4 -10 13 -22 21 -23 14 -23 14
-4 -8z"/>
<path d="M3890 5451 c0 -6 4 -13 10 -16 6 -3 7 1 4 9 -7 18 -14 21 -14 7z"/>
<path d="M4040 5411 c0 -6 4 -13 10 -16 6 -3 7 1 4 9 -7 18 -14 21 -14 7z"/>
<path d="M4066 5362 c3 -13 19 -51 35 -85 16 -34 27 -51 23 -37 -4 14 -19 52
-35 85 -16 33 -26 50 -23 37z"/>
<path d="M4130 5205 c0 -5 5 -17 10 -25 5 -8 10 -10 10 -5 0 6 -5 17 -10 25
-5 8 -10 11 -10 5z"/>
<path d="M262 4695 c0 -16 2 -22 5 -12 2 9 2 23 0 30 -3 6 -5 -1 -5 -18z"/>
<path d="M4025 4710 c3 -5 8 -10 11 -10 2 0 4 5 4 10 0 6 -5 10 -11 10 -5 0
-7 -4 -4 -10z"/>
<path d="M4291 4694 c0 -11 3 -14 6 -6 3 7 2 16 -1 19 -3 4 -6 -2 -5 -13z"/>
<path d="M4190 4519 c0 -4 7 -22 15 -40 8 -19 14 -27 14 -19 0 14 -28 72 -29
59z"/>
<path d="M4130 4506 c0 -2 7 -17 15 -32 l15 -29 0 33 c0 22 -5 32 -15 32 -8 0
-15 -2 -15 -4z"/>
<path d="M4170 4429 c0 -8 7 -24 15 -35 19 -25 19 -14 0 22 -8 16 -15 22 -15
13z"/>
<path d="M82 4330 c0 -19 2 -27 5 -17 2 9 2 25 0 35 -3 9 -5 1 -5 -18z"/>
<path d="M4391 4144 c0 -11 3 -14 6 -6 3 7 2 16 -1 19 -3 4 -6 -2 -5 -13z"/>
<path d="M4470 4114 c0 -8 5 -12 10 -9 6 4 8 11 5 16 -9 14 -15 11 -15 -7z"/>
<path d="M1606 4101 c-4 -7 -5 -15 -2 -18 9 -9 19 4 14 18 -4 11 -6 11 -12 0z"/>
<path d="M4390 4053 c0 -4 5 -15 10 -23 8 -13 10 -13 10 2 0 9 -4 20 -10 23
-5 3 -10 3 -10 -2z"/>
<path d="M4420 3994 c0 -7 7 -27 15 -45 8 -19 14 -29 15 -23 0 7 -7 27 -15 45
-8 19 -14 29 -15 23z"/>
<path d="M4477 3983 c-10 -15 20 -76 33 -68 16 10 12 35 -4 29 -10 -4 -16 3
-18 23 -2 18 -6 24 -11 16z"/>
<path d="M4510 3890 c0 -5 5 -10 10 -10 6 0 10 5 10 10 0 6 -4 10 -10 10 -5 0
-10 -4 -10 -10z"/>
<path d="M4430 3870 c0 -5 5 -10 11 -10 5 0 7 5 4 10 -3 6 -8 10 -11 10 -2 0
-4 -4 -4 -10z"/>
<path d="M4537 3840 c3 -11 9 -20 14 -20 11 0 11 3 3 24 -9 23 -23 20 -17 -4z"/>
<path d="M4501 3784 c0 -11 3 -14 6 -6 3 7 2 16 -1 19 -3 4 -6 -2 -5 -13z"/>
<path d="M2100 3761 c0 -5 7 -12 16 -15 24 -9 28 -7 14 9 -14 17 -30 20 -30 6z"/>
<path d="M1848 3753 c6 -2 18 -2 25 0 6 3 1 5 -13 5 -14 0 -19 -2 -12 -5z"/>
<path d="M4527 3740 c3 -11 7 -20 9 -20 2 0 4 9 4 20 0 11 -4 20 -9 20 -5 0
-7 -9 -4 -20z"/>
<path d="M2055 3740 c-3 -5 -2 -10 4 -10 5 0 13 5 16 10 3 6 2 10 -4 10 -5 0
-13 -4 -16 -10z"/>
<path d="M4475 3740 c-7 -12 22 -70 36 -70 6 0 1 12 -10 26 -11 14 -17 32 -14
40 6 16 -3 19 -12 4z"/>
<path d="M1300 3097 c-33 -9 -46 -17 -48 -33 -3 -19 3 -21 73 -27 44 -3 87
-12 101 -21 20 -14 27 -14 44 -4 11 7 20 18 20 23 0 13 -49 43 -88 55 -15 4
-34 10 -42 13 -8 3 -35 0 -60 -6z"/>
<path d="M1495 3011 c-3 -6 3 -9 14 -8 11 0 17 5 15 9 -7 11 -22 10 -29 -1z"/>
<path d="M4690 2644 c0 -8 5 -12 10 -9 6 4 8 11 5 16 -9 14 -15 11 -15 -7z"/>
<path d="M4597 2558 c-4 -12 -4 -24 -2 -26 6 -6 35 25 35 37 0 20 -28 11 -33
-11z"/>
<path d="M4693 2542 c-9 -6 -7 -11 6 -19 16 -10 18 -9 14 8 -3 10 -6 19 -7 19
0 0 -6 -4 -13 -8z"/>
<path d="M4706 2477 c3 -10 9 -15 12 -12 3 3 0 11 -7 18 -10 9 -11 8 -5 -6z"/>
<path d="M1610 2440 c-13 -8 -12 -10 3 -10 9 0 17 5 17 10 0 12 -1 12 -20 0z"/>
<path d="M3271 2434 c0 -11 3 -14 6 -6 3 7 2 16 -1 19 -3 4 -6 -2 -5 -13z"/>
<path d="M4712 2430 c0 -14 2 -19 5 -12 2 6 2 18 0 25 -3 6 -5 1 -5 -13z"/>
<path d="M1 2309 c-1 -39 4 -60 14 -69 8 -7 15 -25 15 -41 0 -16 5 -29 10 -29
12 0 4 36 -17 88 -7 18 -11 36 -9 41 3 4 1 21 -4 37 -7 25 -8 21 -9 -27z"/>
<path d="M4758 2195 c2 -14 6 -25 8 -25 2 0 4 11 4 25 0 14 -4 25 -9 25 -4 0
-6 -11 -3 -25z"/>
<path d="M0 2180 c0 -11 2 -20 4 -20 2 0 6 9 9 20 3 11 1 20 -4 20 -5 0 -9 -9
-9 -20z"/>
<path d="M15 2140 c3 -5 8 -10 11 -10 2 0 4 5 4 10 0 6 -5 10 -11 10 -5 0 -7
-4 -4 -10z"/>
<path d="M4770 2141 c0 -6 4 -11 9 -11 5 0 11 -15 14 -32 12 -76 20 -103 30
-110 9 -6 8 -11 -3 -18 -13 -8 -12 -10 4 -10 14 0 17 -6 14 -25 -3 -14 -1 -25
3 -25 5 0 9 -11 9 -25 0 -23 6 -41 36 -110 32 -75 54 -135 54 -147 0 -8 9 -33
20 -56 11 -22 20 -50 20 -61 0 -11 5 -23 11 -26 6 -4 8 -13 5 -20 -3 -8 -2
-15 2 -17 10 -4 79 -147 87 -180 9 -34 35 -59 35 -34 0 10 -5 14 -11 10 -9 -5
-10 1 -5 20 5 20 4 26 -5 20 -8 -4 -9 -3 -5 5 7 11 -42 123 -56 129 -5 2 -8
11 -8 21 0 9 -4 21 -9 27 -5 5 -14 27 -21 49 -7 22 -16 45 -20 50 -4 6 -15 37
-25 70 -10 33 -21 65 -26 70 -4 6 -13 33 -20 60 -6 28 -16 55 -21 62 -5 7 -7
17 -3 24 6 8 10 7 17 -2 5 -9 6 -3 2 16 -9 38 -14 44 -14 16 0 -12 -4 -19 -10
-16 -14 9 -13 45 2 45 6 0 4 7 -5 18 -10 10 -17 23 -17 28 0 5 5 2 10 -6 8
-11 9 -7 4 15 -10 45 -24 78 -30 73 -2 -3 1 -17 7 -32 9 -18 9 -30 2 -37 -7
-7 -14 5 -23 38 -7 26 -13 51 -12 54 2 14 -27 84 -37 87 -6 2 -11 -1 -11 -7z"/>
<path d="M10 2110 c-12 -8 -11 -10 8 -10 12 0 22 5 22 10 0 13 -11 13 -30 0z"/>
<path d="M4745 2110 c3 -5 8 -10 11 -10 2 0 4 5 4 10 0 6 -5 10 -11 10 -5 0
-7 -4 -4 -10z"/>
<path d="M60 2079 c0 -5 5 -7 10 -4 6 3 10 8 10 11 0 2 -4 4 -10 4 -5 0 -10
-5 -10 -11z"/>
<path d="M4750 2080 c0 -5 5 -10 10 -10 6 0 10 5 10 10 0 6 -4 10 -10 10 -5 0
-10 -4 -10 -10z"/>
<path d="M16 2065 c4 -8 8 -15 10 -15 2 0 4 7 4 15 0 8 -4 15 -10 15 -5 0 -7
-7 -4 -15z"/>
<path d="M202 1980 c0 -14 2 -19 5 -12 2 6 2 18 0 25 -3 6 -5 1 -5 -13z"/>
<path d="M57 1950 c-3 -11 -1 -20 4 -20 5 0 9 9 9 20 0 11 -2 20 -4 20 -2 0
-6 -9 -9 -20z"/>
<path d="M4805 1929 c-11 -16 -1 -19 13 -3 7 8 8 14 3 14 -5 0 -13 -5 -16 -11z"/>
<path d="M372 1870 c0 -19 2 -27 5 -17 2 9 2 25 0 35 -3 9 -5 1 -5 -18z"/>
<path d="M46 1845 c2 -11 4 -23 4 -27 0 -15 20 -8 20 7 0 8 -4 15 -9 15 -5 0
-11 6 -14 13 -2 6 -3 3 -1 -8z"/>
<path d="M159 1868 c-7 -31 -9 -168 -1 -168 13 0 20 42 11 66 -4 10 -5 38 -2
62 3 23 3 42 -1 42 -3 0 -6 -1 -7 -2z"/>
<path d="M257 1824 c-15 -20 -15 -24 -3 -24 8 0 18 9 21 21 10 29 3 31 -18 3z"/>
<path d="M220 1775 c1 -26 2 -28 11 -12 8 14 8 22 0 30 -8 8 -11 3 -11 -18z"/>
<path d="M354 1767 c3 -10 6 -25 6 -33 0 -9 5 -12 10 -9 14 9 13 18 -6 41 -14
17 -15 17 -10 1z"/>
<path d="M4937 1749 c4 -13 8 -18 11 -10 2 7 -1 18 -6 23 -8 8 -9 4 -5 -13z"/>
<path d="M50 1724 c0 -8 5 -12 10 -9 6 3 10 10 10 16 0 5 -4 9 -10 9 -5 0 -10
-7 -10 -16z"/>
<path d="M242 1675 c0 -44 4 -68 14 -76 19 -16 29 -5 11 12 -12 12 -15 49 -7
84 5 20 0 45 -9 45 -4 0 -9 -29 -9 -65z"/>
<path d="M221 1688 c0 -9 -4 -25 -7 -35 -5 -17 -5 -17 6 0 6 10 9 25 7 35 -4
15 -5 15 -6 0z"/>
<path d="M350 1655 c-1 -22 -3 -53 -4 -68 -1 -24 0 -26 10 -12 7 9 10 27 8 41
-3 15 0 24 8 24 9 0 10 2 2 8 -7 4 -14 16 -17 27 -3 12 -6 3 -7 -20z"/>
<path d="M174 1624 c0 -34 3 -49 7 -38 10 25 11 94 2 94 -5 0 -8 -25 -9 -56z"/>
<path d="M50 1659 c0 -5 5 -7 10 -4 6 3 10 8 10 11 0 2 -4 4 -10 4 -5 0 -10
-5 -10 -11z"/>
<path d="M106 1625 c4 -8 8 -15 10 -15 2 0 4 7 4 15 0 8 -4 15 -10 15 -5 0 -7
-7 -4 -15z"/>
<path d="M4980 1634 c0 -6 7 -19 16 -30 14 -18 14 -18 3 6 -14 31 -19 36 -19
24z"/>
<path d="M62 1596 c1 -19 5 -33 8 -31 7 4 1 65 -6 65 -3 0 -4 -15 -2 -34z"/>
<path d="M2565 1610 c-3 -5 -1 -10 4 -10 6 0 11 5 11 10 0 6 -2 10 -4 10 -3 0
-8 -4 -11 -10z"/>
<path d="M151 1544 c0 -11 3 -14 6 -6 3 7 2 16 -1 19 -3 4 -6 -2 -5 -13z"/>
<path d="M5031 1530 c0 -8 4 -22 9 -30 12 -18 12 -2 0 25 -6 13 -9 15 -9 5z"/>
<path d="M180 1520 c0 -5 5 -10 10 -10 6 0 10 5 10 10 0 6 -4 10 -10 10 -5 0
-10 -4 -10 -10z"/>
<path d="M147 1506 c-4 -10 -2 -25 5 -33 12 -15 12 -103 0 -113 -4 -3 -7 -14
-6 -25 2 -46 3 -47 20 -31 12 13 15 31 11 84 -2 37 -9 83 -14 102 -7 29 -10
32 -16 16z"/>
<path d="M60 1495 c0 -8 4 -15 10 -15 5 0 7 7 4 15 -4 8 -8 15 -10 15 -2 0 -4
-7 -4 -15z"/>
<path d="M310 1485 c0 -8 4 -15 10 -15 5 0 7 7 4 15 -4 8 -8 15 -10 15 -2 0
-4 -7 -4 -15z"/>
<path d="M300 1439 c0 -11 4 -18 10 -14 5 3 7 12 3 20 -7 21 -13 19 -13 -6z"/>
<path d="M261 1434 c0 -11 3 -14 6 -6 3 7 2 16 -1 19 -3 4 -6 -2 -5 -13z"/>
<path d="M5060 1447 c0 -12 32 -88 36 -85 4 5 -20 76 -29 84 -4 4 -7 4 -7 1z"/>
<path d="M110 1380 c0 -5 5 -10 10 -10 6 0 10 5 10 10 0 6 -4 10 -10 10 -5 0
-10 -4 -10 -10z"/>
<path d="M108 1325 c5 -41 8 -44 14 -10 3 14 0 29 -6 34 -9 7 -11 1 -8 -24z"/>
<path d="M5100 1343 c0 -4 5 -15 10 -23 8 -13 10 -13 10 2 0 9 -4 20 -10 23
-5 3 -10 3 -10 -2z"/>
<path d="M270 1317 c0 -14 5 -29 10 -32 7 -4 8 3 4 22 -9 38 -14 42 -14 10z"/>
<path d="M3905 1300 c21 -24 26 -25 19 -6 -3 8 -13 17 -22 21 -13 5 -13 2 3
-15z"/>
<path d="M138 1263 c5 -21 7 -23 10 -9 2 10 0 22 -6 28 -6 6 -7 0 -4 -19z"/>
<path d="M3036 1246 c-49 -25 -94 -42 -99 -39 -8 5 -47 -29 -47 -42 0 -11 22
-4 48 15 42 30 162 45 247 30 38 -7 81 -17 95 -22 24 -9 128 -38 215 -59 64
-16 268 -106 352 -156 96 -57 191 -120 263 -175 69 -52 270 -249 270 -263 0
-6 14 -24 30 -40 17 -16 30 -33 30 -38 0 -4 26 -47 58 -95 32 -48 100 -149
151 -225 l93 -137 74 0 75 0 -17 32 c-9 17 -52 90 -96 162 -148 241 -179 299
-174 322 4 13 -2 28 -17 42 -12 12 -26 26 -32 31 -46 47 -70 61 -96 56 -20 -5
-31 -1 -45 18 -42 52 -309 275 -388 323 -165 99 -383 193 -541 233 -44 11
-107 29 -139 41 -33 11 -96 22 -140 25 -80 5 -82 5 -170 -39z m1419 -656 c-20
-27 -33 -55 -29 -61 4 -7 1 -10 -7 -7 -22 8 -15 33 22 77 48 57 58 51 14 -9z
m91 -128 l-26 -26 -27 26 c-16 14 -35 28 -43 31 -11 4 -10 6 4 6 11 1 30 -9
43 -21 l23 -21 22 28 c14 18 23 24 26 16 2 -7 -7 -25 -22 -39z"/>
<path d="M167 1273 c-11 -10 -8 -63 3 -63 6 0 10 16 10 35 0 36 -2 40 -13 28z"/>
<path d="M4000 1256 c0 -2 7 -9 15 -16 9 -7 15 -8 15 -2 0 5 -7 12 -15 16 -8
3 -15 4 -15 2z"/>
<path d="M2745 1200 c-3 -5 -2 -10 4 -10 5 0 13 5 16 10 3 6 2 10 -4 10 -5 0
-13 -4 -16 -10z"/>
<path d="M2710 1193 c0 -12 38 -48 44 -42 3 2 -6 15 -20 28 -13 13 -24 19 -24
14z"/>
<path d="M270 1165 c0 -8 5 -15 10 -15 6 0 10 7 10 15 0 8 -4 15 -10 15 -5 0
-10 -7 -10 -15z"/>
<path d="M108 1138 c-7 -18 19 -54 30 -43 4 3 1 9 -5 13 -6 4 -12 16 -15 27
-3 18 -4 18 -10 3z"/>
<path d="M3460 1100 c0 -5 5 -10 11 -10 5 0 7 5 4 10 -3 6 -8 10 -11 10 -2 0
-4 -4 -4 -10z"/>
<path d="M60 1089 c0 -5 5 -7 10 -4 6 3 10 8 10 11 0 2 -4 4 -10 4 -5 0 -10
-5 -10 -11z"/>
<path d="M111 1024 c0 -11 3 -14 6 -6 3 7 2 16 -1 19 -3 4 -6 -2 -5 -13z"/>
<path d="M105 890 c3 -5 8 -10 11 -10 2 0 4 5 4 10 0 6 -5 10 -11 10 -5 0 -7
-4 -4 -10z"/>
<path d="M4511 890 c0 -22 26 -53 38 -45 15 9 14 28 -1 22 -7 -2 -18 5 -25 17
-8 14 -12 16 -12 6z"/>
<path d="M110 820 c0 -5 5 -10 11 -10 5 0 7 5 4 10 -3 6 -8 10 -11 10 -2 0 -4
-4 -4 -10z"/>
<path d="M121 784 c0 -11 3 -14 6 -6 3 7 2 16 -1 19 -3 4 -6 -2 -5 -13z"/>
<path d="M146 783 c-4 -9 -1 -20 6 -25 9 -6 5 -7 -9 -3 -24 7 -28 -1 -14 -23
13 -22 39 11 34 42 -6 30 -9 32 -17 9z"/>
<path d="M4610 785 c0 -8 5 -15 10 -15 6 0 10 7 10 15 0 8 -4 15 -10 15 -5 0
-10 -7 -10 -15z"/>
<path d="M225 740 c-5 -30 -11 -40 -26 -40 -10 0 -19 -5 -19 -11 0 -6 8 -8 19
-4 22 7 29 -19 35 -138 2 -43 7 -81 11 -85 7 -7 1 130 -8 207 -2 19 -1 50 3
68 5 18 4 35 0 38 -5 3 -11 -13 -15 -35z"/>
<path d="M4652 738 c2 -6 10 -14 16 -16 7 -2 10 2 6 12 -7 18 -28 22 -22 4z"/>
<path d="M152 683 c1 -23 5 -48 9 -55 12 -18 10 51 -1 77 -7 15 -8 10 -8 -22z"/>
<path d="M194 655 c-4 -8 -2 -36 3 -63 l10 -47 -1 62 c-1 66 -3 73 -12 48z"/>
<path d="M16 645 c-9 -26 -7 -32 5 -12 6 10 9 21 6 23 -2 3 -7 -2 -11 -11z"/>
<path d="M165 557 c-3 -12 -2 -34 4 -47 9 -22 10 -19 10 23 1 51 -5 61 -14 24z"/>
<path d="M32 420 c0 -14 2 -19 5 -12 2 6 2 18 0 25 -3 6 -5 1 -5 -13z"/>
<path d="M182 420 c0 -14 2 -19 5 -12 2 6 2 18 0 25 -3 6 -5 1 -5 -13z"/>
<path d="M245 430 c3 -5 8 -10 11 -10 2 0 4 5 4 10 0 6 -5 10 -11 10 -5 0 -7
-4 -4 -10z"/>
<path d="M250 354 c0 -8 5 -12 10 -9 6 4 8 11 5 16 -9 14 -15 11 -15 -7z"/>
<path d="M465 210 c3 -5 8 -10 11 -10 2 0 4 5 4 10 0 6 -5 10 -11 10 -5 0 -7
-4 -4 -10z"/>
<path d="M476 171 c-4 -5 -2 -12 3 -15 5 -4 12 -2 15 3 4 5 2 12 -3 15 -5 4
-12 2 -15 -3z"/>
<path d="M392 120 c0 -14 2 -19 5 -12 2 6 2 18 0 25 -3 6 -5 1 -5 -13z"/>
<path d="M490 91 c0 -6 4 -13 10 -16 6 -3 7 1 4 9 -7 18 -14 21 -14 7z"/>
<path d="M422 75 c0 -11 4 -33 8 -50 l8 -30 0 30 c0 17 -3 39 -8 50 l-9 20 1
-20z"/>
<path d="M560 61 c0 -11 5 -23 10 -26 6 -4 10 5 10 19 0 14 -4 26 -10 26 -5 0
-10 -9 -10 -19z"/>
</g>
</svg>
